<svg width="68" height="78" viewBox="0 0 68 78" fill="none" xmlns="http://www.w3.org/2000/svg">
<path d="M58.5066 1.97152C58.5066 2.59437 59.0094 3.09929 59.6297 3.09929C60.25 3.09929 60.7529 2.59437 60.7529 1.97152C60.7529 1.34867 60.25 0.84375 59.6297 0.84375C59.0094 0.84375 58.5066 1.34867 58.5066 1.97152Z" fill="#CED6E2"/>
<path d="M51.7676 1.97152C51.7676 2.59437 52.2704 3.09929 52.8907 3.09929C53.511 3.09929 54.0139 2.59437 54.0139 1.97152C54.0139 1.34867 53.511 0.84375 52.8907 0.84375C52.2704 0.84375 51.7676 1.34867 51.7676 1.97152Z" fill="#CED6E2"/>
<path d="M45.0285 1.97152C45.0285 2.59437 45.5314 3.09929 46.1517 3.09929C46.772 3.09929 47.2749 2.59437 47.2749 1.97152C47.2749 1.34867 46.772 0.84375 46.1517 0.84375C45.5314 0.84375 45.0285 1.34867 45.0285 1.97152Z" fill="#CED6E2"/>
<path d="M38.2895 1.97152C38.2895 2.59437 38.7924 3.09929 39.4127 3.09929C40.033 3.09929 40.5359 2.59437 40.5359 1.97152C40.5359 1.34867 40.033 0.84375 39.4127 0.84375C38.7924 0.84375 38.2895 1.34867 38.2895 1.97152Z" fill="#CED6E2"/>
<path d="M31.5505 1.97152C31.5505 2.59437 32.0534 3.09929 32.6737 3.09929C33.294 3.09929 33.7969 2.59437 33.7969 1.97152C33.7969 1.34867 33.294 0.84375 32.6737 0.84375C32.0534 0.84375 31.5505 1.34867 31.5505 1.97152Z" fill="#CED6E2"/>
<path d="M24.8115 1.97152C24.8115 2.59437 25.3144 3.09929 25.9347 3.09929C26.555 3.09929 27.0578 2.59437 27.0578 1.97152C27.0578 1.34867 26.555 0.84375 25.9347 0.84375C25.3144 0.84375 24.8115 1.34867 24.8115 1.97152Z" fill="#CED6E2"/>
<path d="M18.0725 1.97152C18.0725 2.59437 18.5754 3.09929 19.1957 3.09929C19.816 3.09929 20.3188 2.59437 20.3188 1.97152C20.3188 1.34867 19.816 0.84375 19.1957 0.84375C18.5754 0.84375 18.0725 1.34867 18.0725 1.97152Z" fill="#CED6E2"/>
<path d="M11.3335 1.97152C11.3335 2.59437 11.8364 3.09929 12.4567 3.09929C13.077 3.09929 13.5798 2.59437 13.5798 1.97152C13.5798 1.34867 13.077 0.84375 12.4567 0.84375C11.8364 0.84375 11.3335 1.34867 11.3335 1.97152Z" fill="#CED6E2"/>
<path d="M4.59449 1.97152C4.59449 2.59437 5.09734 3.09929 5.71766 3.09929C6.33796 3.09929 6.84083 2.59437 6.84083 1.97152C6.84083 1.34867 6.33796 0.84375 5.71766 0.84375C5.09734 0.84375 4.59449 1.34867 4.59449 1.97152Z" fill="#CED6E2"/>
<path d="M-2.14452 1.97152C-2.14452 2.59437 -1.64166 3.09929 -1.02135 3.09929C-0.401047 3.09929 0.101814 2.59437 0.101814 1.97152C0.101814 1.34867 -0.401047 0.84375 -1.02135 0.84375C-1.64166 0.84375 -2.14452 1.34867 -2.14452 1.97152Z" fill="#CED6E2"/>
<path d="M-8.88353 1.97152C-8.88353 2.59437 -8.38067 3.09929 -7.76036 3.09929C-7.14005 3.09929 -6.6372 2.59437 -6.6372 1.97152C-6.6372 1.34867 -7.14005 0.84375 -7.76036 0.84375C-8.38067 0.84375 -8.88353 1.34867 -8.88353 1.97152Z" fill="#CED6E2"/>
<path d="M58.5066 8.73813C58.5066 9.36097 59.0094 9.86589 59.6297 9.86589C60.25 9.86589 60.7529 9.36097 60.7529 8.73813C60.7529 8.11528 60.25 7.61036 59.6297 7.61036C59.0094 7.61036 58.5066 8.11528 58.5066 8.73813Z" fill="#CED6E2"/>
<path d="M51.7676 8.73813C51.7676 9.36097 52.2704 9.86589 52.8907 9.86589C53.511 9.86589 54.0139 9.36097 54.0139 8.73813C54.0139 8.11528 53.511 7.61036 52.8907 7.61036C52.2704 7.61036 51.7676 8.11528 51.7676 8.73813Z" fill="#CED6E2"/>
<path d="M45.0285 8.73813C45.0285 9.36097 45.5314 9.86589 46.1517 9.86589C46.772 9.86589 47.2749 9.36097 47.2749 8.73813C47.2749 8.11528 46.772 7.61036 46.1517 7.61036C45.5314 7.61036 45.0285 8.11528 45.0285 8.73813Z" fill="#CED6E2"/>
<path d="M38.2895 8.73813C38.2895 9.36097 38.7924 9.86589 39.4127 9.86589C40.033 9.86589 40.5359 9.36097 40.5359 8.73813C40.5359 8.11528 40.033 7.61036 39.4127 7.61036C38.7924 7.61036 38.2895 8.11528 38.2895 8.73813Z" fill="#CED6E2"/>
<path d="M31.5505 8.73813C31.5505 9.36097 32.0534 9.86589 32.6737 9.86589C33.294 9.86589 33.7969 9.36097 33.7969 8.73813C33.7969 8.11528 33.294 7.61036 32.6737 7.61036C32.0534 7.61036 31.5505 8.11528 31.5505 8.73813Z" fill="#CED6E2"/>
<path d="M24.8115 8.73813C24.8115 9.36097 25.3144 9.86589 25.9347 9.86589C26.555 9.86589 27.0578 9.36097 27.0578 8.73813C27.0578 8.11528 26.555 7.61036 25.9347 7.61036C25.3144 7.61036 24.8115 8.11528 24.8115 8.73813Z" fill="#CED6E2"/>
<path d="M18.0725 8.73813C18.0725 9.36097 18.5754 9.86589 19.1957 9.86589C19.816 9.86589 20.3188 9.36097 20.3188 8.73813C20.3188 8.11528 19.816 7.61036 19.1957 7.61036C18.5754 7.61036 18.0725 8.11528 18.0725 8.73813Z" fill="#CED6E2"/>
<path d="M11.3335 8.73813C11.3335 9.36097 11.8364 9.86589 12.4567 9.86589C13.077 9.86589 13.5798 9.36097 13.5798 8.73813C13.5798 8.11528 13.077 7.61036 12.4567 7.61036C11.8364 7.61036 11.3335 8.11528 11.3335 8.73813Z" fill="#CED6E2"/>
<path d="M4.59449 8.73813C4.59449 9.36097 5.09734 9.86589 5.71766 9.86589C6.33796 9.86589 6.84083 9.36097 6.84083 8.73813C6.84083 8.11528 6.33796 7.61036 5.71766 7.61036C5.09734 7.61036 4.59449 8.11528 4.59449 8.73813Z" fill="#CED6E2"/>
<path d="M-2.14452 8.73813C-2.14452 9.36097 -1.64166 9.86589 -1.02135 9.86589C-0.401047 9.86589 0.101814 9.36097 0.101814 8.73813C0.101814 8.11528 -0.401047 7.61036 -1.02135 7.61036C-1.64166 7.61036 -2.14452 8.11528 -2.14452 8.73813Z" fill="#CED6E2"/>
<path d="M-8.88353 8.73813C-8.88353 9.36097 -8.38067 9.86589 -7.76036 9.86589C-7.14005 9.86589 -6.6372 9.36097 -6.6372 8.73813C-6.6372 8.11528 -7.14005 7.61036 -7.76036 7.61036C-8.38067 7.61036 -8.88353 8.11528 -8.88353 8.73813Z" fill="#CED6E2"/>
<path d="M58.5066 15.5047C58.5066 16.1276 59.0094 16.6325 59.6297 16.6325C60.25 16.6325 60.7529 16.1276 60.7529 15.5047C60.7529 14.8819 60.25 14.377 59.6297 14.377C59.0094 14.377 58.5066 14.8819 58.5066 15.5047Z" fill="#CED6E2"/>
<path d="M51.7676 15.5047C51.7676 16.1276 52.2704 16.6325 52.8907 16.6325C53.511 16.6325 54.0139 16.1276 54.0139 15.5047C54.0139 14.8819 53.511 14.377 52.8907 14.377C52.2704 14.377 51.7676 14.8819 51.7676 15.5047Z" fill="#CED6E2"/>
<path d="M45.0285 15.5047C45.0285 16.1276 45.5314 16.6325 46.1517 16.6325C46.772 16.6325 47.2749 16.1276 47.2749 15.5047C47.2749 14.8819 46.772 14.377 46.1517 14.377C45.5314 14.377 45.0285 14.8819 45.0285 15.5047Z" fill="#CED6E2"/>
<path d="M38.2895 15.5047C38.2895 16.1276 38.7924 16.6325 39.4127 16.6325C40.033 16.6325 40.5359 16.1276 40.5359 15.5047C40.5359 14.8819 40.033 14.377 39.4127 14.377C38.7924 14.377 38.2895 14.8819 38.2895 15.5047Z" fill="#CED6E2"/>
<path d="M31.5505 15.5047C31.5505 16.1276 32.0534 16.6325 32.6737 16.6325C33.294 16.6325 33.7969 16.1276 33.7969 15.5047C33.7969 14.8819 33.294 14.377 32.6737 14.377C32.0534 14.377 31.5505 14.8819 31.5505 15.5047Z" fill="#CED6E2"/>
<path d="M24.8115 15.5047C24.8115 16.1276 25.3144 16.6325 25.9347 16.6325C26.555 16.6325 27.0578 16.1276 27.0578 15.5047C27.0578 14.8819 26.555 14.377 25.9347 14.377C25.3144 14.377 24.8115 14.8819 24.8115 15.5047Z" fill="#CED6E2"/>
<path d="M18.0725 15.5047C18.0725 16.1276 18.5754 16.6325 19.1957 16.6325C19.816 16.6325 20.3188 16.1276 20.3188 15.5047C20.3188 14.8819 19.816 14.377 19.1957 14.377C18.5754 14.377 18.0725 14.8819 18.0725 15.5047Z" fill="#CED6E2"/>
<path d="M11.3335 15.5047C11.3335 16.1276 11.8364 16.6325 12.4567 16.6325C13.077 16.6325 13.5798 16.1276 13.5798 15.5047C13.5798 14.8819 13.077 14.377 12.4567 14.377C11.8364 14.377 11.3335 14.8819 11.3335 15.5047Z" fill="#CED6E2"/>
<path d="M4.59449 15.5047C4.59449 16.1276 5.09734 16.6325 5.71766 16.6325C6.33796 16.6325 6.84083 16.1276 6.84083 15.5047C6.84083 14.8819 6.33796 14.377 5.71766 14.377C5.09734 14.377 4.59449 14.8819 4.59449 15.5047Z" fill="#CED6E2"/>
<path d="M-2.14452 15.5047C-2.14452 16.1276 -1.64166 16.6325 -1.02135 16.6325C-0.401047 16.6325 0.101814 16.1276 0.101814 15.5047C0.101814 14.8819 -0.401047 14.377 -1.02135 14.377C-1.64166 14.377 -2.14452 14.8819 -2.14452 15.5047Z" fill="#CED6E2"/>
<path d="M-8.88353 15.5047C-8.88353 16.1276 -8.38067 16.6325 -7.76036 16.6325C-7.14005 16.6325 -6.6372 16.1276 -6.6372 15.5047C-6.6372 14.8819 -7.14005 14.377 -7.76036 14.377C-8.38067 14.377 -8.88353 14.8819 -8.88353 15.5047Z" fill="#CED6E2"/>
<path d="M58.5066 22.2713C58.5066 22.8942 59.0094 23.3991 59.6297 23.3991C60.25 23.3991 60.7529 22.8942 60.7529 22.2713C60.7529 21.6485 60.25 21.1436 59.6297 21.1436C59.0094 21.1436 58.5066 21.6485 58.5066 22.2713Z" fill="#CED6E2"/>
<path d="M51.7676 22.2713C51.7676 22.8942 52.2704 23.3991 52.8907 23.3991C53.511 23.3991 54.0139 22.8942 54.0139 22.2713C54.0139 21.6485 53.511 21.1436 52.8907 21.1436C52.2704 21.1436 51.7676 21.6485 51.7676 22.2713Z" fill="#CED6E2"/>
<path d="M45.0285 22.2713C45.0285 22.8942 45.5314 23.3991 46.1517 23.3991C46.772 23.3991 47.2749 22.8942 47.2749 22.2713C47.2749 21.6485 46.772 21.1436 46.1517 21.1436C45.5314 21.1436 45.0285 21.6485 45.0285 22.2713Z" fill="#CED6E2"/>
<path d="M38.2895 22.2713C38.2895 22.8942 38.7924 23.3991 39.4127 23.3991C40.033 23.3991 40.5359 22.8942 40.5359 22.2713C40.5359 21.6485 40.033 21.1436 39.4127 21.1436C38.7924 21.1436 38.2895 21.6485 38.2895 22.2713Z" fill="#CED6E2"/>
<path d="M31.5505 22.2713C31.5505 22.8942 32.0534 23.3991 32.6737 23.3991C33.294 23.3991 33.7969 22.8942 33.7969 22.2713C33.7969 21.6485 33.294 21.1436 32.6737 21.1436C32.0534 21.1436 31.5505 21.6485 31.5505 22.2713Z" fill="#CED6E2"/>
<path d="M24.8115 22.2713C24.8115 22.8942 25.3144 23.3991 25.9347 23.3991C26.555 23.3991 27.0578 22.8942 27.0578 22.2713C27.0578 21.6485 26.555 21.1436 25.9347 21.1436C25.3144 21.1436 24.8115 21.6485 24.8115 22.2713Z" fill="#CED6E2"/>
<path d="M18.0725 22.2713C18.0725 22.8942 18.5754 23.3991 19.1957 23.3991C19.816 23.3991 20.3188 22.8942 20.3188 22.2713C20.3188 21.6485 19.816 21.1436 19.1957 21.1436C18.5754 21.1436 18.0725 21.6485 18.0725 22.2713Z" fill="#CED6E2"/>
<path d="M11.3335 22.2713C11.3335 22.8942 11.8364 23.3991 12.4567 23.3991C13.077 23.3991 13.5798 22.8942 13.5798 22.2713C13.5798 21.6485 13.077 21.1436 12.4567 21.1436C11.8364 21.1436 11.3335 21.6485 11.3335 22.2713Z" fill="#CED6E2"/>
<path d="M4.59449 22.2713C4.59449 22.8942 5.09734 23.3991 5.71766 23.3991C6.33796 23.3991 6.84083 22.8942 6.84083 22.2713C6.84083 21.6485 6.33796 21.1436 5.71766 21.1436C5.09734 21.1436 4.59449 21.6485 4.59449 22.2713Z" fill="#CED6E2"/>
<path d="M-2.14452 22.2713C-2.14452 22.8942 -1.64166 23.3991 -1.02135 23.3991C-0.401047 23.3991 0.101814 22.8942 0.101814 22.2713C0.101814 21.6485 -0.401047 21.1436 -1.02135 21.1436C-1.64166 21.1436 -2.14452 21.6485 -2.14452 22.2713Z" fill="#CED6E2"/>
<path d="M-8.88353 22.2713C-8.88353 22.8942 -8.38067 23.3991 -7.76036 23.3991C-7.14005 23.3991 -6.6372 22.8942 -6.6372 22.2713C-6.6372 21.6485 -7.14005 21.1436 -7.76036 21.1436C-8.38067 21.1436 -8.88353 21.6485 -8.88353 22.2713Z" fill="#CED6E2"/>
<path d="M58.5066 29.0379C58.5066 29.6608 59.0094 30.1657 59.6297 30.1657C60.25 30.1657 60.7529 29.6608 60.7529 29.0379C60.7529 28.4151 60.25 27.9102 59.6297 27.9102C59.0094 27.9102 58.5066 28.4151 58.5066 29.0379Z" fill="#CED6E2"/>
<path d="M51.7676 29.0379C51.7676 29.6608 52.2704 30.1657 52.8907 30.1657C53.511 30.1657 54.0139 29.6608 54.0139 29.0379C54.0139 28.4151 53.511 27.9102 52.8907 27.9102C52.2704 27.9102 51.7676 28.4151 51.7676 29.0379Z" fill="#CED6E2"/>
<path d="M45.0285 29.0379C45.0285 29.6608 45.5314 30.1657 46.1517 30.1657C46.772 30.1657 47.2749 29.6608 47.2749 29.0379C47.2749 28.4151 46.772 27.9102 46.1517 27.9102C45.5314 27.9102 45.0285 28.4151 45.0285 29.0379Z" fill="#CED6E2"/>
<path d="M38.2895 29.0379C38.2895 29.6608 38.7924 30.1657 39.4127 30.1657C40.033 30.1657 40.5359 29.6608 40.5359 29.0379C40.5359 28.4151 40.033 27.9102 39.4127 27.9102C38.7924 27.9102 38.2895 28.4151 38.2895 29.0379Z" fill="#CED6E2"/>
<path d="M31.5505 29.0379C31.5505 29.6608 32.0534 30.1657 32.6737 30.1657C33.294 30.1657 33.7969 29.6608 33.7969 29.0379C33.7969 28.4151 33.294 27.9102 32.6737 27.9102C32.0534 27.9102 31.5505 28.4151 31.5505 29.0379Z" fill="#CED6E2"/>
<path d="M24.8115 29.0379C24.8115 29.6608 25.3144 30.1657 25.9347 30.1657C26.555 30.1657 27.0578 29.6608 27.0578 29.0379C27.0578 28.4151 26.555 27.9102 25.9347 27.9102C25.3144 27.9102 24.8115 28.4151 24.8115 29.0379Z" fill="#CED6E2"/>
<path d="M18.0725 29.0379C18.0725 29.6608 18.5754 30.1657 19.1957 30.1657C19.816 30.1657 20.3188 29.6608 20.3188 29.0379C20.3188 28.4151 19.816 27.9102 19.1957 27.9102C18.5754 27.9102 18.0725 28.4151 18.0725 29.0379Z" fill="#CED6E2"/>
<path d="M11.3335 29.0379C11.3335 29.6608 11.8364 30.1657 12.4567 30.1657C13.077 30.1657 13.5798 29.6608 13.5798 29.0379C13.5798 28.4151 13.077 27.9102 12.4567 27.9102C11.8364 27.9102 11.3335 28.4151 11.3335 29.0379Z" fill="#CED6E2"/>
<path d="M4.59449 29.0379C4.59449 29.6608 5.09734 30.1657 5.71766 30.1657C6.33796 30.1657 6.84083 29.6608 6.84083 29.0379C6.84083 28.4151 6.33796 27.9102 5.71766 27.9102C5.09734 27.9102 4.59449 28.4151 4.59449 29.0379Z" fill="#CED6E2"/>
<path d="M-2.14452 29.0379C-2.14452 29.6608 -1.64166 30.1657 -1.02135 30.1657C-0.401047 30.1657 0.101814 29.6608 0.101814 29.0379C0.101814 28.4151 -0.401047 27.9102 -1.02135 27.9102C-1.64166 27.9102 -2.14452 28.4151 -2.14452 29.0379Z" fill="#CED6E2"/>
<path d="M-8.88353 29.0379C-8.88353 29.6608 -8.38067 30.1657 -7.76036 30.1657C-7.14005 30.1657 -6.6372 29.6608 -6.6372 29.0379C-6.6372 28.4151 -7.14005 27.9102 -7.76036 27.9102C-8.38067 27.9102 -8.88353 28.4151 -8.88353 29.0379Z" fill="#CED6E2"/>
<path d="M58.5066 35.8046C58.5066 36.4274 59.0094 36.9323 59.6297 36.9323C60.25 36.9323 60.7529 36.4274 60.7529 35.8046C60.7529 35.1817 60.25 34.6768 59.6297 34.6768C59.0094 34.6768 58.5066 35.1817 58.5066 35.8046Z" fill="#CED6E2"/>
<path d="M51.7676 35.8046C51.7676 36.4274 52.2704 36.9323 52.8907 36.9323C53.511 36.9323 54.0139 36.4274 54.0139 35.8046C54.0139 35.1817 53.511 34.6768 52.8907 34.6768C52.2704 34.6768 51.7676 35.1817 51.7676 35.8046Z" fill="#CED6E2"/>
<path d="M45.0285 35.8046C45.0285 36.4274 45.5314 36.9323 46.1517 36.9323C46.772 36.9323 47.2749 36.4274 47.2749 35.8046C47.2749 35.1817 46.772 34.6768 46.1517 34.6768C45.5314 34.6768 45.0285 35.1817 45.0285 35.8046Z" fill="#CED6E2"/>
<path d="M38.2895 35.8046C38.2895 36.4274 38.7924 36.9323 39.4127 36.9323C40.033 36.9323 40.5359 36.4274 40.5359 35.8046C40.5359 35.1817 40.033 34.6768 39.4127 34.6768C38.7924 34.6768 38.2895 35.1817 38.2895 35.8046Z" fill="#CED6E2"/>
<path d="M31.5505 35.8046C31.5505 36.4274 32.0534 36.9323 32.6737 36.9323C33.294 36.9323 33.7969 36.4274 33.7969 35.8046C33.7969 35.1817 33.294 34.6768 32.6737 34.6768C32.0534 34.6768 31.5505 35.1817 31.5505 35.8046Z" fill="#CED6E2"/>
<path d="M24.8115 35.8046C24.8115 36.4274 25.3144 36.9323 25.9347 36.9323C26.555 36.9323 27.0578 36.4274 27.0578 35.8046C27.0578 35.1817 26.555 34.6768 25.9347 34.6768C25.3144 34.6768 24.8115 35.1817 24.8115 35.8046Z" fill="#CED6E2"/>
<path d="M18.0725 35.8046C18.0725 36.4274 18.5754 36.9323 19.1957 36.9323C19.816 36.9323 20.3188 36.4274 20.3188 35.8046C20.3188 35.1817 19.816 34.6768 19.1957 34.6768C18.5754 34.6768 18.0725 35.1817 18.0725 35.8046Z" fill="#CED6E2"/>
<path d="M11.3335 35.8046C11.3335 36.4274 11.8364 36.9323 12.4567 36.9323C13.077 36.9323 13.5798 36.4274 13.5798 35.8046C13.5798 35.1817 13.077 34.6768 12.4567 34.6768C11.8364 34.6768 11.3335 35.1817 11.3335 35.8046Z" fill="#CED6E2"/>
<path d="M4.59449 35.8046C4.59449 36.4274 5.09734 36.9323 5.71766 36.9323C6.33796 36.9323 6.84083 36.4274 6.84083 35.8046C6.84083 35.1817 6.33796 34.6768 5.71766 34.6768C5.09734 34.6768 4.59449 35.1817 4.59449 35.8046Z" fill="#CED6E2"/>
<path d="M-2.14452 35.8046C-2.14452 36.4274 -1.64166 36.9323 -1.02135 36.9323C-0.401047 36.9323 0.101814 36.4274 0.101814 35.8046C0.101814 35.1817 -0.401047 34.6768 -1.02135 34.6768C-1.64166 34.6768 -2.14452 35.1817 -2.14452 35.8046Z" fill="#CED6E2"/>
<path d="M-8.88353 35.8046C-8.88353 36.4274 -8.38067 36.9323 -7.76036 36.9323C-7.14005 36.9323 -6.6372 36.4274 -6.6372 35.8046C-6.6372 35.1817 -7.14005 34.6768 -7.76036 34.6768C-8.38067 34.6768 -8.88353 35.1817 -8.88353 35.8046Z" fill="#CED6E2"/>
<path d="M58.5066 42.5712C58.5066 43.194 59.0094 43.6989 59.6297 43.6989C60.25 43.6989 60.7529 43.194 60.7529 42.5712C60.7529 41.9483 60.25 41.4434 59.6297 41.4434C59.0094 41.4434 58.5066 41.9483 58.5066 42.5712Z" fill="#CED6E2"/>
<path d="M51.7676 42.5712C51.7676 43.194 52.2704 43.6989 52.8907 43.6989C53.511 43.6989 54.0139 43.194 54.0139 42.5712C54.0139 41.9483 53.511 41.4434 52.8907 41.4434C52.2704 41.4434 51.7676 41.9483 51.7676 42.5712Z" fill="#CED6E2"/>
<path d="M45.0285 42.5712C45.0285 43.194 45.5314 43.6989 46.1517 43.6989C46.772 43.6989 47.2749 43.194 47.2749 42.5712C47.2749 41.9483 46.772 41.4434 46.1517 41.4434C45.5314 41.4434 45.0285 41.9483 45.0285 42.5712Z" fill="#CED6E2"/>
<path d="M38.2895 42.5712C38.2895 43.194 38.7924 43.6989 39.4127 43.6989C40.033 43.6989 40.5359 43.194 40.5359 42.5712C40.5359 41.9483 40.033 41.4434 39.4127 41.4434C38.7924 41.4434 38.2895 41.9483 38.2895 42.5712Z" fill="#CED6E2"/>
<path d="M31.5505 42.5712C31.5505 43.194 32.0534 43.6989 32.6737 43.6989C33.294 43.6989 33.7969 43.194 33.7969 42.5712C33.7969 41.9483 33.294 41.4434 32.6737 41.4434C32.0534 41.4434 31.5505 41.9483 31.5505 42.5712Z" fill="#CED6E2"/>
<path d="M24.8115 42.5712C24.8115 43.194 25.3144 43.6989 25.9347 43.6989C26.555 43.6989 27.0578 43.194 27.0578 42.5712C27.0578 41.9483 26.555 41.4434 25.9347 41.4434C25.3144 41.4434 24.8115 41.9483 24.8115 42.5712Z" fill="#CED6E2"/>
<path d="M18.0725 42.5712C18.0725 43.194 18.5754 43.6989 19.1957 43.6989C19.816 43.6989 20.3188 43.194 20.3188 42.5712C20.3188 41.9483 19.816 41.4434 19.1957 41.4434C18.5754 41.4434 18.0725 41.9483 18.0725 42.5712Z" fill="#CED6E2"/>
<path d="M11.3335 42.5712C11.3335 43.194 11.8364 43.6989 12.4567 43.6989C13.077 43.6989 13.5798 43.194 13.5798 42.5712C13.5798 41.9483 13.077 41.4434 12.4567 41.4434C11.8364 41.4434 11.3335 41.9483 11.3335 42.5712Z" fill="#CED6E2"/>
<path d="M4.59449 42.5712C4.59449 43.194 5.09734 43.6989 5.71766 43.6989C6.33796 43.6989 6.84083 43.194 6.84083 42.5712C6.84083 41.9483 6.33796 41.4434 5.71766 41.4434C5.09734 41.4434 4.59449 41.9483 4.59449 42.5712Z" fill="#CED6E2"/>
<path d="M-2.14452 42.5712C-2.14452 43.194 -1.64166 43.6989 -1.02135 43.6989C-0.401047 43.6989 0.101814 43.194 0.101814 42.5712C0.101814 41.9483 -0.401047 41.4434 -1.02135 41.4434C-1.64166 41.4434 -2.14452 41.9483 -2.14452 42.5712Z" fill="#CED6E2"/>
<path d="M-8.88353 42.5712C-8.88353 43.194 -8.38067 43.6989 -7.76036 43.6989C-7.14005 43.6989 -6.6372 43.194 -6.6372 42.5712C-6.6372 41.9483 -7.14005 41.4434 -7.76036 41.4434C-8.38067 41.4434 -8.88353 41.9483 -8.88353 42.5712Z" fill="#CED6E2"/>
<path d="M58.5066 49.3378C58.5066 49.9606 59.0094 50.4655 59.6297 50.4655C60.25 50.4655 60.7529 49.9606 60.7529 49.3378C60.7529 48.7149 60.25 48.21 59.6297 48.21C59.0094 48.21 58.5066 48.7149 58.5066 49.3378Z" fill="#CED6E2"/>
<path d="M51.7676 49.3378C51.7676 49.9606 52.2704 50.4655 52.8907 50.4655C53.511 50.4655 54.0139 49.9606 54.0139 49.3378C54.0139 48.7149 53.511 48.21 52.8907 48.21C52.2704 48.21 51.7676 48.7149 51.7676 49.3378Z" fill="#CED6E2"/>
<path d="M45.0285 49.3378C45.0285 49.9606 45.5314 50.4655 46.1517 50.4655C46.772 50.4655 47.2749 49.9606 47.2749 49.3378C47.2749 48.7149 46.772 48.21 46.1517 48.21C45.5314 48.21 45.0285 48.7149 45.0285 49.3378Z" fill="#CED6E2"/>
<path d="M38.2895 49.3378C38.2895 49.9606 38.7924 50.4655 39.4127 50.4655C40.033 50.4655 40.5359 49.9606 40.5359 49.3378C40.5359 48.7149 40.033 48.21 39.4127 48.21C38.7924 48.21 38.2895 48.7149 38.2895 49.3378Z" fill="#CED6E2"/>
<path d="M31.5505 49.3378C31.5505 49.9606 32.0534 50.4655 32.6737 50.4655C33.294 50.4655 33.7969 49.9606 33.7969 49.3378C33.7969 48.7149 33.294 48.21 32.6737 48.21C32.0534 48.21 31.5505 48.7149 31.5505 49.3378Z" fill="#CED6E2"/>
<path d="M24.8115 49.3378C24.8115 49.9606 25.3144 50.4655 25.9347 50.4655C26.555 50.4655 27.0578 49.9606 27.0578 49.3378C27.0578 48.7149 26.555 48.21 25.9347 48.21C25.3144 48.21 24.8115 48.7149 24.8115 49.3378Z" fill="#CED6E2"/>
<path d="M18.0725 49.3378C18.0725 49.9606 18.5754 50.4655 19.1957 50.4655C19.816 50.4655 20.3188 49.9606 20.3188 49.3378C20.3188 48.7149 19.816 48.21 19.1957 48.21C18.5754 48.21 18.0725 48.7149 18.0725 49.3378Z" fill="#CED6E2"/>
<path d="M11.3335 49.3378C11.3335 49.9606 11.8364 50.4655 12.4567 50.4655C13.077 50.4655 13.5798 49.9606 13.5798 49.3378C13.5798 48.7149 13.077 48.21 12.4567 48.21C11.8364 48.21 11.3335 48.7149 11.3335 49.3378Z" fill="#CED6E2"/>
<path d="M4.59449 49.3378C4.59449 49.9606 5.09734 50.4655 5.71766 50.4655C6.33796 50.4655 6.84083 49.9606 6.84083 49.3378C6.84083 48.7149 6.33796 48.21 5.71766 48.21C5.09734 48.21 4.59449 48.7149 4.59449 49.3378Z" fill="#CED6E2"/>
<path d="M-2.14452 49.3378C-2.14452 49.9606 -1.64166 50.4655 -1.02135 50.4655C-0.401047 50.4655 0.101814 49.9606 0.101814 49.3378C0.101814 48.7149 -0.401047 48.21 -1.02135 48.21C-1.64166 48.21 -2.14452 48.7149 -2.14452 49.3378Z" fill="#CED6E2"/>
<path d="M-8.88353 49.3378C-8.88353 49.9606 -8.38067 50.4655 -7.76036 50.4655C-7.14005 50.4655 -6.6372 49.9606 -6.6372 49.3378C-6.6372 48.7149 -7.14005 48.21 -7.76036 48.21C-8.38067 48.21 -8.88353 48.7149 -8.88353 49.3378Z" fill="#CED6E2"/>
<path d="M58.5066 56.1044C58.5066 56.7272 59.0094 57.2321 59.6297 57.2321C60.25 57.2321 60.7529 56.7272 60.7529 56.1044C60.7529 55.4815 60.25 54.9766 59.6297 54.9766C59.0094 54.9766 58.5066 55.4815 58.5066 56.1044Z" fill="#CED6E2"/>
<path d="M51.7676 56.1044C51.7676 56.7272 52.2704 57.2321 52.8907 57.2321C53.511 57.2321 54.0139 56.7272 54.0139 56.1044C54.0139 55.4815 53.511 54.9766 52.8907 54.9766C52.2704 54.9766 51.7676 55.4815 51.7676 56.1044Z" fill="#CED6E2"/>
<path d="M45.0285 56.1044C45.0285 56.7272 45.5314 57.2321 46.1517 57.2321C46.772 57.2321 47.2749 56.7272 47.2749 56.1044C47.2749 55.4815 46.772 54.9766 46.1517 54.9766C45.5314 54.9766 45.0285 55.4815 45.0285 56.1044Z" fill="#CED6E2"/>
<path d="M38.2895 56.1044C38.2895 56.7272 38.7924 57.2321 39.4127 57.2321C40.033 57.2321 40.5359 56.7272 40.5359 56.1044C40.5359 55.4815 40.033 54.9766 39.4127 54.9766C38.7924 54.9766 38.2895 55.4815 38.2895 56.1044Z" fill="#CED6E2"/>
<path d="M31.5505 56.1044C31.5505 56.7272 32.0534 57.2321 32.6737 57.2321C33.294 57.2321 33.7969 56.7272 33.7969 56.1044C33.7969 55.4815 33.294 54.9766 32.6737 54.9766C32.0534 54.9766 31.5505 55.4815 31.5505 56.1044Z" fill="#CED6E2"/>
<path d="M24.8115 56.1044C24.8115 56.7272 25.3144 57.2321 25.9347 57.2321C26.555 57.2321 27.0578 56.7272 27.0578 56.1044C27.0578 55.4815 26.555 54.9766 25.9347 54.9766C25.3144 54.9766 24.8115 55.4815 24.8115 56.1044Z" fill="#CED6E2"/>
<path d="M18.0725 56.1044C18.0725 56.7272 18.5754 57.2321 19.1957 57.2321C19.816 57.2321 20.3188 56.7272 20.3188 56.1044C20.3188 55.4815 19.816 54.9766 19.1957 54.9766C18.5754 54.9766 18.0725 55.4815 18.0725 56.1044Z" fill="#CED6E2"/>
<path d="M11.3335 56.1044C11.3335 56.7272 11.8364 57.2321 12.4567 57.2321C13.077 57.2321 13.5798 56.7272 13.5798 56.1044C13.5798 55.4815 13.077 54.9766 12.4567 54.9766C11.8364 54.9766 11.3335 55.4815 11.3335 56.1044Z" fill="#CED6E2"/>
<path d="M4.59449 56.1044C4.59449 56.7272 5.09734 57.2321 5.71766 57.2321C6.33796 57.2321 6.84083 56.7272 6.84083 56.1044C6.84083 55.4815 6.33796 54.9766 5.71766 54.9766C5.09734 54.9766 4.59449 55.4815 4.59449 56.1044Z" fill="#CED6E2"/>
<path d="M-2.14452 56.1044C-2.14452 56.7272 -1.64166 57.2321 -1.02135 57.2321C-0.401047 57.2321 0.101814 56.7272 0.101814 56.1044C0.101814 55.4815 -0.401047 54.9766 -1.02135 54.9766C-1.64166 54.9766 -2.14452 55.4815 -2.14452 56.1044Z" fill="#CED6E2"/>
<path d="M-8.88353 56.1044C-8.88353 56.7272 -8.38067 57.2321 -7.76036 57.2321C-7.14005 57.2321 -6.6372 56.7272 -6.6372 56.1044C-6.6372 55.4815 -7.14005 54.9766 -7.76036 54.9766C-8.38067 54.9766 -8.88353 55.4815 -8.88353 56.1044Z" fill="#CED6E2"/>
<path d="M58.5066 62.871C58.5066 63.4938 59.0094 63.9988 59.6297 63.9988C60.25 63.9988 60.7529 63.4938 60.7529 62.871C60.7529 62.2481 60.25 61.7432 59.6297 61.7432C59.0094 61.7432 58.5066 62.2481 58.5066 62.871Z" fill="#CED6E2"/>
<path d="M51.7676 62.871C51.7676 63.4938 52.2704 63.9988 52.8907 63.9988C53.511 63.9988 54.0139 63.4938 54.0139 62.871C54.0139 62.2481 53.511 61.7432 52.8907 61.7432C52.2704 61.7432 51.7676 62.2481 51.7676 62.871Z" fill="#CED6E2"/>
<path d="M45.0285 62.871C45.0285 63.4938 45.5314 63.9988 46.1517 63.9988C46.772 63.9988 47.2749 63.4938 47.2749 62.871C47.2749 62.2481 46.772 61.7432 46.1517 61.7432C45.5314 61.7432 45.0285 62.2481 45.0285 62.871Z" fill="#CED6E2"/>
<path d="M38.2895 62.871C38.2895 63.4938 38.7924 63.9988 39.4127 63.9988C40.033 63.9988 40.5359 63.4938 40.5359 62.871C40.5359 62.2481 40.033 61.7432 39.4127 61.7432C38.7924 61.7432 38.2895 62.2481 38.2895 62.871Z" fill="#CED6E2"/>
<path d="M31.5505 62.871C31.5505 63.4938 32.0534 63.9988 32.6737 63.9988C33.294 63.9988 33.7969 63.4938 33.7969 62.871C33.7969 62.2481 33.294 61.7432 32.6737 61.7432C32.0534 61.7432 31.5505 62.2481 31.5505 62.871Z" fill="#CED6E2"/>
<path d="M24.8115 62.871C24.8115 63.4938 25.3144 63.9988 25.9347 63.9988C26.555 63.9988 27.0578 63.4938 27.0578 62.871C27.0578 62.2481 26.555 61.7432 25.9347 61.7432C25.3144 61.7432 24.8115 62.2481 24.8115 62.871Z" fill="#CED6E2"/>
<path d="M18.0725 62.871C18.0725 63.4938 18.5754 63.9988 19.1957 63.9988C19.816 63.9988 20.3188 63.4938 20.3188 62.871C20.3188 62.2481 19.816 61.7432 19.1957 61.7432C18.5754 61.7432 18.0725 62.2481 18.0725 62.871Z" fill="#CED6E2"/>
<path d="M11.3335 62.871C11.3335 63.4938 11.8364 63.9988 12.4567 63.9988C13.077 63.9988 13.5798 63.4938 13.5798 62.871C13.5798 62.2481 13.077 61.7432 12.4567 61.7432C11.8364 61.7432 11.3335 62.2481 11.3335 62.871Z" fill="#CED6E2"/>
<path d="M4.59449 62.871C4.59449 63.4938 5.09734 63.9988 5.71766 63.9988C6.33796 63.9988 6.84083 63.4938 6.84083 62.871C6.84083 62.2481 6.33796 61.7432 5.71766 61.7432C5.09734 61.7432 4.59449 62.2481 4.59449 62.871Z" fill="#CED6E2"/>
<path d="M-2.14452 62.871C-2.14452 63.4938 -1.64166 63.9988 -1.02135 63.9988C-0.401047 63.9988 0.101814 63.4938 0.101814 62.871C0.101814 62.2481 -0.401047 61.7432 -1.02135 61.7432C-1.64166 61.7432 -2.14452 62.2481 -2.14452 62.871Z" fill="#CED6E2"/>
<path d="M-8.88353 62.871C-8.88353 63.4938 -8.38067 63.9988 -7.76036 63.9988C-7.14005 63.9988 -6.6372 63.4938 -6.6372 62.871C-6.6372 62.2481 -7.14005 61.7432 -7.76036 61.7432C-8.38067 61.7432 -8.88353 62.2481 -8.88353 62.871Z" fill="#CED6E2"/>
<path d="M58.5066 69.6376C58.5066 70.2604 59.0094 70.7654 59.6297 70.7654C60.25 70.7654 60.7529 70.2604 60.7529 69.6376C60.7529 69.0147 60.25 68.5098 59.6297 68.5098C59.0094 68.5098 58.5066 69.0147 58.5066 69.6376Z" fill="#CED6E2"/>
<path d="M51.7676 69.6376C51.7676 70.2604 52.2704 70.7654 52.8907 70.7654C53.511 70.7654 54.0139 70.2604 54.0139 69.6376C54.0139 69.0147 53.511 68.5098 52.8907 68.5098C52.2704 68.5098 51.7676 69.0147 51.7676 69.6376Z" fill="#CED6E2"/>
<path d="M45.0285 69.6376C45.0285 70.2604 45.5314 70.7654 46.1517 70.7654C46.772 70.7654 47.2749 70.2604 47.2749 69.6376C47.2749 69.0147 46.772 68.5098 46.1517 68.5098C45.5314 68.5098 45.0285 69.0147 45.0285 69.6376Z" fill="#CED6E2"/>
<path d="M38.2895 69.6376C38.2895 70.2604 38.7924 70.7654 39.4127 70.7654C40.033 70.7654 40.5359 70.2604 40.5359 69.6376C40.5359 69.0147 40.033 68.5098 39.4127 68.5098C38.7924 68.5098 38.2895 69.0147 38.2895 69.6376Z" fill="#CED6E2"/>
<path d="M31.5505 69.6376C31.5505 70.2604 32.0534 70.7654 32.6737 70.7654C33.294 70.7654 33.7969 70.2604 33.7969 69.6376C33.7969 69.0147 33.294 68.5098 32.6737 68.5098C32.0534 68.5098 31.5505 69.0147 31.5505 69.6376Z" fill="#CED6E2"/>
<path d="M24.8115 69.6376C24.8115 70.2604 25.3144 70.7654 25.9347 70.7654C26.555 70.7654 27.0578 70.2604 27.0578 69.6376C27.0578 69.0147 26.555 68.5098 25.9347 68.5098C25.3144 68.5098 24.8115 69.0147 24.8115 69.6376Z" fill="#CED6E2"/>
<path d="M18.0725 69.6376C18.0725 70.2604 18.5754 70.7654 19.1957 70.7654C19.816 70.7654 20.3188 70.2604 20.3188 69.6376C20.3188 69.0147 19.816 68.5098 19.1957 68.5098C18.5754 68.5098 18.0725 69.0147 18.0725 69.6376Z" fill="#CED6E2"/>
<path d="M11.3335 69.6376C11.3335 70.2604 11.8364 70.7654 12.4567 70.7654C13.077 70.7654 13.5798 70.2604 13.5798 69.6376C13.5798 69.0147 13.077 68.5098 12.4567 68.5098C11.8364 68.5098 11.3335 69.0147 11.3335 69.6376Z" fill="#CED6E2"/>
<path d="M4.59449 69.6376C4.59449 70.2604 5.09734 70.7654 5.71766 70.7654C6.33796 70.7654 6.84083 70.2604 6.84083 69.6376C6.84083 69.0147 6.33796 68.5098 5.71766 68.5098C5.09734 68.5098 4.59449 69.0147 4.59449 69.6376Z" fill="#CED6E2"/>
<path d="M-2.14452 69.6376C-2.14452 70.2604 -1.64166 70.7654 -1.02135 70.7654C-0.401047 70.7654 0.101814 70.2604 0.101814 69.6376C0.101814 69.0147 -0.401047 68.5098 -1.02135 68.5098C-1.64166 68.5098 -2.14452 69.0147 -2.14452 69.6376Z" fill="#CED6E2"/>
<path d="M-8.88353 69.6376C-8.88353 70.2604 -8.38067 70.7654 -7.76036 70.7654C-7.14005 70.7654 -6.6372 70.2604 -6.6372 69.6376C-6.6372 69.0147 -7.14005 68.5098 -7.76036 68.5098C-8.38067 68.5098 -8.88353 69.0147 -8.88353 69.6376Z" fill="#CED6E2"/>
<path d="M58.5066 76.4042C58.5066 77.0271 59.0094 77.532 59.6297 77.532C60.25 77.532 60.7529 77.0271 60.7529 76.4042C60.7529 75.7813 60.25 75.2764 59.6297 75.2764C59.0094 75.2764 58.5066 75.7813 58.5066 76.4042Z" fill="#CED6E2"/>
<path d="M51.7676 76.4042C51.7676 77.0271 52.2704 77.532 52.8907 77.532C53.511 77.532 54.0139 77.0271 54.0139 76.4042C54.0139 75.7813 53.511 75.2764 52.8907 75.2764C52.2704 75.2764 51.7676 75.7813 51.7676 76.4042Z" fill="#CED6E2"/>
<path d="M45.0285 76.4042C45.0285 77.0271 45.5314 77.532 46.1517 77.532C46.772 77.532 47.2749 77.0271 47.2749 76.4042C47.2749 75.7813 46.772 75.2764 46.1517 75.2764C45.5314 75.2764 45.0285 75.7813 45.0285 76.4042Z" fill="#CED6E2"/>
<path d="M38.2895 76.4042C38.2895 77.0271 38.7924 77.532 39.4127 77.532C40.033 77.532 40.5359 77.0271 40.5359 76.4042C40.5359 75.7813 40.033 75.2764 39.4127 75.2764C38.7924 75.2764 38.2895 75.7813 38.2895 76.4042Z" fill="#CED6E2"/>
<path d="M31.5505 76.4042C31.5505 77.0271 32.0534 77.532 32.6737 77.532C33.294 77.532 33.7969 77.0271 33.7969 76.4042C33.7969 75.7813 33.294 75.2764 32.6737 75.2764C32.0534 75.2764 31.5505 75.7813 31.5505 76.4042Z" fill="#CED6E2"/>
<path d="M24.8115 76.4042C24.8115 77.0271 25.3144 77.532 25.9347 77.532C26.555 77.532 27.0578 77.0271 27.0578 76.4042C27.0578 75.7813 26.555 75.2764 25.9347 75.2764C25.3144 75.2764 24.8115 75.7813 24.8115 76.4042Z" fill="#CED6E2"/>
<path d="M18.0725 76.4042C18.0725 77.0271 18.5754 77.532 19.1957 77.532C19.816 77.532 20.3188 77.0271 20.3188 76.4042C20.3188 75.7813 19.816 75.2764 19.1957 75.2764C18.5754 75.2764 18.0725 75.7813 18.0725 76.4042Z" fill="#CED6E2"/>
<path d="M11.3335 76.4042C11.3335 77.0271 11.8364 77.532 12.4567 77.532C13.077 77.532 13.5798 77.0271 13.5798 76.4042C13.5798 75.7813 13.077 75.2764 12.4567 75.2764C11.8364 75.2764 11.3335 75.7813 11.3335 76.4042Z" fill="#CED6E2"/>
<path d="M4.59449 76.4042C4.59449 77.0271 5.09734 77.532 5.71766 77.532C6.33796 77.532 6.84083 77.0271 6.84083 76.4042C6.84083 75.7813 6.33796 75.2764 5.71766 75.2764C5.09734 75.2764 4.59449 75.7813 4.59449 76.4042Z" fill="#CED6E2"/>
<path d="M-2.14452 76.4042C-2.14452 77.0271 -1.64166 77.532 -1.02135 77.532C-0.401047 77.532 0.101814 77.0271 0.101814 76.4042C0.101814 75.7813 -0.401047 75.2764 -1.02135 75.2764C-1.64166 75.2764 -2.14452 75.7813 -2.14452 76.4042Z" fill="#CED6E2"/>
<path d="M-8.88353 76.4042C-8.88353 77.0271 -8.38067 77.532 -7.76036 77.532C-7.14005 77.532 -6.6372 77.0271 -6.6372 76.4042C-6.6372 75.7813 -7.14005 75.2764 -7.76036 75.2764C-8.38067 75.2764 -8.88353 75.7813 -8.88353 76.4042Z" fill="#CED6E2"/>
<path d="M65.5584 1.97152C65.5584 2.59437 66.0612 3.09929 66.6815 3.09929C67.3018 3.09929 67.8047 2.59437 67.8047 1.97152C67.8047 1.34867 67.3018 0.84375 66.6815 0.84375C66.0612 0.84375 65.5584 1.34867 65.5584 1.97152Z" fill="#CED6E2"/>
<path d="M65.5584 8.73813C65.5584 9.36097 66.0612 9.86589 66.6815 9.86589C67.3018 9.86589 67.8047 9.36097 67.8047 8.73813C67.8047 8.11528 67.3018 7.61036 66.6815 7.61036C66.0612 7.61036 65.5584 8.11528 65.5584 8.73813Z" fill="#CED6E2"/>
<path d="M65.5584 15.5047C65.5584 16.1276 66.0612 16.6325 66.6815 16.6325C67.3018 16.6325 67.8047 16.1276 67.8047 15.5047C67.8047 14.8819 67.3018 14.377 66.6815 14.377C66.0612 14.377 65.5584 14.8819 65.5584 15.5047Z" fill="#CED6E2"/>
<path d="M65.5584 22.2713C65.5584 22.8942 66.0612 23.3991 66.6815 23.3991C67.3018 23.3991 67.8047 22.8942 67.8047 22.2713C67.8047 21.6485 67.3018 21.1436 66.6815 21.1436C66.0612 21.1436 65.5584 21.6485 65.5584 22.2713Z" fill="#CED6E2"/>
<path d="M65.5584 29.0379C65.5584 29.6608 66.0612 30.1657 66.6815 30.1657C67.3018 30.1657 67.8047 29.6608 67.8047 29.0379C67.8047 28.4151 67.3018 27.9102 66.6815 27.9102C66.0612 27.9102 65.5584 28.4151 65.5584 29.0379Z" fill="#CED6E2"/>
<path d="M65.5584 35.8046C65.5584 36.4274 66.0612 36.9323 66.6815 36.9323C67.3018 36.9323 67.8047 36.4274 67.8047 35.8046C67.8047 35.1817 67.3018 34.6768 66.6815 34.6768C66.0612 34.6768 65.5584 35.1817 65.5584 35.8046Z" fill="#CED6E2"/>
<path d="M65.5584 42.5712C65.5584 43.194 66.0612 43.6989 66.6815 43.6989C67.3018 43.6989 67.8047 43.194 67.8047 42.5712C67.8047 41.9483 67.3018 41.4434 66.6815 41.4434C66.0612 41.4434 65.5584 41.9483 65.5584 42.5712Z" fill="#CED6E2"/>
<path d="M65.5584 49.3378C65.5584 49.9606 66.0612 50.4655 66.6815 50.4655C67.3018 50.4655 67.8047 49.9606 67.8047 49.3378C67.8047 48.7149 67.3018 48.21 66.6815 48.21C66.0612 48.21 65.5584 48.7149 65.5584 49.3378Z" fill="#CED6E2"/>
<path d="M65.5584 56.1044C65.5584 56.7272 66.0612 57.2321 66.6815 57.2321C67.3018 57.2321 67.8047 56.7272 67.8047 56.1044C67.8047 55.4815 67.3018 54.9766 66.6815 54.9766C66.0612 54.9766 65.5584 55.4815 65.5584 56.1044Z" fill="#CED6E2"/>
<path d="M65.5584 62.871C65.5584 63.4938 66.0612 63.9988 66.6815 63.9988C67.3018 63.9988 67.8047 63.4938 67.8047 62.871C67.8047 62.2481 67.3018 61.7432 66.6815 61.7432C66.0612 61.7432 65.5584 62.2481 65.5584 62.871Z" fill="#CED6E2"/>
<path d="M65.5584 69.6376C65.5584 70.2604 66.0612 70.7654 66.6815 70.7654C67.3018 70.7654 67.8047 70.2604 67.8047 69.6376C67.8047 69.0147 67.3018 68.5098 66.6815 68.5098C66.0612 68.5098 65.5584 69.0147 65.5584 69.6376Z" fill="#CED6E2"/>
<path d="M65.5584 76.4042C65.5584 77.0271 66.0612 77.532 66.6815 77.532C67.3018 77.532 67.8047 77.0271 67.8047 76.4042C67.8047 75.7813 67.3018 75.2764 66.6815 75.2764C66.0612 75.2764 65.5584 75.7813 65.5584 76.4042Z" fill="#CED6E2"/>
</svg>
