<svg width="179" height="87" viewBox="0 0 179 87" fill="none" xmlns="http://www.w3.org/2000/svg">
<path d="M10.5484 1.27941C10.5484 1.98601 9.97791 2.55882 9.27419 2.55882C8.57048 2.55882 8 1.98601 8 1.27941C8 0.572812 8.57048 0 9.27419 0C9.97791 0 10.5484 0.572812 10.5484 1.27941Z" fill="#CED6E2"/>
<path d="M18.1935 1.27941C18.1935 1.98601 17.6231 2.55882 16.9194 2.55882C16.2156 2.55882 15.6452 1.98601 15.6452 1.27941C15.6452 0.572812 16.2156 0 16.9194 0C17.6231 0 18.1935 0.572812 18.1935 1.27941Z" fill="#CED6E2"/>
<path d="M25.8387 1.27941C25.8387 1.98601 25.2682 2.55882 24.5645 2.55882C23.8608 2.55882 23.2903 1.98601 23.2903 1.27941C23.2903 0.572812 23.8608 0 24.5645 0C25.2682 0 25.8387 0.572812 25.8387 1.27941Z" fill="#CED6E2"/>
<path d="M33.4839 1.27941C33.4839 1.98601 32.9134 2.55882 32.2097 2.55882C31.506 2.55882 30.9355 1.98601 30.9355 1.27941C30.9355 0.572812 31.506 0 32.2097 0C32.9134 0 33.4839 0.572812 33.4839 1.27941Z" fill="#CED6E2"/>
<path d="M41.129 1.27941C41.129 1.98601 40.5586 2.55882 39.8548 2.55882C39.1511 2.55882 38.5806 1.98601 38.5806 1.27941C38.5806 0.572812 39.1511 0 39.8548 0C40.5586 0 41.129 0.572812 41.129 1.27941Z" fill="#CED6E2"/>
<path d="M48.7742 1.27941C48.7742 1.98601 48.2037 2.55882 47.5 2.55882C46.7963 2.55882 46.2258 1.98601 46.2258 1.27941C46.2258 0.572812 46.7963 0 47.5 0C48.2037 0 48.7742 0.572812 48.7742 1.27941Z" fill="#CED6E2"/>
<path d="M56.4194 1.27941C56.4194 1.98601 55.8489 2.55882 55.1452 2.55882C54.4414 2.55882 53.871 1.98601 53.871 1.27941C53.871 0.572812 54.4414 0 55.1452 0C55.8489 0 56.4194 0.572812 56.4194 1.27941Z" fill="#CED6E2"/>
<path d="M64.0645 1.27941C64.0645 1.98601 63.494 2.55882 62.7903 2.55882C62.0866 2.55882 61.5161 1.98601 61.5161 1.27941C61.5161 0.572812 62.0866 0 62.7903 0C63.494 0 64.0645 0.572812 64.0645 1.27941Z" fill="#CED6E2"/>
<path d="M71.7097 1.27941C71.7097 1.98601 71.1392 2.55882 70.4355 2.55882C69.7318 2.55882 69.1613 1.98601 69.1613 1.27941C69.1613 0.572812 69.7318 0 70.4355 0C71.1392 0 71.7097 0.572812 71.7097 1.27941Z" fill="#CED6E2"/>
<path d="M79.3548 1.27941C79.3548 1.98601 78.7844 2.55882 78.0806 2.55882C77.3769 2.55882 76.8064 1.98601 76.8064 1.27941C76.8064 0.572812 77.3769 0 78.0806 0C78.7844 0 79.3548 0.572812 79.3548 1.27941Z" fill="#CED6E2"/>
<path d="M87 1.27941C87 1.98601 86.4295 2.55882 85.7258 2.55882C85.0221 2.55882 84.4516 1.98601 84.4516 1.27941C84.4516 0.572812 85.0221 0 85.7258 0C86.4295 0 87 0.572812 87 1.27941Z" fill="#CED6E2"/>
<path d="M10.5484 8.95588C10.5484 9.66248 9.97791 10.2353 9.27419 10.2353C8.57048 10.2353 8 9.66248 8 8.95588C8 8.24928 8.57048 7.67647 9.27419 7.67647C9.97791 7.67647 10.5484 8.24928 10.5484 8.95588Z" fill="#CED6E2"/>
<path d="M18.1935 8.95588C18.1935 9.66248 17.6231 10.2353 16.9194 10.2353C16.2156 10.2353 15.6452 9.66248 15.6452 8.95588C15.6452 8.24928 16.2156 7.67647 16.9194 7.67647C17.6231 7.67647 18.1935 8.24928 18.1935 8.95588Z" fill="#CED6E2"/>
<path d="M25.8387 8.95588C25.8387 9.66248 25.2682 10.2353 24.5645 10.2353C23.8608 10.2353 23.2903 9.66248 23.2903 8.95588C23.2903 8.24928 23.8608 7.67647 24.5645 7.67647C25.2682 7.67647 25.8387 8.24928 25.8387 8.95588Z" fill="#CED6E2"/>
<path d="M33.4839 8.95588C33.4839 9.66248 32.9134 10.2353 32.2097 10.2353C31.506 10.2353 30.9355 9.66248 30.9355 8.95588C30.9355 8.24928 31.506 7.67647 32.2097 7.67647C32.9134 7.67647 33.4839 8.24928 33.4839 8.95588Z" fill="#CED6E2"/>
<path d="M41.129 8.95588C41.129 9.66248 40.5586 10.2353 39.8548 10.2353C39.1511 10.2353 38.5806 9.66248 38.5806 8.95588C38.5806 8.24928 39.1511 7.67647 39.8548 7.67647C40.5586 7.67647 41.129 8.24928 41.129 8.95588Z" fill="#CED6E2"/>
<path d="M48.7742 8.95588C48.7742 9.66248 48.2037 10.2353 47.5 10.2353C46.7963 10.2353 46.2258 9.66248 46.2258 8.95588C46.2258 8.24928 46.7963 7.67647 47.5 7.67647C48.2037 7.67647 48.7742 8.24928 48.7742 8.95588Z" fill="#CED6E2"/>
<path d="M56.4194 8.95588C56.4194 9.66248 55.8489 10.2353 55.1452 10.2353C54.4414 10.2353 53.871 9.66248 53.871 8.95588C53.871 8.24928 54.4414 7.67647 55.1452 7.67647C55.8489 7.67647 56.4194 8.24928 56.4194 8.95588Z" fill="#CED6E2"/>
<path d="M64.0645 8.95588C64.0645 9.66248 63.494 10.2353 62.7903 10.2353C62.0866 10.2353 61.5161 9.66248 61.5161 8.95588C61.5161 8.24928 62.0866 7.67647 62.7903 7.67647C63.494 7.67647 64.0645 8.24928 64.0645 8.95588Z" fill="#CED6E2"/>
<path d="M71.7097 8.95588C71.7097 9.66248 71.1392 10.2353 70.4355 10.2353C69.7318 10.2353 69.1613 9.66248 69.1613 8.95588C69.1613 8.24928 69.7318 7.67647 70.4355 7.67647C71.1392 7.67647 71.7097 8.24928 71.7097 8.95588Z" fill="#CED6E2"/>
<path d="M79.3548 8.95588C79.3548 9.66248 78.7844 10.2353 78.0806 10.2353C77.3769 10.2353 76.8064 9.66248 76.8064 8.95588C76.8064 8.24928 77.3769 7.67647 78.0806 7.67647C78.7844 7.67647 79.3548 8.24928 79.3548 8.95588Z" fill="#CED6E2"/>
<path d="M87 8.95588C87 9.66248 86.4295 10.2353 85.7258 10.2353C85.0221 10.2353 84.4516 9.66248 84.4516 8.95588C84.4516 8.24928 85.0221 7.67647 85.7258 7.67647C86.4295 7.67647 87 8.24928 87 8.95588Z" fill="#CED6E2"/>
<path d="M10.5484 16.6324C10.5484 17.339 9.97791 17.9118 9.27419 17.9118C8.57048 17.9118 8 17.339 8 16.6324C8 15.9258 8.57048 15.3529 9.27419 15.3529C9.97791 15.3529 10.5484 15.9258 10.5484 16.6324Z" fill="#CED6E2"/>
<path d="M18.1935 16.6324C18.1935 17.339 17.6231 17.9118 16.9194 17.9118C16.2156 17.9118 15.6452 17.339 15.6452 16.6324C15.6452 15.9258 16.2156 15.3529 16.9194 15.3529C17.6231 15.3529 18.1935 15.9258 18.1935 16.6324Z" fill="#CED6E2"/>
<path d="M25.8387 16.6324C25.8387 17.339 25.2682 17.9118 24.5645 17.9118C23.8608 17.9118 23.2903 17.339 23.2903 16.6324C23.2903 15.9258 23.8608 15.3529 24.5645 15.3529C25.2682 15.3529 25.8387 15.9258 25.8387 16.6324Z" fill="#CED6E2"/>
<path d="M33.4839 16.6324C33.4839 17.339 32.9134 17.9118 32.2097 17.9118C31.506 17.9118 30.9355 17.339 30.9355 16.6324C30.9355 15.9258 31.506 15.3529 32.2097 15.3529C32.9134 15.3529 33.4839 15.9258 33.4839 16.6324Z" fill="#CED6E2"/>
<path d="M41.129 16.6324C41.129 17.339 40.5586 17.9118 39.8548 17.9118C39.1511 17.9118 38.5806 17.339 38.5806 16.6324C38.5806 15.9258 39.1511 15.3529 39.8548 15.3529C40.5586 15.3529 41.129 15.9258 41.129 16.6324Z" fill="#CED6E2"/>
<path d="M48.7742 16.6324C48.7742 17.339 48.2037 17.9118 47.5 17.9118C46.7963 17.9118 46.2258 17.339 46.2258 16.6324C46.2258 15.9258 46.7963 15.3529 47.5 15.3529C48.2037 15.3529 48.7742 15.9258 48.7742 16.6324Z" fill="#CED6E2"/>
<path d="M56.4194 16.6324C56.4194 17.339 55.8489 17.9118 55.1452 17.9118C54.4414 17.9118 53.871 17.339 53.871 16.6324C53.871 15.9258 54.4414 15.3529 55.1452 15.3529C55.8489 15.3529 56.4194 15.9258 56.4194 16.6324Z" fill="#CED6E2"/>
<path d="M64.0645 16.6324C64.0645 17.339 63.494 17.9118 62.7903 17.9118C62.0866 17.9118 61.5161 17.339 61.5161 16.6324C61.5161 15.9258 62.0866 15.3529 62.7903 15.3529C63.494 15.3529 64.0645 15.9258 64.0645 16.6324Z" fill="#CED6E2"/>
<path d="M71.7097 16.6324C71.7097 17.339 71.1392 17.9118 70.4355 17.9118C69.7318 17.9118 69.1613 17.339 69.1613 16.6324C69.1613 15.9258 69.7318 15.3529 70.4355 15.3529C71.1392 15.3529 71.7097 15.9258 71.7097 16.6324Z" fill="#CED6E2"/>
<path d="M79.3548 16.6324C79.3548 17.339 78.7844 17.9118 78.0806 17.9118C77.3769 17.9118 76.8064 17.339 76.8064 16.6324C76.8064 15.9258 77.3769 15.3529 78.0806 15.3529C78.7844 15.3529 79.3548 15.9258 79.3548 16.6324Z" fill="#CED6E2"/>
<path d="M87 16.6324C87 17.339 86.4295 17.9118 85.7258 17.9118C85.0221 17.9118 84.4516 17.339 84.4516 16.6324C84.4516 15.9258 85.0221 15.3529 85.7258 15.3529C86.4295 15.3529 87 15.9258 87 16.6324Z" fill="#CED6E2"/>
<path d="M10.5484 24.3088C10.5484 25.0154 9.97791 25.5882 9.27419 25.5882C8.57048 25.5882 8 25.0154 8 24.3088C8 23.6022 8.57048 23.0294 9.27419 23.0294C9.97791 23.0294 10.5484 23.6022 10.5484 24.3088Z" fill="#CED6E2"/>
<path d="M18.1935 24.3088C18.1935 25.0154 17.6231 25.5882 16.9194 25.5882C16.2156 25.5882 15.6452 25.0154 15.6452 24.3088C15.6452 23.6022 16.2156 23.0294 16.9194 23.0294C17.6231 23.0294 18.1935 23.6022 18.1935 24.3088Z" fill="#CED6E2"/>
<path d="M25.8387 24.3088C25.8387 25.0154 25.2682 25.5882 24.5645 25.5882C23.8608 25.5882 23.2903 25.0154 23.2903 24.3088C23.2903 23.6022 23.8608 23.0294 24.5645 23.0294C25.2682 23.0294 25.8387 23.6022 25.8387 24.3088Z" fill="#CED6E2"/>
<path d="M33.4839 24.3088C33.4839 25.0154 32.9134 25.5882 32.2097 25.5882C31.506 25.5882 30.9355 25.0154 30.9355 24.3088C30.9355 23.6022 31.506 23.0294 32.2097 23.0294C32.9134 23.0294 33.4839 23.6022 33.4839 24.3088Z" fill="#CED6E2"/>
<path d="M41.129 24.3088C41.129 25.0154 40.5586 25.5882 39.8548 25.5882C39.1511 25.5882 38.5806 25.0154 38.5806 24.3088C38.5806 23.6022 39.1511 23.0294 39.8548 23.0294C40.5586 23.0294 41.129 23.6022 41.129 24.3088Z" fill="#CED6E2"/>
<path d="M48.7742 24.3088C48.7742 25.0154 48.2037 25.5882 47.5 25.5882C46.7963 25.5882 46.2258 25.0154 46.2258 24.3088C46.2258 23.6022 46.7963 23.0294 47.5 23.0294C48.2037 23.0294 48.7742 23.6022 48.7742 24.3088Z" fill="#CED6E2"/>
<path d="M56.4194 24.3088C56.4194 25.0154 55.8489 25.5882 55.1452 25.5882C54.4414 25.5882 53.871 25.0154 53.871 24.3088C53.871 23.6022 54.4414 23.0294 55.1452 23.0294C55.8489 23.0294 56.4194 23.6022 56.4194 24.3088Z" fill="#CED6E2"/>
<path d="M64.0645 24.3088C64.0645 25.0154 63.494 25.5882 62.7903 25.5882C62.0866 25.5882 61.5161 25.0154 61.5161 24.3088C61.5161 23.6022 62.0866 23.0294 62.7903 23.0294C63.494 23.0294 64.0645 23.6022 64.0645 24.3088Z" fill="#CED6E2"/>
<path d="M71.7097 24.3088C71.7097 25.0154 71.1392 25.5882 70.4355 25.5882C69.7318 25.5882 69.1613 25.0154 69.1613 24.3088C69.1613 23.6022 69.7318 23.0294 70.4355 23.0294C71.1392 23.0294 71.7097 23.6022 71.7097 24.3088Z" fill="#CED6E2"/>
<path d="M79.3548 24.3088C79.3548 25.0154 78.7844 25.5882 78.0806 25.5882C77.3769 25.5882 76.8064 25.0154 76.8064 24.3088C76.8064 23.6022 77.3769 23.0294 78.0806 23.0294C78.7844 23.0294 79.3548 23.6022 79.3548 24.3088Z" fill="#CED6E2"/>
<path d="M87 24.3088C87 25.0154 86.4295 25.5882 85.7258 25.5882C85.0221 25.5882 84.4516 25.0154 84.4516 24.3088C84.4516 23.6022 85.0221 23.0294 85.7258 23.0294C86.4295 23.0294 87 23.6022 87 24.3088Z" fill="#CED6E2"/>
<path d="M10.5484 31.9853C10.5484 32.6919 9.97791 33.2647 9.27419 33.2647C8.57048 33.2647 8 32.6919 8 31.9853C8 31.2787 8.57048 30.7059 9.27419 30.7059C9.97791 30.7059 10.5484 31.2787 10.5484 31.9853Z" fill="#CED6E2"/>
<path d="M18.1935 31.9853C18.1935 32.6919 17.6231 33.2647 16.9194 33.2647C16.2156 33.2647 15.6452 32.6919 15.6452 31.9853C15.6452 31.2787 16.2156 30.7059 16.9194 30.7059C17.6231 30.7059 18.1935 31.2787 18.1935 31.9853Z" fill="#CED6E2"/>
<path d="M25.8387 31.9853C25.8387 32.6919 25.2682 33.2647 24.5645 33.2647C23.8608 33.2647 23.2903 32.6919 23.2903 31.9853C23.2903 31.2787 23.8608 30.7059 24.5645 30.7059C25.2682 30.7059 25.8387 31.2787 25.8387 31.9853Z" fill="#CED6E2"/>
<path d="M33.4839 31.9853C33.4839 32.6919 32.9134 33.2647 32.2097 33.2647C31.506 33.2647 30.9355 32.6919 30.9355 31.9853C30.9355 31.2787 31.506 30.7059 32.2097 30.7059C32.9134 30.7059 33.4839 31.2787 33.4839 31.9853Z" fill="#CED6E2"/>
<path d="M41.129 31.9853C41.129 32.6919 40.5586 33.2647 39.8548 33.2647C39.1511 33.2647 38.5806 32.6919 38.5806 31.9853C38.5806 31.2787 39.1511 30.7059 39.8548 30.7059C40.5586 30.7059 41.129 31.2787 41.129 31.9853Z" fill="#CED6E2"/>
<path d="M48.7742 31.9853C48.7742 32.6919 48.2037 33.2647 47.5 33.2647C46.7963 33.2647 46.2258 32.6919 46.2258 31.9853C46.2258 31.2787 46.7963 30.7059 47.5 30.7059C48.2037 30.7059 48.7742 31.2787 48.7742 31.9853Z" fill="#CED6E2"/>
<path d="M56.4194 31.9853C56.4194 32.6919 55.8489 33.2647 55.1452 33.2647C54.4414 33.2647 53.871 32.6919 53.871 31.9853C53.871 31.2787 54.4414 30.7059 55.1452 30.7059C55.8489 30.7059 56.4194 31.2787 56.4194 31.9853Z" fill="#CED6E2"/>
<path d="M64.0645 31.9853C64.0645 32.6919 63.494 33.2647 62.7903 33.2647C62.0866 33.2647 61.5161 32.6919 61.5161 31.9853C61.5161 31.2787 62.0866 30.7059 62.7903 30.7059C63.494 30.7059 64.0645 31.2787 64.0645 31.9853Z" fill="#CED6E2"/>
<path d="M71.7097 31.9853C71.7097 32.6919 71.1392 33.2647 70.4355 33.2647C69.7318 33.2647 69.1613 32.6919 69.1613 31.9853C69.1613 31.2787 69.7318 30.7059 70.4355 30.7059C71.1392 30.7059 71.7097 31.2787 71.7097 31.9853Z" fill="#CED6E2"/>
<path d="M79.3548 31.9853C79.3548 32.6919 78.7844 33.2647 78.0806 33.2647C77.3769 33.2647 76.8064 32.6919 76.8064 31.9853C76.8064 31.2787 77.3769 30.7059 78.0806 30.7059C78.7844 30.7059 79.3548 31.2787 79.3548 31.9853Z" fill="#CED6E2"/>
<path d="M87 31.9853C87 32.6919 86.4295 33.2647 85.7258 33.2647C85.0221 33.2647 84.4516 32.6919 84.4516 31.9853C84.4516 31.2787 85.0221 30.7059 85.7258 30.7059C86.4295 30.7059 87 31.2787 87 31.9853Z" fill="#CED6E2"/>
<path d="M10.5484 39.6618C10.5484 40.3684 9.97791 40.9412 9.27419 40.9412C8.57048 40.9412 8 40.3684 8 39.6618C8 38.9552 8.57048 38.3824 9.27419 38.3824C9.97791 38.3824 10.5484 38.9552 10.5484 39.6618Z" fill="#CED6E2"/>
<path d="M18.1935 39.6618C18.1935 40.3684 17.6231 40.9412 16.9194 40.9412C16.2156 40.9412 15.6452 40.3684 15.6452 39.6618C15.6452 38.9552 16.2156 38.3824 16.9194 38.3824C17.6231 38.3824 18.1935 38.9552 18.1935 39.6618Z" fill="#CED6E2"/>
<path d="M25.8387 39.6618C25.8387 40.3684 25.2682 40.9412 24.5645 40.9412C23.8608 40.9412 23.2903 40.3684 23.2903 39.6618C23.2903 38.9552 23.8608 38.3824 24.5645 38.3824C25.2682 38.3824 25.8387 38.9552 25.8387 39.6618Z" fill="#CED6E2"/>
<path d="M33.4839 39.6618C33.4839 40.3684 32.9134 40.9412 32.2097 40.9412C31.506 40.9412 30.9355 40.3684 30.9355 39.6618C30.9355 38.9552 31.506 38.3824 32.2097 38.3824C32.9134 38.3824 33.4839 38.9552 33.4839 39.6618Z" fill="#CED6E2"/>
<path d="M41.129 39.6618C41.129 40.3684 40.5586 40.9412 39.8548 40.9412C39.1511 40.9412 38.5806 40.3684 38.5806 39.6618C38.5806 38.9552 39.1511 38.3824 39.8548 38.3824C40.5586 38.3824 41.129 38.9552 41.129 39.6618Z" fill="#CED6E2"/>
<path d="M48.7742 39.6618C48.7742 40.3684 48.2037 40.9412 47.5 40.9412C46.7963 40.9412 46.2258 40.3684 46.2258 39.6618C46.2258 38.9552 46.7963 38.3824 47.5 38.3824C48.2037 38.3824 48.7742 38.9552 48.7742 39.6618Z" fill="#CED6E2"/>
<path d="M56.4194 39.6618C56.4194 40.3684 55.8489 40.9412 55.1452 40.9412C54.4414 40.9412 53.871 40.3684 53.871 39.6618C53.871 38.9552 54.4414 38.3824 55.1452 38.3824C55.8489 38.3824 56.4194 38.9552 56.4194 39.6618Z" fill="#CED6E2"/>
<path d="M64.0645 39.6618C64.0645 40.3684 63.494 40.9412 62.7903 40.9412C62.0866 40.9412 61.5161 40.3684 61.5161 39.6618C61.5161 38.9552 62.0866 38.3824 62.7903 38.3824C63.494 38.3824 64.0645 38.9552 64.0645 39.6618Z" fill="#CED6E2"/>
<path d="M71.7097 39.6618C71.7097 40.3684 71.1392 40.9412 70.4355 40.9412C69.7318 40.9412 69.1613 40.3684 69.1613 39.6618C69.1613 38.9552 69.7318 38.3824 70.4355 38.3824C71.1392 38.3824 71.7097 38.9552 71.7097 39.6618Z" fill="#CED6E2"/>
<path d="M79.3548 39.6618C79.3548 40.3684 78.7844 40.9412 78.0806 40.9412C77.3769 40.9412 76.8064 40.3684 76.8064 39.6618C76.8064 38.9552 77.3769 38.3824 78.0806 38.3824C78.7844 38.3824 79.3548 38.9552 79.3548 39.6618Z" fill="#CED6E2"/>
<path d="M87 39.6618C87 40.3684 86.4295 40.9412 85.7258 40.9412C85.0221 40.9412 84.4516 40.3684 84.4516 39.6618C84.4516 38.9552 85.0221 38.3824 85.7258 38.3824C86.4295 38.3824 87 38.9552 87 39.6618Z" fill="#CED6E2"/>
<path d="M10.5484 47.3382C10.5484 48.0448 9.97791 48.6176 9.27419 48.6176C8.57048 48.6176 8 48.0448 8 47.3382C8 46.6316 8.57048 46.0588 9.27419 46.0588C9.97791 46.0588 10.5484 46.6316 10.5484 47.3382Z" fill="#CED6E2"/>
<path d="M18.1935 47.3382C18.1935 48.0448 17.6231 48.6176 16.9194 48.6176C16.2156 48.6176 15.6452 48.0448 15.6452 47.3382C15.6452 46.6316 16.2156 46.0588 16.9194 46.0588C17.6231 46.0588 18.1935 46.6316 18.1935 47.3382Z" fill="#CED6E2"/>
<path d="M25.8387 47.3382C25.8387 48.0448 25.2682 48.6176 24.5645 48.6176C23.8608 48.6176 23.2903 48.0448 23.2903 47.3382C23.2903 46.6316 23.8608 46.0588 24.5645 46.0588C25.2682 46.0588 25.8387 46.6316 25.8387 47.3382Z" fill="#CED6E2"/>
<path d="M33.4839 47.3382C33.4839 48.0448 32.9134 48.6176 32.2097 48.6176C31.506 48.6176 30.9355 48.0448 30.9355 47.3382C30.9355 46.6316 31.506 46.0588 32.2097 46.0588C32.9134 46.0588 33.4839 46.6316 33.4839 47.3382Z" fill="#CED6E2"/>
<path d="M41.129 47.3382C41.129 48.0448 40.5586 48.6176 39.8548 48.6176C39.1511 48.6176 38.5806 48.0448 38.5806 47.3382C38.5806 46.6316 39.1511 46.0588 39.8548 46.0588C40.5586 46.0588 41.129 46.6316 41.129 47.3382Z" fill="#CED6E2"/>
<path d="M48.7742 47.3382C48.7742 48.0448 48.2037 48.6176 47.5 48.6176C46.7963 48.6176 46.2258 48.0448 46.2258 47.3382C46.2258 46.6316 46.7963 46.0588 47.5 46.0588C48.2037 46.0588 48.7742 46.6316 48.7742 47.3382Z" fill="#CED6E2"/>
<path d="M56.4194 47.3382C56.4194 48.0448 55.8489 48.6176 55.1452 48.6176C54.4414 48.6176 53.871 48.0448 53.871 47.3382C53.871 46.6316 54.4414 46.0588 55.1452 46.0588C55.8489 46.0588 56.4194 46.6316 56.4194 47.3382Z" fill="#CED6E2"/>
<path d="M64.0645 47.3382C64.0645 48.0448 63.494 48.6176 62.7903 48.6176C62.0866 48.6176 61.5161 48.0448 61.5161 47.3382C61.5161 46.6316 62.0866 46.0588 62.7903 46.0588C63.494 46.0588 64.0645 46.6316 64.0645 47.3382Z" fill="#CED6E2"/>
<path d="M71.7097 47.3382C71.7097 48.0448 71.1392 48.6176 70.4355 48.6176C69.7318 48.6176 69.1613 48.0448 69.1613 47.3382C69.1613 46.6316 69.7318 46.0588 70.4355 46.0588C71.1392 46.0588 71.7097 46.6316 71.7097 47.3382Z" fill="#CED6E2"/>
<path d="M79.3548 47.3382C79.3548 48.0448 78.7844 48.6176 78.0806 48.6176C77.3769 48.6176 76.8064 48.0448 76.8064 47.3382C76.8064 46.6316 77.3769 46.0588 78.0806 46.0588C78.7844 46.0588 79.3548 46.6316 79.3548 47.3382Z" fill="#CED6E2"/>
<path d="M87 47.3382C87 48.0448 86.4295 48.6176 85.7258 48.6176C85.0221 48.6176 84.4516 48.0448 84.4516 47.3382C84.4516 46.6316 85.0221 46.0588 85.7258 46.0588C86.4295 46.0588 87 46.6316 87 47.3382Z" fill="#CED6E2"/>
<path d="M10.5484 55.0147C10.5484 55.7213 9.97791 56.2941 9.27419 56.2941C8.57048 56.2941 8 55.7213 8 55.0147C8 54.3081 8.57048 53.7353 9.27419 53.7353C9.97791 53.7353 10.5484 54.3081 10.5484 55.0147Z" fill="#CED6E2"/>
<path d="M18.1935 55.0147C18.1935 55.7213 17.6231 56.2941 16.9194 56.2941C16.2156 56.2941 15.6452 55.7213 15.6452 55.0147C15.6452 54.3081 16.2156 53.7353 16.9194 53.7353C17.6231 53.7353 18.1935 54.3081 18.1935 55.0147Z" fill="#CED6E2"/>
<path d="M25.8387 55.0147C25.8387 55.7213 25.2682 56.2941 24.5645 56.2941C23.8608 56.2941 23.2903 55.7213 23.2903 55.0147C23.2903 54.3081 23.8608 53.7353 24.5645 53.7353C25.2682 53.7353 25.8387 54.3081 25.8387 55.0147Z" fill="#CED6E2"/>
<path d="M33.4839 55.0147C33.4839 55.7213 32.9134 56.2941 32.2097 56.2941C31.506 56.2941 30.9355 55.7213 30.9355 55.0147C30.9355 54.3081 31.506 53.7353 32.2097 53.7353C32.9134 53.7353 33.4839 54.3081 33.4839 55.0147Z" fill="#CED6E2"/>
<path d="M41.129 55.0147C41.129 55.7213 40.5586 56.2941 39.8548 56.2941C39.1511 56.2941 38.5806 55.7213 38.5806 55.0147C38.5806 54.3081 39.1511 53.7353 39.8548 53.7353C40.5586 53.7353 41.129 54.3081 41.129 55.0147Z" fill="#CED6E2"/>
<path d="M48.7742 55.0147C48.7742 55.7213 48.2037 56.2941 47.5 56.2941C46.7963 56.2941 46.2258 55.7213 46.2258 55.0147C46.2258 54.3081 46.7963 53.7353 47.5 53.7353C48.2037 53.7353 48.7742 54.3081 48.7742 55.0147Z" fill="#CED6E2"/>
<path d="M56.4194 55.0147C56.4194 55.7213 55.8489 56.2941 55.1452 56.2941C54.4414 56.2941 53.871 55.7213 53.871 55.0147C53.871 54.3081 54.4414 53.7353 55.1452 53.7353C55.8489 53.7353 56.4194 54.3081 56.4194 55.0147Z" fill="#CED6E2"/>
<path d="M64.0645 55.0147C64.0645 55.7213 63.494 56.2941 62.7903 56.2941C62.0866 56.2941 61.5161 55.7213 61.5161 55.0147C61.5161 54.3081 62.0866 53.7353 62.7903 53.7353C63.494 53.7353 64.0645 54.3081 64.0645 55.0147Z" fill="#CED6E2"/>
<path d="M71.7097 55.0147C71.7097 55.7213 71.1392 56.2941 70.4355 56.2941C69.7318 56.2941 69.1613 55.7213 69.1613 55.0147C69.1613 54.3081 69.7318 53.7353 70.4355 53.7353C71.1392 53.7353 71.7097 54.3081 71.7097 55.0147Z" fill="#CED6E2"/>
<path d="M79.3548 55.0147C79.3548 55.7213 78.7844 56.2941 78.0806 56.2941C77.3769 56.2941 76.8064 55.7213 76.8064 55.0147C76.8064 54.3081 77.3769 53.7353 78.0806 53.7353C78.7844 53.7353 79.3548 54.3081 79.3548 55.0147Z" fill="#CED6E2"/>
<path d="M87 55.0147C87 55.7213 86.4295 56.2941 85.7258 56.2941C85.0221 56.2941 84.4516 55.7213 84.4516 55.0147C84.4516 54.3081 85.0221 53.7353 85.7258 53.7353C86.4295 53.7353 87 54.3081 87 55.0147Z" fill="#CED6E2"/>
<path d="M10.5484 62.6912C10.5484 63.3978 9.97791 63.9706 9.27419 63.9706C8.57048 63.9706 8 63.3978 8 62.6912C8 61.9846 8.57048 61.4118 9.27419 61.4118C9.97791 61.4118 10.5484 61.9846 10.5484 62.6912Z" fill="#CED6E2"/>
<path d="M18.1935 62.6912C18.1935 63.3978 17.6231 63.9706 16.9194 63.9706C16.2156 63.9706 15.6452 63.3978 15.6452 62.6912C15.6452 61.9846 16.2156 61.4118 16.9194 61.4118C17.6231 61.4118 18.1935 61.9846 18.1935 62.6912Z" fill="#CED6E2"/>
<path d="M25.8387 62.6912C25.8387 63.3978 25.2682 63.9706 24.5645 63.9706C23.8608 63.9706 23.2903 63.3978 23.2903 62.6912C23.2903 61.9846 23.8608 61.4118 24.5645 61.4118C25.2682 61.4118 25.8387 61.9846 25.8387 62.6912Z" fill="#CED6E2"/>
<path d="M33.4839 62.6912C33.4839 63.3978 32.9134 63.9706 32.2097 63.9706C31.506 63.9706 30.9355 63.3978 30.9355 62.6912C30.9355 61.9846 31.506 61.4118 32.2097 61.4118C32.9134 61.4118 33.4839 61.9846 33.4839 62.6912Z" fill="#CED6E2"/>
<path d="M41.129 62.6912C41.129 63.3978 40.5586 63.9706 39.8548 63.9706C39.1511 63.9706 38.5806 63.3978 38.5806 62.6912C38.5806 61.9846 39.1511 61.4118 39.8548 61.4118C40.5586 61.4118 41.129 61.9846 41.129 62.6912Z" fill="#CED6E2"/>
<path d="M48.7742 62.6912C48.7742 63.3978 48.2037 63.9706 47.5 63.9706C46.7963 63.9706 46.2258 63.3978 46.2258 62.6912C46.2258 61.9846 46.7963 61.4118 47.5 61.4118C48.2037 61.4118 48.7742 61.9846 48.7742 62.6912Z" fill="#CED6E2"/>
<path d="M56.4194 62.6912C56.4194 63.3978 55.8489 63.9706 55.1452 63.9706C54.4414 63.9706 53.871 63.3978 53.871 62.6912C53.871 61.9846 54.4414 61.4118 55.1452 61.4118C55.8489 61.4118 56.4194 61.9846 56.4194 62.6912Z" fill="#CED6E2"/>
<path d="M64.0645 62.6912C64.0645 63.3978 63.494 63.9706 62.7903 63.9706C62.0866 63.9706 61.5161 63.3978 61.5161 62.6912C61.5161 61.9846 62.0866 61.4118 62.7903 61.4118C63.494 61.4118 64.0645 61.9846 64.0645 62.6912Z" fill="#CED6E2"/>
<path d="M71.7097 62.6912C71.7097 63.3978 71.1392 63.9706 70.4355 63.9706C69.7318 63.9706 69.1613 63.3978 69.1613 62.6912C69.1613 61.9846 69.7318 61.4118 70.4355 61.4118C71.1392 61.4118 71.7097 61.9846 71.7097 62.6912Z" fill="#CED6E2"/>
<path d="M79.3548 62.6912C79.3548 63.3978 78.7844 63.9706 78.0806 63.9706C77.3769 63.9706 76.8064 63.3978 76.8064 62.6912C76.8064 61.9846 77.3769 61.4118 78.0806 61.4118C78.7844 61.4118 79.3548 61.9846 79.3548 62.6912Z" fill="#CED6E2"/>
<path d="M87 62.6912C87 63.3978 86.4295 63.9706 85.7258 63.9706C85.0221 63.9706 84.4516 63.3978 84.4516 62.6912C84.4516 61.9846 85.0221 61.4118 85.7258 61.4118C86.4295 61.4118 87 61.9846 87 62.6912Z" fill="#CED6E2"/>
<path d="M10.5484 70.3676C10.5484 71.0742 9.97791 71.6471 9.27419 71.6471C8.57048 71.6471 8 71.0742 8 70.3676C8 69.661 8.57048 69.0882 9.27419 69.0882C9.97791 69.0882 10.5484 69.661 10.5484 70.3676Z" fill="#CED6E2"/>
<path d="M18.1935 70.3676C18.1935 71.0742 17.6231 71.6471 16.9194 71.6471C16.2156 71.6471 15.6452 71.0742 15.6452 70.3676C15.6452 69.661 16.2156 69.0882 16.9194 69.0882C17.6231 69.0882 18.1935 69.661 18.1935 70.3676Z" fill="#CED6E2"/>
<path d="M25.8387 70.3676C25.8387 71.0742 25.2682 71.6471 24.5645 71.6471C23.8608 71.6471 23.2903 71.0742 23.2903 70.3676C23.2903 69.661 23.8608 69.0882 24.5645 69.0882C25.2682 69.0882 25.8387 69.661 25.8387 70.3676Z" fill="#CED6E2"/>
<path d="M33.4839 70.3676C33.4839 71.0742 32.9134 71.6471 32.2097 71.6471C31.506 71.6471 30.9355 71.0742 30.9355 70.3676C30.9355 69.661 31.506 69.0882 32.2097 69.0882C32.9134 69.0882 33.4839 69.661 33.4839 70.3676Z" fill="#CED6E2"/>
<path d="M41.129 70.3676C41.129 71.0742 40.5586 71.6471 39.8548 71.6471C39.1511 71.6471 38.5806 71.0742 38.5806 70.3676C38.5806 69.661 39.1511 69.0882 39.8548 69.0882C40.5586 69.0882 41.129 69.661 41.129 70.3676Z" fill="#CED6E2"/>
<path d="M48.7742 70.3676C48.7742 71.0742 48.2037 71.6471 47.5 71.6471C46.7963 71.6471 46.2258 71.0742 46.2258 70.3676C46.2258 69.661 46.7963 69.0882 47.5 69.0882C48.2037 69.0882 48.7742 69.661 48.7742 70.3676Z" fill="#CED6E2"/>
<path d="M56.4194 70.3676C56.4194 71.0742 55.8489 71.6471 55.1452 71.6471C54.4414 71.6471 53.871 71.0742 53.871 70.3676C53.871 69.661 54.4414 69.0882 55.1452 69.0882C55.8489 69.0882 56.4194 69.661 56.4194 70.3676Z" fill="#CED6E2"/>
<path d="M64.0645 70.3676C64.0645 71.0742 63.494 71.6471 62.7903 71.6471C62.0866 71.6471 61.5161 71.0742 61.5161 70.3676C61.5161 69.661 62.0866 69.0882 62.7903 69.0882C63.494 69.0882 64.0645 69.661 64.0645 70.3676Z" fill="#CED6E2"/>
<path d="M71.7097 70.3676C71.7097 71.0742 71.1392 71.6471 70.4355 71.6471C69.7318 71.6471 69.1613 71.0742 69.1613 70.3676C69.1613 69.661 69.7318 69.0882 70.4355 69.0882C71.1392 69.0882 71.7097 69.661 71.7097 70.3676Z" fill="#CED6E2"/>
<path d="M79.3548 70.3676C79.3548 71.0742 78.7844 71.6471 78.0806 71.6471C77.3769 71.6471 76.8064 71.0742 76.8064 70.3676C76.8064 69.661 77.3769 69.0882 78.0806 69.0882C78.7844 69.0882 79.3548 69.661 79.3548 70.3676Z" fill="#CED6E2"/>
<path d="M87 70.3676C87 71.0742 86.4295 71.6471 85.7258 71.6471C85.0221 71.6471 84.4516 71.0742 84.4516 70.3676C84.4516 69.661 85.0221 69.0882 85.7258 69.0882C86.4295 69.0882 87 69.661 87 70.3676Z" fill="#CED6E2"/>
<path d="M10.5484 78.0441C10.5484 78.7507 9.97791 79.3235 9.27419 79.3235C8.57048 79.3235 8 78.7507 8 78.0441C8 77.3375 8.57048 76.7647 9.27419 76.7647C9.97791 76.7647 10.5484 77.3375 10.5484 78.0441Z" fill="#CED6E2"/>
<path d="M18.1935 78.0441C18.1935 78.7507 17.6231 79.3235 16.9194 79.3235C16.2156 79.3235 15.6452 78.7507 15.6452 78.0441C15.6452 77.3375 16.2156 76.7647 16.9194 76.7647C17.6231 76.7647 18.1935 77.3375 18.1935 78.0441Z" fill="#CED6E2"/>
<path d="M25.8387 78.0441C25.8387 78.7507 25.2682 79.3235 24.5645 79.3235C23.8608 79.3235 23.2903 78.7507 23.2903 78.0441C23.2903 77.3375 23.8608 76.7647 24.5645 76.7647C25.2682 76.7647 25.8387 77.3375 25.8387 78.0441Z" fill="#CED6E2"/>
<path d="M33.4839 78.0441C33.4839 78.7507 32.9134 79.3235 32.2097 79.3235C31.506 79.3235 30.9355 78.7507 30.9355 78.0441C30.9355 77.3375 31.506 76.7647 32.2097 76.7647C32.9134 76.7647 33.4839 77.3375 33.4839 78.0441Z" fill="#CED6E2"/>
<path d="M41.129 78.0441C41.129 78.7507 40.5586 79.3235 39.8548 79.3235C39.1511 79.3235 38.5806 78.7507 38.5806 78.0441C38.5806 77.3375 39.1511 76.7647 39.8548 76.7647C40.5586 76.7647 41.129 77.3375 41.129 78.0441Z" fill="#CED6E2"/>
<path d="M48.7742 78.0441C48.7742 78.7507 48.2037 79.3235 47.5 79.3235C46.7963 79.3235 46.2258 78.7507 46.2258 78.0441C46.2258 77.3375 46.7963 76.7647 47.5 76.7647C48.2037 76.7647 48.7742 77.3375 48.7742 78.0441Z" fill="#CED6E2"/>
<path d="M56.4194 78.0441C56.4194 78.7507 55.8489 79.3235 55.1452 79.3235C54.4414 79.3235 53.871 78.7507 53.871 78.0441C53.871 77.3375 54.4414 76.7647 55.1452 76.7647C55.8489 76.7647 56.4194 77.3375 56.4194 78.0441Z" fill="#CED6E2"/>
<path d="M64.0645 78.0441C64.0645 78.7507 63.494 79.3235 62.7903 79.3235C62.0866 79.3235 61.5161 78.7507 61.5161 78.0441C61.5161 77.3375 62.0866 76.7647 62.7903 76.7647C63.494 76.7647 64.0645 77.3375 64.0645 78.0441Z" fill="#CED6E2"/>
<path d="M71.7097 78.0441C71.7097 78.7507 71.1392 79.3235 70.4355 79.3235C69.7318 79.3235 69.1613 78.7507 69.1613 78.0441C69.1613 77.3375 69.7318 76.7647 70.4355 76.7647C71.1392 76.7647 71.7097 77.3375 71.7097 78.0441Z" fill="#CED6E2"/>
<path d="M79.3548 78.0441C79.3548 78.7507 78.7844 79.3235 78.0806 79.3235C77.3769 79.3235 76.8064 78.7507 76.8064 78.0441C76.8064 77.3375 77.3769 76.7647 78.0806 76.7647C78.7844 76.7647 79.3548 77.3375 79.3548 78.0441Z" fill="#CED6E2"/>
<path d="M87 78.0441C87 78.7507 86.4295 79.3235 85.7258 79.3235C85.0221 79.3235 84.4516 78.7507 84.4516 78.0441C84.4516 77.3375 85.0221 76.7647 85.7258 76.7647C86.4295 76.7647 87 77.3375 87 78.0441Z" fill="#CED6E2"/>
<path d="M10.5484 85.7206C10.5484 86.4272 9.97791 87 9.27419 87C8.57048 87 8 86.4272 8 85.7206C8 85.014 8.57048 84.4412 9.27419 84.4412C9.97791 84.4412 10.5484 85.014 10.5484 85.7206Z" fill="#CED6E2"/>
<path d="M18.1935 85.7206C18.1935 86.4272 17.6231 87 16.9194 87C16.2156 87 15.6452 86.4272 15.6452 85.7206C15.6452 85.014 16.2156 84.4412 16.9194 84.4412C17.6231 84.4412 18.1935 85.014 18.1935 85.7206Z" fill="#CED6E2"/>
<path d="M25.8387 85.7206C25.8387 86.4272 25.2682 87 24.5645 87C23.8608 87 23.2903 86.4272 23.2903 85.7206C23.2903 85.014 23.8608 84.4412 24.5645 84.4412C25.2682 84.4412 25.8387 85.014 25.8387 85.7206Z" fill="#CED6E2"/>
<path d="M33.4839 85.7206C33.4839 86.4272 32.9134 87 32.2097 87C31.506 87 30.9355 86.4272 30.9355 85.7206C30.9355 85.014 31.506 84.4412 32.2097 84.4412C32.9134 84.4412 33.4839 85.014 33.4839 85.7206Z" fill="#CED6E2"/>
<path d="M41.129 85.7206C41.129 86.4272 40.5586 87 39.8548 87C39.1511 87 38.5806 86.4272 38.5806 85.7206C38.5806 85.014 39.1511 84.4412 39.8548 84.4412C40.5586 84.4412 41.129 85.014 41.129 85.7206Z" fill="#CED6E2"/>
<path d="M48.7742 85.7206C48.7742 86.4272 48.2037 87 47.5 87C46.7963 87 46.2258 86.4272 46.2258 85.7206C46.2258 85.014 46.7963 84.4412 47.5 84.4412C48.2037 84.4412 48.7742 85.014 48.7742 85.7206Z" fill="#CED6E2"/>
<path d="M56.4194 85.7206C56.4194 86.4272 55.8489 87 55.1452 87C54.4414 87 53.871 86.4272 53.871 85.7206C53.871 85.014 54.4414 84.4412 55.1452 84.4412C55.8489 84.4412 56.4194 85.014 56.4194 85.7206Z" fill="#CED6E2"/>
<path d="M64.0645 85.7206C64.0645 86.4272 63.494 87 62.7903 87C62.0866 87 61.5161 86.4272 61.5161 85.7206C61.5161 85.014 62.0866 84.4412 62.7903 84.4412C63.494 84.4412 64.0645 85.014 64.0645 85.7206Z" fill="#CED6E2"/>
<path d="M71.7097 85.7206C71.7097 86.4272 71.1392 87 70.4355 87C69.7318 87 69.1613 86.4272 69.1613 85.7206C69.1613 85.014 69.7318 84.4412 70.4355 84.4412C71.1392 84.4412 71.7097 85.014 71.7097 85.7206Z" fill="#CED6E2"/>
<path d="M79.3548 85.7206C79.3548 86.4272 78.7844 87 78.0806 87C77.3769 87 76.8064 86.4272 76.8064 85.7206C76.8064 85.014 77.3769 84.4412 78.0806 84.4412C78.7844 84.4412 79.3548 85.014 79.3548 85.7206Z" fill="#CED6E2"/>
<path d="M87 85.7206C87 86.4272 86.4295 87 85.7258 87C85.0221 87 84.4516 86.4272 84.4516 85.7206C84.4516 85.014 85.0221 84.4412 85.7258 84.4412C86.4295 84.4412 87 85.014 87 85.7206Z" fill="#CED6E2"/>
<path d="M2.54839 1.27941C2.54839 1.98601 1.97791 2.55882 1.27419 2.55882C0.570476 2.55882 0 1.98601 0 1.27941C0 0.572812 0.570476 0 1.27419 0C1.97791 0 2.54839 0.572812 2.54839 1.27941Z" fill="#CED6E2"/>
<path d="M2.54839 8.95588C2.54839 9.66248 1.97791 10.2353 1.27419 10.2353C0.570476 10.2353 0 9.66248 0 8.95588C0 8.24928 0.570476 7.67647 1.27419 7.67647C1.97791 7.67647 2.54839 8.24928 2.54839 8.95588Z" fill="#CED6E2"/>
<path d="M2.54839 16.6324C2.54839 17.339 1.97791 17.9118 1.27419 17.9118C0.570476 17.9118 0 17.339 0 16.6324C0 15.9258 0.570476 15.3529 1.27419 15.3529C1.97791 15.3529 2.54839 15.9258 2.54839 16.6324Z" fill="#CED6E2"/>
<path d="M2.54839 24.3088C2.54839 25.0154 1.97791 25.5882 1.27419 25.5882C0.570476 25.5882 0 25.0154 0 24.3088C0 23.6022 0.570476 23.0294 1.27419 23.0294C1.97791 23.0294 2.54839 23.6022 2.54839 24.3088Z" fill="#CED6E2"/>
<path d="M2.54839 31.9853C2.54839 32.6919 1.97791 33.2647 1.27419 33.2647C0.570476 33.2647 0 32.6919 0 31.9853C0 31.2787 0.570476 30.7059 1.27419 30.7059C1.97791 30.7059 2.54839 31.2787 2.54839 31.9853Z" fill="#CED6E2"/>
<path d="M2.54839 39.6618C2.54839 40.3684 1.97791 40.9412 1.27419 40.9412C0.570476 40.9412 0 40.3684 0 39.6618C0 38.9552 0.570476 38.3824 1.27419 38.3824C1.97791 38.3824 2.54839 38.9552 2.54839 39.6618Z" fill="#CED6E2"/>
<path d="M2.54839 47.3382C2.54839 48.0448 1.97791 48.6176 1.27419 48.6176C0.570476 48.6176 0 48.0448 0 47.3382C0 46.6316 0.570476 46.0588 1.27419 46.0588C1.97791 46.0588 2.54839 46.6316 2.54839 47.3382Z" fill="#CED6E2"/>
<path d="M2.54839 55.0147C2.54839 55.7213 1.97791 56.2941 1.27419 56.2941C0.570476 56.2941 0 55.7213 0 55.0147C0 54.3081 0.570476 53.7353 1.27419 53.7353C1.97791 53.7353 2.54839 54.3081 2.54839 55.0147Z" fill="#CED6E2"/>
<path d="M2.54839 62.6912C2.54839 63.3978 1.97791 63.9706 1.27419 63.9706C0.570476 63.9706 0 63.3978 0 62.6912C0 61.9846 0.570476 61.4118 1.27419 61.4118C1.97791 61.4118 2.54839 61.9846 2.54839 62.6912Z" fill="#CED6E2"/>
<path d="M2.54839 70.3676C2.54839 71.0742 1.97791 71.6471 1.27419 71.6471C0.570476 71.6471 0 71.0742 0 70.3676C0 69.661 0.570476 69.0882 1.27419 69.0882C1.97791 69.0882 2.54839 69.661 2.54839 70.3676Z" fill="#CED6E2"/>
<path d="M2.54839 78.0441C2.54839 78.7507 1.97791 79.3235 1.27419 79.3235C0.570476 79.3235 0 78.7507 0 78.0441C0 77.3375 0.570476 76.7647 1.27419 76.7647C1.97791 76.7647 2.54839 77.3375 2.54839 78.0441Z" fill="#CED6E2"/>
<path d="M2.54839 85.7206C2.54839 86.4272 1.97791 87 1.27419 87C0.570476 87 0 86.4272 0 85.7206C0 85.014 0.570476 84.4412 1.27419 84.4412C1.97791 84.4412 2.54839 85.014 2.54839 85.7206Z" fill="#CED6E2"/>
<path d="M102.548 1.27941C102.548 1.98601 101.978 2.55882 101.274 2.55882C100.57 2.55882 100 1.98601 100 1.27941C100 0.572812 100.57 0 101.274 0C101.978 0 102.548 0.572812 102.548 1.27941Z" fill="#CED6E2"/>
<path d="M110.194 1.27941C110.194 1.98601 109.623 2.55882 108.919 2.55882C108.216 2.55882 107.645 1.98601 107.645 1.27941C107.645 0.572812 108.216 0 108.919 0C109.623 0 110.194 0.572812 110.194 1.27941Z" fill="#CED6E2"/>
<path d="M117.839 1.27941C117.839 1.98601 117.268 2.55882 116.565 2.55882C115.861 2.55882 115.29 1.98601 115.29 1.27941C115.29 0.572812 115.861 0 116.565 0C117.268 0 117.839 0.572812 117.839 1.27941Z" fill="#CED6E2"/>
<path d="M125.484 1.27941C125.484 1.98601 124.913 2.55882 124.21 2.55882C123.506 2.55882 122.935 1.98601 122.935 1.27941C122.935 0.572812 123.506 0 124.21 0C124.913 0 125.484 0.572812 125.484 1.27941Z" fill="#CED6E2"/>
<path d="M133.129 1.27941C133.129 1.98601 132.559 2.55882 131.855 2.55882C131.151 2.55882 130.581 1.98601 130.581 1.27941C130.581 0.572812 131.151 0 131.855 0C132.559 0 133.129 0.572812 133.129 1.27941Z" fill="#CED6E2"/>
<path d="M140.774 1.27941C140.774 1.98601 140.204 2.55882 139.5 2.55882C138.796 2.55882 138.226 1.98601 138.226 1.27941C138.226 0.572812 138.796 0 139.5 0C140.204 0 140.774 0.572812 140.774 1.27941Z" fill="#CED6E2"/>
<path d="M148.419 1.27941C148.419 1.98601 147.849 2.55882 147.145 2.55882C146.441 2.55882 145.871 1.98601 145.871 1.27941C145.871 0.572812 146.441 0 147.145 0C147.849 0 148.419 0.572812 148.419 1.27941Z" fill="#CED6E2"/>
<path d="M156.065 1.27941C156.065 1.98601 155.494 2.55882 154.79 2.55882C154.087 2.55882 153.516 1.98601 153.516 1.27941C153.516 0.572812 154.087 0 154.79 0C155.494 0 156.065 0.572812 156.065 1.27941Z" fill="#CED6E2"/>
<path d="M163.71 1.27941C163.71 1.98601 163.139 2.55882 162.435 2.55882C161.732 2.55882 161.161 1.98601 161.161 1.27941C161.161 0.572812 161.732 0 162.435 0C163.139 0 163.71 0.572812 163.71 1.27941Z" fill="#CED6E2"/>
<path d="M171.355 1.27941C171.355 1.98601 170.784 2.55882 170.081 2.55882C169.377 2.55882 168.806 1.98601 168.806 1.27941C168.806 0.572812 169.377 0 170.081 0C170.784 0 171.355 0.572812 171.355 1.27941Z" fill="#CED6E2"/>
<path d="M179 1.27941C179 1.98601 178.43 2.55882 177.726 2.55882C177.022 2.55882 176.452 1.98601 176.452 1.27941C176.452 0.572812 177.022 0 177.726 0C178.43 0 179 0.572812 179 1.27941Z" fill="#CED6E2"/>
<path d="M102.548 8.95588C102.548 9.66248 101.978 10.2353 101.274 10.2353C100.57 10.2353 100 9.66248 100 8.95588C100 8.24928 100.57 7.67647 101.274 7.67647C101.978 7.67647 102.548 8.24928 102.548 8.95588Z" fill="#CED6E2"/>
<path d="M110.194 8.95588C110.194 9.66248 109.623 10.2353 108.919 10.2353C108.216 10.2353 107.645 9.66248 107.645 8.95588C107.645 8.24928 108.216 7.67647 108.919 7.67647C109.623 7.67647 110.194 8.24928 110.194 8.95588Z" fill="#CED6E2"/>
<path d="M117.839 8.95588C117.839 9.66248 117.268 10.2353 116.565 10.2353C115.861 10.2353 115.29 9.66248 115.29 8.95588C115.29 8.24928 115.861 7.67647 116.565 7.67647C117.268 7.67647 117.839 8.24928 117.839 8.95588Z" fill="#CED6E2"/>
<path d="M125.484 8.95588C125.484 9.66248 124.913 10.2353 124.21 10.2353C123.506 10.2353 122.935 9.66248 122.935 8.95588C122.935 8.24928 123.506 7.67647 124.21 7.67647C124.913 7.67647 125.484 8.24928 125.484 8.95588Z" fill="#CED6E2"/>
<path d="M133.129 8.95588C133.129 9.66248 132.559 10.2353 131.855 10.2353C131.151 10.2353 130.581 9.66248 130.581 8.95588C130.581 8.24928 131.151 7.67647 131.855 7.67647C132.559 7.67647 133.129 8.24928 133.129 8.95588Z" fill="#CED6E2"/>
<path d="M140.774 8.95588C140.774 9.66248 140.204 10.2353 139.5 10.2353C138.796 10.2353 138.226 9.66248 138.226 8.95588C138.226 8.24928 138.796 7.67647 139.5 7.67647C140.204 7.67647 140.774 8.24928 140.774 8.95588Z" fill="#CED6E2"/>
<path d="M148.419 8.95588C148.419 9.66248 147.849 10.2353 147.145 10.2353C146.441 10.2353 145.871 9.66248 145.871 8.95588C145.871 8.24928 146.441 7.67647 147.145 7.67647C147.849 7.67647 148.419 8.24928 148.419 8.95588Z" fill="#CED6E2"/>
<path d="M156.065 8.95588C156.065 9.66248 155.494 10.2353 154.79 10.2353C154.087 10.2353 153.516 9.66248 153.516 8.95588C153.516 8.24928 154.087 7.67647 154.79 7.67647C155.494 7.67647 156.065 8.24928 156.065 8.95588Z" fill="#CED6E2"/>
<path d="M163.71 8.95588C163.71 9.66248 163.139 10.2353 162.435 10.2353C161.732 10.2353 161.161 9.66248 161.161 8.95588C161.161 8.24928 161.732 7.67647 162.435 7.67647C163.139 7.67647 163.71 8.24928 163.71 8.95588Z" fill="#CED6E2"/>
<path d="M171.355 8.95588C171.355 9.66248 170.784 10.2353 170.081 10.2353C169.377 10.2353 168.806 9.66248 168.806 8.95588C168.806 8.24928 169.377 7.67647 170.081 7.67647C170.784 7.67647 171.355 8.24928 171.355 8.95588Z" fill="#CED6E2"/>
<path d="M179 8.95588C179 9.66248 178.43 10.2353 177.726 10.2353C177.022 10.2353 176.452 9.66248 176.452 8.95588C176.452 8.24928 177.022 7.67647 177.726 7.67647C178.43 7.67647 179 8.24928 179 8.95588Z" fill="#CED6E2"/>
<path d="M102.548 16.6324C102.548 17.339 101.978 17.9118 101.274 17.9118C100.57 17.9118 100 17.339 100 16.6324C100 15.9258 100.57 15.3529 101.274 15.3529C101.978 15.3529 102.548 15.9258 102.548 16.6324Z" fill="#CED6E2"/>
<path d="M110.194 16.6324C110.194 17.339 109.623 17.9118 108.919 17.9118C108.216 17.9118 107.645 17.339 107.645 16.6324C107.645 15.9258 108.216 15.3529 108.919 15.3529C109.623 15.3529 110.194 15.9258 110.194 16.6324Z" fill="#CED6E2"/>
<path d="M117.839 16.6324C117.839 17.339 117.268 17.9118 116.565 17.9118C115.861 17.9118 115.29 17.339 115.29 16.6324C115.29 15.9258 115.861 15.3529 116.565 15.3529C117.268 15.3529 117.839 15.9258 117.839 16.6324Z" fill="#CED6E2"/>
<path d="M125.484 16.6324C125.484 17.339 124.913 17.9118 124.21 17.9118C123.506 17.9118 122.935 17.339 122.935 16.6324C122.935 15.9258 123.506 15.3529 124.21 15.3529C124.913 15.3529 125.484 15.9258 125.484 16.6324Z" fill="#CED6E2"/>
<path d="M133.129 16.6324C133.129 17.339 132.559 17.9118 131.855 17.9118C131.151 17.9118 130.581 17.339 130.581 16.6324C130.581 15.9258 131.151 15.3529 131.855 15.3529C132.559 15.3529 133.129 15.9258 133.129 16.6324Z" fill="#CED6E2"/>
<path d="M140.774 16.6324C140.774 17.339 140.204 17.9118 139.5 17.9118C138.796 17.9118 138.226 17.339 138.226 16.6324C138.226 15.9258 138.796 15.3529 139.5 15.3529C140.204 15.3529 140.774 15.9258 140.774 16.6324Z" fill="#CED6E2"/>
<path d="M148.419 16.6324C148.419 17.339 147.849 17.9118 147.145 17.9118C146.441 17.9118 145.871 17.339 145.871 16.6324C145.871 15.9258 146.441 15.3529 147.145 15.3529C147.849 15.3529 148.419 15.9258 148.419 16.6324Z" fill="#CED6E2"/>
<path d="M156.065 16.6324C156.065 17.339 155.494 17.9118 154.79 17.9118C154.087 17.9118 153.516 17.339 153.516 16.6324C153.516 15.9258 154.087 15.3529 154.79 15.3529C155.494 15.3529 156.065 15.9258 156.065 16.6324Z" fill="#CED6E2"/>
<path d="M163.71 16.6324C163.71 17.339 163.139 17.9118 162.435 17.9118C161.732 17.9118 161.161 17.339 161.161 16.6324C161.161 15.9258 161.732 15.3529 162.435 15.3529C163.139 15.3529 163.71 15.9258 163.71 16.6324Z" fill="#CED6E2"/>
<path d="M171.355 16.6324C171.355 17.339 170.784 17.9118 170.081 17.9118C169.377 17.9118 168.806 17.339 168.806 16.6324C168.806 15.9258 169.377 15.3529 170.081 15.3529C170.784 15.3529 171.355 15.9258 171.355 16.6324Z" fill="#CED6E2"/>
<path d="M179 16.6324C179 17.339 178.43 17.9118 177.726 17.9118C177.022 17.9118 176.452 17.339 176.452 16.6324C176.452 15.9258 177.022 15.3529 177.726 15.3529C178.43 15.3529 179 15.9258 179 16.6324Z" fill="#CED6E2"/>
<path d="M102.548 24.3088C102.548 25.0154 101.978 25.5882 101.274 25.5882C100.57 25.5882 100 25.0154 100 24.3088C100 23.6022 100.57 23.0294 101.274 23.0294C101.978 23.0294 102.548 23.6022 102.548 24.3088Z" fill="#CED6E2"/>
<path d="M110.194 24.3088C110.194 25.0154 109.623 25.5882 108.919 25.5882C108.216 25.5882 107.645 25.0154 107.645 24.3088C107.645 23.6022 108.216 23.0294 108.919 23.0294C109.623 23.0294 110.194 23.6022 110.194 24.3088Z" fill="#CED6E2"/>
<path d="M117.839 24.3088C117.839 25.0154 117.268 25.5882 116.565 25.5882C115.861 25.5882 115.29 25.0154 115.29 24.3088C115.29 23.6022 115.861 23.0294 116.565 23.0294C117.268 23.0294 117.839 23.6022 117.839 24.3088Z" fill="#CED6E2"/>
<path d="M125.484 24.3088C125.484 25.0154 124.913 25.5882 124.21 25.5882C123.506 25.5882 122.935 25.0154 122.935 24.3088C122.935 23.6022 123.506 23.0294 124.21 23.0294C124.913 23.0294 125.484 23.6022 125.484 24.3088Z" fill="#CED6E2"/>
<path d="M133.129 24.3088C133.129 25.0154 132.559 25.5882 131.855 25.5882C131.151 25.5882 130.581 25.0154 130.581 24.3088C130.581 23.6022 131.151 23.0294 131.855 23.0294C132.559 23.0294 133.129 23.6022 133.129 24.3088Z" fill="#CED6E2"/>
<path d="M140.774 24.3088C140.774 25.0154 140.204 25.5882 139.5 25.5882C138.796 25.5882 138.226 25.0154 138.226 24.3088C138.226 23.6022 138.796 23.0294 139.5 23.0294C140.204 23.0294 140.774 23.6022 140.774 24.3088Z" fill="#CED6E2"/>
<path d="M148.419 24.3088C148.419 25.0154 147.849 25.5882 147.145 25.5882C146.441 25.5882 145.871 25.0154 145.871 24.3088C145.871 23.6022 146.441 23.0294 147.145 23.0294C147.849 23.0294 148.419 23.6022 148.419 24.3088Z" fill="#CED6E2"/>
<path d="M156.065 24.3088C156.065 25.0154 155.494 25.5882 154.79 25.5882C154.087 25.5882 153.516 25.0154 153.516 24.3088C153.516 23.6022 154.087 23.0294 154.79 23.0294C155.494 23.0294 156.065 23.6022 156.065 24.3088Z" fill="#CED6E2"/>
<path d="M163.71 24.3088C163.71 25.0154 163.139 25.5882 162.435 25.5882C161.732 25.5882 161.161 25.0154 161.161 24.3088C161.161 23.6022 161.732 23.0294 162.435 23.0294C163.139 23.0294 163.71 23.6022 163.71 24.3088Z" fill="#CED6E2"/>
<path d="M171.355 24.3088C171.355 25.0154 170.784 25.5882 170.081 25.5882C169.377 25.5882 168.806 25.0154 168.806 24.3088C168.806 23.6022 169.377 23.0294 170.081 23.0294C170.784 23.0294 171.355 23.6022 171.355 24.3088Z" fill="#CED6E2"/>
<path d="M179 24.3088C179 25.0154 178.43 25.5882 177.726 25.5882C177.022 25.5882 176.452 25.0154 176.452 24.3088C176.452 23.6022 177.022 23.0294 177.726 23.0294C178.43 23.0294 179 23.6022 179 24.3088Z" fill="#CED6E2"/>
<path d="M102.548 31.9853C102.548 32.6919 101.978 33.2647 101.274 33.2647C100.57 33.2647 100 32.6919 100 31.9853C100 31.2787 100.57 30.7059 101.274 30.7059C101.978 30.7059 102.548 31.2787 102.548 31.9853Z" fill="#CED6E2"/>
<path d="M110.194 31.9853C110.194 32.6919 109.623 33.2647 108.919 33.2647C108.216 33.2647 107.645 32.6919 107.645 31.9853C107.645 31.2787 108.216 30.7059 108.919 30.7059C109.623 30.7059 110.194 31.2787 110.194 31.9853Z" fill="#CED6E2"/>
<path d="M117.839 31.9853C117.839 32.6919 117.268 33.2647 116.565 33.2647C115.861 33.2647 115.29 32.6919 115.29 31.9853C115.29 31.2787 115.861 30.7059 116.565 30.7059C117.268 30.7059 117.839 31.2787 117.839 31.9853Z" fill="#CED6E2"/>
<path d="M125.484 31.9853C125.484 32.6919 124.913 33.2647 124.21 33.2647C123.506 33.2647 122.935 32.6919 122.935 31.9853C122.935 31.2787 123.506 30.7059 124.21 30.7059C124.913 30.7059 125.484 31.2787 125.484 31.9853Z" fill="#CED6E2"/>
<path d="M133.129 31.9853C133.129 32.6919 132.559 33.2647 131.855 33.2647C131.151 33.2647 130.581 32.6919 130.581 31.9853C130.581 31.2787 131.151 30.7059 131.855 30.7059C132.559 30.7059 133.129 31.2787 133.129 31.9853Z" fill="#CED6E2"/>
<path d="M140.774 31.9853C140.774 32.6919 140.204 33.2647 139.5 33.2647C138.796 33.2647 138.226 32.6919 138.226 31.9853C138.226 31.2787 138.796 30.7059 139.5 30.7059C140.204 30.7059 140.774 31.2787 140.774 31.9853Z" fill="#CED6E2"/>
<path d="M148.419 31.9853C148.419 32.6919 147.849 33.2647 147.145 33.2647C146.441 33.2647 145.871 32.6919 145.871 31.9853C145.871 31.2787 146.441 30.7059 147.145 30.7059C147.849 30.7059 148.419 31.2787 148.419 31.9853Z" fill="#CED6E2"/>
<path d="M156.065 31.9853C156.065 32.6919 155.494 33.2647 154.79 33.2647C154.087 33.2647 153.516 32.6919 153.516 31.9853C153.516 31.2787 154.087 30.7059 154.79 30.7059C155.494 30.7059 156.065 31.2787 156.065 31.9853Z" fill="#CED6E2"/>
<path d="M163.71 31.9853C163.71 32.6919 163.139 33.2647 162.435 33.2647C161.732 33.2647 161.161 32.6919 161.161 31.9853C161.161 31.2787 161.732 30.7059 162.435 30.7059C163.139 30.7059 163.71 31.2787 163.71 31.9853Z" fill="#CED6E2"/>
<path d="M171.355 31.9853C171.355 32.6919 170.784 33.2647 170.081 33.2647C169.377 33.2647 168.806 32.6919 168.806 31.9853C168.806 31.2787 169.377 30.7059 170.081 30.7059C170.784 30.7059 171.355 31.2787 171.355 31.9853Z" fill="#CED6E2"/>
<path d="M179 31.9853C179 32.6919 178.43 33.2647 177.726 33.2647C177.022 33.2647 176.452 32.6919 176.452 31.9853C176.452 31.2787 177.022 30.7059 177.726 30.7059C178.43 30.7059 179 31.2787 179 31.9853Z" fill="#CED6E2"/>
<path d="M102.548 39.6618C102.548 40.3684 101.978 40.9412 101.274 40.9412C100.57 40.9412 100 40.3684 100 39.6618C100 38.9552 100.57 38.3824 101.274 38.3824C101.978 38.3824 102.548 38.9552 102.548 39.6618Z" fill="#CED6E2"/>
<path d="M110.194 39.6618C110.194 40.3684 109.623 40.9412 108.919 40.9412C108.216 40.9412 107.645 40.3684 107.645 39.6618C107.645 38.9552 108.216 38.3824 108.919 38.3824C109.623 38.3824 110.194 38.9552 110.194 39.6618Z" fill="#CED6E2"/>
<path d="M117.839 39.6618C117.839 40.3684 117.268 40.9412 116.565 40.9412C115.861 40.9412 115.29 40.3684 115.29 39.6618C115.29 38.9552 115.861 38.3824 116.565 38.3824C117.268 38.3824 117.839 38.9552 117.839 39.6618Z" fill="#CED6E2"/>
<path d="M125.484 39.6618C125.484 40.3684 124.913 40.9412 124.21 40.9412C123.506 40.9412 122.935 40.3684 122.935 39.6618C122.935 38.9552 123.506 38.3824 124.21 38.3824C124.913 38.3824 125.484 38.9552 125.484 39.6618Z" fill="#CED6E2"/>
<path d="M133.129 39.6618C133.129 40.3684 132.559 40.9412 131.855 40.9412C131.151 40.9412 130.581 40.3684 130.581 39.6618C130.581 38.9552 131.151 38.3824 131.855 38.3824C132.559 38.3824 133.129 38.9552 133.129 39.6618Z" fill="#CED6E2"/>
<path d="M140.774 39.6618C140.774 40.3684 140.204 40.9412 139.5 40.9412C138.796 40.9412 138.226 40.3684 138.226 39.6618C138.226 38.9552 138.796 38.3824 139.5 38.3824C140.204 38.3824 140.774 38.9552 140.774 39.6618Z" fill="#CED6E2"/>
<path d="M148.419 39.6618C148.419 40.3684 147.849 40.9412 147.145 40.9412C146.441 40.9412 145.871 40.3684 145.871 39.6618C145.871 38.9552 146.441 38.3824 147.145 38.3824C147.849 38.3824 148.419 38.9552 148.419 39.6618Z" fill="#CED6E2"/>
<path d="M156.065 39.6618C156.065 40.3684 155.494 40.9412 154.79 40.9412C154.087 40.9412 153.516 40.3684 153.516 39.6618C153.516 38.9552 154.087 38.3824 154.79 38.3824C155.494 38.3824 156.065 38.9552 156.065 39.6618Z" fill="#CED6E2"/>
<path d="M163.71 39.6618C163.71 40.3684 163.139 40.9412 162.435 40.9412C161.732 40.9412 161.161 40.3684 161.161 39.6618C161.161 38.9552 161.732 38.3824 162.435 38.3824C163.139 38.3824 163.71 38.9552 163.71 39.6618Z" fill="#CED6E2"/>
<path d="M171.355 39.6618C171.355 40.3684 170.784 40.9412 170.081 40.9412C169.377 40.9412 168.806 40.3684 168.806 39.6618C168.806 38.9552 169.377 38.3824 170.081 38.3824C170.784 38.3824 171.355 38.9552 171.355 39.6618Z" fill="#CED6E2"/>
<path d="M179 39.6618C179 40.3684 178.43 40.9412 177.726 40.9412C177.022 40.9412 176.452 40.3684 176.452 39.6618C176.452 38.9552 177.022 38.3824 177.726 38.3824C178.43 38.3824 179 38.9552 179 39.6618Z" fill="#CED6E2"/>
<path d="M102.548 47.3382C102.548 48.0448 101.978 48.6176 101.274 48.6176C100.57 48.6176 100 48.0448 100 47.3382C100 46.6316 100.57 46.0588 101.274 46.0588C101.978 46.0588 102.548 46.6316 102.548 47.3382Z" fill="#CED6E2"/>
<path d="M110.194 47.3382C110.194 48.0448 109.623 48.6176 108.919 48.6176C108.216 48.6176 107.645 48.0448 107.645 47.3382C107.645 46.6316 108.216 46.0588 108.919 46.0588C109.623 46.0588 110.194 46.6316 110.194 47.3382Z" fill="#CED6E2"/>
<path d="M117.839 47.3382C117.839 48.0448 117.268 48.6176 116.565 48.6176C115.861 48.6176 115.29 48.0448 115.29 47.3382C115.29 46.6316 115.861 46.0588 116.565 46.0588C117.268 46.0588 117.839 46.6316 117.839 47.3382Z" fill="#CED6E2"/>
<path d="M125.484 47.3382C125.484 48.0448 124.913 48.6176 124.21 48.6176C123.506 48.6176 122.935 48.0448 122.935 47.3382C122.935 46.6316 123.506 46.0588 124.21 46.0588C124.913 46.0588 125.484 46.6316 125.484 47.3382Z" fill="#CED6E2"/>
<path d="M133.129 47.3382C133.129 48.0448 132.559 48.6176 131.855 48.6176C131.151 48.6176 130.581 48.0448 130.581 47.3382C130.581 46.6316 131.151 46.0588 131.855 46.0588C132.559 46.0588 133.129 46.6316 133.129 47.3382Z" fill="#CED6E2"/>
<path d="M140.774 47.3382C140.774 48.0448 140.204 48.6176 139.5 48.6176C138.796 48.6176 138.226 48.0448 138.226 47.3382C138.226 46.6316 138.796 46.0588 139.5 46.0588C140.204 46.0588 140.774 46.6316 140.774 47.3382Z" fill="#CED6E2"/>
<path d="M148.419 47.3382C148.419 48.0448 147.849 48.6176 147.145 48.6176C146.441 48.6176 145.871 48.0448 145.871 47.3382C145.871 46.6316 146.441 46.0588 147.145 46.0588C147.849 46.0588 148.419 46.6316 148.419 47.3382Z" fill="#CED6E2"/>
<path d="M156.065 47.3382C156.065 48.0448 155.494 48.6176 154.79 48.6176C154.087 48.6176 153.516 48.0448 153.516 47.3382C153.516 46.6316 154.087 46.0588 154.79 46.0588C155.494 46.0588 156.065 46.6316 156.065 47.3382Z" fill="#CED6E2"/>
<path d="M163.71 47.3382C163.71 48.0448 163.139 48.6176 162.435 48.6176C161.732 48.6176 161.161 48.0448 161.161 47.3382C161.161 46.6316 161.732 46.0588 162.435 46.0588C163.139 46.0588 163.71 46.6316 163.71 47.3382Z" fill="#CED6E2"/>
<path d="M171.355 47.3382C171.355 48.0448 170.784 48.6176 170.081 48.6176C169.377 48.6176 168.806 48.0448 168.806 47.3382C168.806 46.6316 169.377 46.0588 170.081 46.0588C170.784 46.0588 171.355 46.6316 171.355 47.3382Z" fill="#CED6E2"/>
<path d="M179 47.3382C179 48.0448 178.43 48.6176 177.726 48.6176C177.022 48.6176 176.452 48.0448 176.452 47.3382C176.452 46.6316 177.022 46.0588 177.726 46.0588C178.43 46.0588 179 46.6316 179 47.3382Z" fill="#CED6E2"/>
<path d="M102.548 55.0147C102.548 55.7213 101.978 56.2941 101.274 56.2941C100.57 56.2941 100 55.7213 100 55.0147C100 54.3081 100.57 53.7353 101.274 53.7353C101.978 53.7353 102.548 54.3081 102.548 55.0147Z" fill="#CED6E2"/>
<path d="M110.194 55.0147C110.194 55.7213 109.623 56.2941 108.919 56.2941C108.216 56.2941 107.645 55.7213 107.645 55.0147C107.645 54.3081 108.216 53.7353 108.919 53.7353C109.623 53.7353 110.194 54.3081 110.194 55.0147Z" fill="#CED6E2"/>
<path d="M117.839 55.0147C117.839 55.7213 117.268 56.2941 116.565 56.2941C115.861 56.2941 115.29 55.7213 115.29 55.0147C115.29 54.3081 115.861 53.7353 116.565 53.7353C117.268 53.7353 117.839 54.3081 117.839 55.0147Z" fill="#CED6E2"/>
<path d="M125.484 55.0147C125.484 55.7213 124.913 56.2941 124.21 56.2941C123.506 56.2941 122.935 55.7213 122.935 55.0147C122.935 54.3081 123.506 53.7353 124.21 53.7353C124.913 53.7353 125.484 54.3081 125.484 55.0147Z" fill="#CED6E2"/>
<path d="M133.129 55.0147C133.129 55.7213 132.559 56.2941 131.855 56.2941C131.151 56.2941 130.581 55.7213 130.581 55.0147C130.581 54.3081 131.151 53.7353 131.855 53.7353C132.559 53.7353 133.129 54.3081 133.129 55.0147Z" fill="#CED6E2"/>
<path d="M140.774 55.0147C140.774 55.7213 140.204 56.2941 139.5 56.2941C138.796 56.2941 138.226 55.7213 138.226 55.0147C138.226 54.3081 138.796 53.7353 139.5 53.7353C140.204 53.7353 140.774 54.3081 140.774 55.0147Z" fill="#CED6E2"/>
<path d="M148.419 55.0147C148.419 55.7213 147.849 56.2941 147.145 56.2941C146.441 56.2941 145.871 55.7213 145.871 55.0147C145.871 54.3081 146.441 53.7353 147.145 53.7353C147.849 53.7353 148.419 54.3081 148.419 55.0147Z" fill="#CED6E2"/>
<path d="M156.065 55.0147C156.065 55.7213 155.494 56.2941 154.79 56.2941C154.087 56.2941 153.516 55.7213 153.516 55.0147C153.516 54.3081 154.087 53.7353 154.79 53.7353C155.494 53.7353 156.065 54.3081 156.065 55.0147Z" fill="#CED6E2"/>
<path d="M163.71 55.0147C163.71 55.7213 163.139 56.2941 162.435 56.2941C161.732 56.2941 161.161 55.7213 161.161 55.0147C161.161 54.3081 161.732 53.7353 162.435 53.7353C163.139 53.7353 163.71 54.3081 163.71 55.0147Z" fill="#CED6E2"/>
<path d="M171.355 55.0147C171.355 55.7213 170.784 56.2941 170.081 56.2941C169.377 56.2941 168.806 55.7213 168.806 55.0147C168.806 54.3081 169.377 53.7353 170.081 53.7353C170.784 53.7353 171.355 54.3081 171.355 55.0147Z" fill="#CED6E2"/>
<path d="M179 55.0147C179 55.7213 178.43 56.2941 177.726 56.2941C177.022 56.2941 176.452 55.7213 176.452 55.0147C176.452 54.3081 177.022 53.7353 177.726 53.7353C178.43 53.7353 179 54.3081 179 55.0147Z" fill="#CED6E2"/>
<path d="M102.548 62.6912C102.548 63.3978 101.978 63.9706 101.274 63.9706C100.57 63.9706 100 63.3978 100 62.6912C100 61.9846 100.57 61.4118 101.274 61.4118C101.978 61.4118 102.548 61.9846 102.548 62.6912Z" fill="#CED6E2"/>
<path d="M110.194 62.6912C110.194 63.3978 109.623 63.9706 108.919 63.9706C108.216 63.9706 107.645 63.3978 107.645 62.6912C107.645 61.9846 108.216 61.4118 108.919 61.4118C109.623 61.4118 110.194 61.9846 110.194 62.6912Z" fill="#CED6E2"/>
<path d="M117.839 62.6912C117.839 63.3978 117.268 63.9706 116.565 63.9706C115.861 63.9706 115.29 63.3978 115.29 62.6912C115.29 61.9846 115.861 61.4118 116.565 61.4118C117.268 61.4118 117.839 61.9846 117.839 62.6912Z" fill="#CED6E2"/>
<path d="M125.484 62.6912C125.484 63.3978 124.913 63.9706 124.21 63.9706C123.506 63.9706 122.935 63.3978 122.935 62.6912C122.935 61.9846 123.506 61.4118 124.21 61.4118C124.913 61.4118 125.484 61.9846 125.484 62.6912Z" fill="#CED6E2"/>
<path d="M133.129 62.6912C133.129 63.3978 132.559 63.9706 131.855 63.9706C131.151 63.9706 130.581 63.3978 130.581 62.6912C130.581 61.9846 131.151 61.4118 131.855 61.4118C132.559 61.4118 133.129 61.9846 133.129 62.6912Z" fill="#CED6E2"/>
<path d="M140.774 62.6912C140.774 63.3978 140.204 63.9706 139.5 63.9706C138.796 63.9706 138.226 63.3978 138.226 62.6912C138.226 61.9846 138.796 61.4118 139.5 61.4118C140.204 61.4118 140.774 61.9846 140.774 62.6912Z" fill="#CED6E2"/>
<path d="M148.419 62.6912C148.419 63.3978 147.849 63.9706 147.145 63.9706C146.441 63.9706 145.871 63.3978 145.871 62.6912C145.871 61.9846 146.441 61.4118 147.145 61.4118C147.849 61.4118 148.419 61.9846 148.419 62.6912Z" fill="#CED6E2"/>
<path d="M156.065 62.6912C156.065 63.3978 155.494 63.9706 154.79 63.9706C154.087 63.9706 153.516 63.3978 153.516 62.6912C153.516 61.9846 154.087 61.4118 154.79 61.4118C155.494 61.4118 156.065 61.9846 156.065 62.6912Z" fill="#CED6E2"/>
<path d="M163.71 62.6912C163.71 63.3978 163.139 63.9706 162.435 63.9706C161.732 63.9706 161.161 63.3978 161.161 62.6912C161.161 61.9846 161.732 61.4118 162.435 61.4118C163.139 61.4118 163.71 61.9846 163.71 62.6912Z" fill="#CED6E2"/>
<path d="M171.355 62.6912C171.355 63.3978 170.784 63.9706 170.081 63.9706C169.377 63.9706 168.806 63.3978 168.806 62.6912C168.806 61.9846 169.377 61.4118 170.081 61.4118C170.784 61.4118 171.355 61.9846 171.355 62.6912Z" fill="#CED6E2"/>
<path d="M179 62.6912C179 63.3978 178.43 63.9706 177.726 63.9706C177.022 63.9706 176.452 63.3978 176.452 62.6912C176.452 61.9846 177.022 61.4118 177.726 61.4118C178.43 61.4118 179 61.9846 179 62.6912Z" fill="#CED6E2"/>
<path d="M102.548 70.3676C102.548 71.0742 101.978 71.6471 101.274 71.6471C100.57 71.6471 100 71.0742 100 70.3676C100 69.661 100.57 69.0882 101.274 69.0882C101.978 69.0882 102.548 69.661 102.548 70.3676Z" fill="#CED6E2"/>
<path d="M110.194 70.3676C110.194 71.0742 109.623 71.6471 108.919 71.6471C108.216 71.6471 107.645 71.0742 107.645 70.3676C107.645 69.661 108.216 69.0882 108.919 69.0882C109.623 69.0882 110.194 69.661 110.194 70.3676Z" fill="#CED6E2"/>
<path d="M117.839 70.3676C117.839 71.0742 117.268 71.6471 116.565 71.6471C115.861 71.6471 115.29 71.0742 115.29 70.3676C115.29 69.661 115.861 69.0882 116.565 69.0882C117.268 69.0882 117.839 69.661 117.839 70.3676Z" fill="#CED6E2"/>
<path d="M125.484 70.3676C125.484 71.0742 124.913 71.6471 124.21 71.6471C123.506 71.6471 122.935 71.0742 122.935 70.3676C122.935 69.661 123.506 69.0882 124.21 69.0882C124.913 69.0882 125.484 69.661 125.484 70.3676Z" fill="#CED6E2"/>
<path d="M133.129 70.3676C133.129 71.0742 132.559 71.6471 131.855 71.6471C131.151 71.6471 130.581 71.0742 130.581 70.3676C130.581 69.661 131.151 69.0882 131.855 69.0882C132.559 69.0882 133.129 69.661 133.129 70.3676Z" fill="#CED6E2"/>
<path d="M140.774 70.3676C140.774 71.0742 140.204 71.6471 139.5 71.6471C138.796 71.6471 138.226 71.0742 138.226 70.3676C138.226 69.661 138.796 69.0882 139.5 69.0882C140.204 69.0882 140.774 69.661 140.774 70.3676Z" fill="#CED6E2"/>
<path d="M148.419 70.3676C148.419 71.0742 147.849 71.6471 147.145 71.6471C146.441 71.6471 145.871 71.0742 145.871 70.3676C145.871 69.661 146.441 69.0882 147.145 69.0882C147.849 69.0882 148.419 69.661 148.419 70.3676Z" fill="#CED6E2"/>
<path d="M156.065 70.3676C156.065 71.0742 155.494 71.6471 154.79 71.6471C154.087 71.6471 153.516 71.0742 153.516 70.3676C153.516 69.661 154.087 69.0882 154.79 69.0882C155.494 69.0882 156.065 69.661 156.065 70.3676Z" fill="#CED6E2"/>
<path d="M163.71 70.3676C163.71 71.0742 163.139 71.6471 162.435 71.6471C161.732 71.6471 161.161 71.0742 161.161 70.3676C161.161 69.661 161.732 69.0882 162.435 69.0882C163.139 69.0882 163.71 69.661 163.71 70.3676Z" fill="#CED6E2"/>
<path d="M171.355 70.3676C171.355 71.0742 170.784 71.6471 170.081 71.6471C169.377 71.6471 168.806 71.0742 168.806 70.3676C168.806 69.661 169.377 69.0882 170.081 69.0882C170.784 69.0882 171.355 69.661 171.355 70.3676Z" fill="#CED6E2"/>
<path d="M179 70.3676C179 71.0742 178.43 71.6471 177.726 71.6471C177.022 71.6471 176.452 71.0742 176.452 70.3676C176.452 69.661 177.022 69.0882 177.726 69.0882C178.43 69.0882 179 69.661 179 70.3676Z" fill="#CED6E2"/>
<path d="M102.548 78.0441C102.548 78.7507 101.978 79.3235 101.274 79.3235C100.57 79.3235 100 78.7507 100 78.0441C100 77.3375 100.57 76.7647 101.274 76.7647C101.978 76.7647 102.548 77.3375 102.548 78.0441Z" fill="#CED6E2"/>
<path d="M110.194 78.0441C110.194 78.7507 109.623 79.3235 108.919 79.3235C108.216 79.3235 107.645 78.7507 107.645 78.0441C107.645 77.3375 108.216 76.7647 108.919 76.7647C109.623 76.7647 110.194 77.3375 110.194 78.0441Z" fill="#CED6E2"/>
<path d="M117.839 78.0441C117.839 78.7507 117.268 79.3235 116.565 79.3235C115.861 79.3235 115.29 78.7507 115.29 78.0441C115.29 77.3375 115.861 76.7647 116.565 76.7647C117.268 76.7647 117.839 77.3375 117.839 78.0441Z" fill="#CED6E2"/>
<path d="M125.484 78.0441C125.484 78.7507 124.913 79.3235 124.21 79.3235C123.506 79.3235 122.935 78.7507 122.935 78.0441C122.935 77.3375 123.506 76.7647 124.21 76.7647C124.913 76.7647 125.484 77.3375 125.484 78.0441Z" fill="#CED6E2"/>
<path d="M133.129 78.0441C133.129 78.7507 132.559 79.3235 131.855 79.3235C131.151 79.3235 130.581 78.7507 130.581 78.0441C130.581 77.3375 131.151 76.7647 131.855 76.7647C132.559 76.7647 133.129 77.3375 133.129 78.0441Z" fill="#CED6E2"/>
<path d="M140.774 78.0441C140.774 78.7507 140.204 79.3235 139.5 79.3235C138.796 79.3235 138.226 78.7507 138.226 78.0441C138.226 77.3375 138.796 76.7647 139.5 76.7647C140.204 76.7647 140.774 77.3375 140.774 78.0441Z" fill="#CED6E2"/>
<path d="M148.419 78.0441C148.419 78.7507 147.849 79.3235 147.145 79.3235C146.441 79.3235 145.871 78.7507 145.871 78.0441C145.871 77.3375 146.441 76.7647 147.145 76.7647C147.849 76.7647 148.419 77.3375 148.419 78.0441Z" fill="#CED6E2"/>
<path d="M156.065 78.0441C156.065 78.7507 155.494 79.3235 154.79 79.3235C154.087 79.3235 153.516 78.7507 153.516 78.0441C153.516 77.3375 154.087 76.7647 154.79 76.7647C155.494 76.7647 156.065 77.3375 156.065 78.0441Z" fill="#CED6E2"/>
<path d="M163.71 78.0441C163.71 78.7507 163.139 79.3235 162.435 79.3235C161.732 79.3235 161.161 78.7507 161.161 78.0441C161.161 77.3375 161.732 76.7647 162.435 76.7647C163.139 76.7647 163.71 77.3375 163.71 78.0441Z" fill="#CED6E2"/>
<path d="M171.355 78.0441C171.355 78.7507 170.784 79.3235 170.081 79.3235C169.377 79.3235 168.806 78.7507 168.806 78.0441C168.806 77.3375 169.377 76.7647 170.081 76.7647C170.784 76.7647 171.355 77.3375 171.355 78.0441Z" fill="#CED6E2"/>
<path d="M179 78.0441C179 78.7507 178.43 79.3235 177.726 79.3235C177.022 79.3235 176.452 78.7507 176.452 78.0441C176.452 77.3375 177.022 76.7647 177.726 76.7647C178.43 76.7647 179 77.3375 179 78.0441Z" fill="#CED6E2"/>
<path d="M102.548 85.7206C102.548 86.4272 101.978 87 101.274 87C100.57 87 100 86.4272 100 85.7206C100 85.014 100.57 84.4412 101.274 84.4412C101.978 84.4412 102.548 85.014 102.548 85.7206Z" fill="#CED6E2"/>
<path d="M110.194 85.7206C110.194 86.4272 109.623 87 108.919 87C108.216 87 107.645 86.4272 107.645 85.7206C107.645 85.014 108.216 84.4412 108.919 84.4412C109.623 84.4412 110.194 85.014 110.194 85.7206Z" fill="#CED6E2"/>
<path d="M117.839 85.7206C117.839 86.4272 117.268 87 116.565 87C115.861 87 115.29 86.4272 115.29 85.7206C115.29 85.014 115.861 84.4412 116.565 84.4412C117.268 84.4412 117.839 85.014 117.839 85.7206Z" fill="#CED6E2"/>
<path d="M125.484 85.7206C125.484 86.4272 124.913 87 124.21 87C123.506 87 122.935 86.4272 122.935 85.7206C122.935 85.014 123.506 84.4412 124.21 84.4412C124.913 84.4412 125.484 85.014 125.484 85.7206Z" fill="#CED6E2"/>
<path d="M133.129 85.7206C133.129 86.4272 132.559 87 131.855 87C131.151 87 130.581 86.4272 130.581 85.7206C130.581 85.014 131.151 84.4412 131.855 84.4412C132.559 84.4412 133.129 85.014 133.129 85.7206Z" fill="#CED6E2"/>
<path d="M140.774 85.7206C140.774 86.4272 140.204 87 139.5 87C138.796 87 138.226 86.4272 138.226 85.7206C138.226 85.014 138.796 84.4412 139.5 84.4412C140.204 84.4412 140.774 85.014 140.774 85.7206Z" fill="#CED6E2"/>
<path d="M148.419 85.7206C148.419 86.4272 147.849 87 147.145 87C146.441 87 145.871 86.4272 145.871 85.7206C145.871 85.014 146.441 84.4412 147.145 84.4412C147.849 84.4412 148.419 85.014 148.419 85.7206Z" fill="#CED6E2"/>
<path d="M156.065 85.7206C156.065 86.4272 155.494 87 154.79 87C154.087 87 153.516 86.4272 153.516 85.7206C153.516 85.014 154.087 84.4412 154.79 84.4412C155.494 84.4412 156.065 85.014 156.065 85.7206Z" fill="#CED6E2"/>
<path d="M163.71 85.7206C163.71 86.4272 163.139 87 162.435 87C161.732 87 161.161 86.4272 161.161 85.7206C161.161 85.014 161.732 84.4412 162.435 84.4412C163.139 84.4412 163.71 85.014 163.71 85.7206Z" fill="#CED6E2"/>
<path d="M171.355 85.7206C171.355 86.4272 170.784 87 170.081 87C169.377 87 168.806 86.4272 168.806 85.7206C168.806 85.014 169.377 84.4412 170.081 84.4412C170.784 84.4412 171.355 85.014 171.355 85.7206Z" fill="#CED6E2"/>
<path d="M179 85.7206C179 86.4272 178.43 87 177.726 87C177.022 87 176.452 86.4272 176.452 85.7206C176.452 85.014 177.022 84.4412 177.726 84.4412C178.43 84.4412 179 85.014 179 85.7206Z" fill="#CED6E2"/>
<path d="M94.5484 1.27941C94.5484 1.98601 93.9779 2.55882 93.2742 2.55882C92.5705 2.55882 92 1.98601 92 1.27941C92 0.572812 92.5705 0 93.2742 0C93.9779 0 94.5484 0.572812 94.5484 1.27941Z" fill="#CED6E2"/>
<path d="M94.5484 8.95588C94.5484 9.66248 93.9779 10.2353 93.2742 10.2353C92.5705 10.2353 92 9.66248 92 8.95588C92 8.24928 92.5705 7.67647 93.2742 7.67647C93.9779 7.67647 94.5484 8.24928 94.5484 8.95588Z" fill="#CED6E2"/>
<path d="M94.5484 16.6324C94.5484 17.339 93.9779 17.9118 93.2742 17.9118C92.5705 17.9118 92 17.339 92 16.6324C92 15.9258 92.5705 15.3529 93.2742 15.3529C93.9779 15.3529 94.5484 15.9258 94.5484 16.6324Z" fill="#CED6E2"/>
<path d="M94.5484 24.3088C94.5484 25.0154 93.9779 25.5882 93.2742 25.5882C92.5705 25.5882 92 25.0154 92 24.3088C92 23.6022 92.5705 23.0294 93.2742 23.0294C93.9779 23.0294 94.5484 23.6022 94.5484 24.3088Z" fill="#CED6E2"/>
<path d="M94.5484 31.9853C94.5484 32.6919 93.9779 33.2647 93.2742 33.2647C92.5705 33.2647 92 32.6919 92 31.9853C92 31.2787 92.5705 30.7059 93.2742 30.7059C93.9779 30.7059 94.5484 31.2787 94.5484 31.9853Z" fill="#CED6E2"/>
<path d="M94.5484 39.6618C94.5484 40.3684 93.9779 40.9412 93.2742 40.9412C92.5705 40.9412 92 40.3684 92 39.6618C92 38.9552 92.5705 38.3824 93.2742 38.3824C93.9779 38.3824 94.5484 38.9552 94.5484 39.6618Z" fill="#CED6E2"/>
<path d="M94.5484 47.3382C94.5484 48.0448 93.9779 48.6176 93.2742 48.6176C92.5705 48.6176 92 48.0448 92 47.3382C92 46.6316 92.5705 46.0588 93.2742 46.0588C93.9779 46.0588 94.5484 46.6316 94.5484 47.3382Z" fill="#CED6E2"/>
<path d="M94.5484 55.0147C94.5484 55.7213 93.9779 56.2941 93.2742 56.2941C92.5705 56.2941 92 55.7213 92 55.0147C92 54.3081 92.5705 53.7353 93.2742 53.7353C93.9779 53.7353 94.5484 54.3081 94.5484 55.0147Z" fill="#CED6E2"/>
<path d="M94.5484 62.6912C94.5484 63.3978 93.9779 63.9706 93.2742 63.9706C92.5705 63.9706 92 63.3978 92 62.6912C92 61.9846 92.5705 61.4118 93.2742 61.4118C93.9779 61.4118 94.5484 61.9846 94.5484 62.6912Z" fill="#CED6E2"/>
<path d="M94.5484 70.3676C94.5484 71.0742 93.9779 71.6471 93.2742 71.6471C92.5705 71.6471 92 71.0742 92 70.3676C92 69.661 92.5705 69.0882 93.2742 69.0882C93.9779 69.0882 94.5484 69.661 94.5484 70.3676Z" fill="#CED6E2"/>
<path d="M94.5484 78.0441C94.5484 78.7507 93.9779 79.3235 93.2742 79.3235C92.5705 79.3235 92 78.7507 92 78.0441C92 77.3375 92.5705 76.7647 93.2742 76.7647C93.9779 76.7647 94.5484 77.3375 94.5484 78.0441Z" fill="#CED6E2"/>
<path d="M94.5484 85.7206C94.5484 86.4272 93.9779 87 93.2742 87C92.5705 87 92 86.4272 92 85.7206C92 85.014 92.5705 84.4412 93.2742 84.4412C93.9779 84.4412 94.5484 85.014 94.5484 85.7206Z" fill="#CED6E2"/>
</svg>
