<svg width="24" height="25" viewBox="0 0 24 25" fill="none" xmlns="http://www.w3.org/2000/svg">
<path fill-rule="evenodd" clip-rule="evenodd" d="M4.5 3.46875C3.67157 3.46875 3 4.14032 3 4.96875V19.9688C3 20.7971 3.67157 21.4688 4.5 21.4688H19.5C20.3284 21.4688 21 20.7971 21 19.9688V4.96875C21 4.14032 20.3284 3.46875 19.5 3.46875H4.5ZM8.52076 7.47147C8.52639 8.42772 7.81061 9.01694 6.96123 9.01272C6.16107 9.0085 5.46357 8.37147 5.46779 7.47288C5.47201 6.62772 6.13998 5.9485 7.00764 5.96819C7.88795 5.98788 8.52639 6.63335 8.52076 7.47147ZM12.2797 10.2305H9.75971H9.7583V18.7903H12.4217V18.5907C12.4217 18.2108 12.4214 17.8307 12.4211 17.4506C12.4203 16.4368 12.4194 15.422 12.4246 14.4085C12.426 14.1623 12.4372 13.9065 12.5005 13.6715C12.7381 12.7941 13.5271 12.2273 14.4074 12.3666C14.9727 12.4551 15.3467 12.7829 15.5042 13.3159C15.6013 13.6491 15.6449 14.0077 15.6491 14.3551C15.6605 15.4026 15.6589 16.4502 15.6573 17.4979C15.6567 17.8677 15.6561 18.2378 15.6561 18.6075V18.7889H18.328V18.5837C18.328 18.1317 18.3278 17.6798 18.3275 17.2278C18.327 16.0983 18.3264 14.9689 18.3294 13.839C18.3308 13.3285 18.276 12.8251 18.1508 12.3315C17.9638 11.5974 17.5771 10.9899 16.9485 10.5512C16.5027 10.2389 16.0133 10.0379 15.4663 10.0154C15.404 10.0128 15.3412 10.0094 15.2781 10.006C14.9984 9.99084 14.7141 9.97548 14.4467 10.0294C13.6817 10.1827 13.0096 10.5329 12.5019 11.1502C12.4429 11.221 12.3852 11.2929 12.2991 11.4002L12.2797 11.4244V10.2305ZM5.68164 18.7931H8.33242V10.2361H5.68164V18.7931Z" fill="#627AA1"/>
</svg>
