<svg width="88" height="35" viewBox="0 0 88 35" fill="none" xmlns="http://www.w3.org/2000/svg">
<path d="M1.08594 5.20312V29.0979H37.3591L45.3678 5.20312H1.08594ZM37.0474 28.6372H1.55337V5.66382H44.7446L37.0474 28.6372Z" fill="#627AA1"/>
<path d="M0.621094 4.75V29.5661H37.7044L46.0248 4.75H0.621094ZM1.55597 28.6447V5.67139H44.7472L37.05 28.6447H1.55597Z" fill="#627AA1"/>
<path d="M44.7459 5.67188L37.0487 28.6452H1.55469V5.67188H44.7459Z" fill="#627AA1"/>
<g opacity="0.2">
<path d="M8.35938 22.8449V12.4332H11.7249V13.7539C12.4105 12.9246 13.7505 12.1875 15.0281 12.1875V15.3817C14.8412 15.3202 14.5607 15.2895 14.1868 15.2895C13.3142 15.2895 12.1612 15.6581 11.7249 16.2723V22.8449H8.35938Z" fill="#627AA1"/>
<path d="M15.9922 17.6237C15.9922 14.706 18.1424 12.1875 21.7261 12.1875C25.3409 12.1875 27.4911 14.706 27.4911 17.6237C27.4911 20.5414 25.3409 23.0906 21.7261 23.0906C18.1424 23.0906 15.9922 20.5414 15.9922 17.6237ZM24.0321 17.6237C24.0321 16.2416 23.1907 15.1052 21.7261 15.1052C20.2614 15.1052 19.4512 16.2416 19.4512 17.6237C19.4512 19.0058 20.2614 20.1729 21.7261 20.1729C23.2219 20.1729 24.0321 19.0365 24.0321 17.6237Z" fill="#627AA1"/>
<path d="M32.1016 22.8492L27.957 12.4375H31.4784L33.8467 19.0101L36.2462 12.4375H39.7988L35.6542 22.8185H32.1016V22.8492Z" fill="#627AA1"/>
<path d="M47.6523 22.8449V12.4332H51.0179V13.7539C51.7035 12.9246 53.0434 12.1875 54.3211 12.1875V15.3817C54.1341 15.3202 53.8537 15.2895 53.4797 15.2895C52.6072 15.2895 51.4542 15.6581 51.0179 16.2723V22.8449H47.6523Z" fill="#627AA1"/>
<path d="M60.8866 12.1875C64.0028 12.1875 66.2777 14.4603 66.2777 17.9615V18.6679H58.7675C58.9545 19.6508 59.8894 20.5107 61.4475 20.5107C62.3824 20.5107 63.4419 20.1422 64.034 19.62L65.4363 21.6778C64.3768 22.5992 62.6317 23.0599 61.0424 23.0599C57.8015 23.0599 55.2773 20.9714 55.2773 17.593C55.2773 14.6138 57.5834 12.1875 60.8866 12.1875ZM58.7364 16.518H63.068C62.9745 15.7809 62.4447 14.7367 60.8866 14.7367C59.422 14.7367 58.861 15.7809 58.7364 16.518Z" fill="#627AA1"/>
<path d="M75.2221 22.8522V16.8324C75.2221 15.5732 74.5366 15.1125 73.5082 15.1125C72.511 15.1125 71.8566 15.6653 71.4515 16.126V22.8215H68.0859V12.4405H71.4515V13.6997C72.0747 12.9626 73.3212 12.1641 75.0975 12.1641C77.497 12.1641 78.5877 13.5461 78.5877 15.4504V22.7908H75.2221V22.8522Z" fill="#627AA1"/>
</g>
<path d="M46.7169 0.487347L36.0898 33.3828L36.9807 33.6624L47.6078 0.766897L46.7169 0.487347Z" fill="#627AA1"/>
<path d="M8.01953 22.447V12.066H11.3851V13.3867C12.0707 12.5574 13.4106 11.8203 14.6883 11.8203V15.0145C14.5013 14.953 14.2209 14.9223 13.8469 14.9223C12.9744 14.9223 11.8214 15.2909 11.3851 15.9051V22.4777H8.01953V22.447Z" fill="#F4F8FD"/>
<path d="M15.6523 17.2331C15.6523 14.3153 17.8026 11.7969 21.3862 11.7969C25.0011 11.7969 27.1513 14.3153 27.1513 17.2331C27.1513 20.1508 25.0011 22.7 21.3862 22.7C17.8026 22.7 15.6523 20.1815 15.6523 17.2331ZM23.6923 17.2331C23.6923 15.851 22.8509 14.7146 21.3862 14.7146C19.9216 14.7146 19.1114 15.851 19.1114 17.2331C19.1114 18.6152 19.9216 19.7823 21.3862 19.7823C22.882 19.7823 23.6923 18.6459 23.6923 17.2331Z" fill="#F4F8FD"/>
<path d="M31.7618 22.4513L27.6172 12.0703H31.1697L33.5381 18.6429L35.9376 12.0703H39.4901L35.3455 22.4513H31.7618Z" fill="#F4F8FD"/>
<path d="M47.3125 22.447V12.066H50.678V13.3867C51.3636 12.5574 52.7036 11.8203 53.9813 11.8203V15.0145C53.7943 14.953 53.5138 14.9223 53.1399 14.9223C52.2673 14.9223 51.1143 15.2909 50.678 15.9051V22.4777H47.3125V22.447Z" fill="#627AA1"/>
<path d="M60.551 11.7969C63.6673 11.7969 65.9422 14.0696 65.9422 17.5709V18.2773H58.432C58.619 19.2601 59.5539 20.1201 61.112 20.1201C62.0468 20.1201 63.1064 19.7515 63.6985 19.2294L65.1319 21.2872C64.0724 22.2086 62.3273 22.6693 60.738 22.6693C57.4971 22.6693 54.973 20.5808 54.973 17.2024C54.9418 14.2232 57.279 11.7969 60.551 11.7969ZM58.4008 16.1581H62.7324C62.6389 15.421 62.1092 14.3768 60.551 14.3768C59.0864 14.3768 58.5255 15.3903 58.4008 16.1581Z" fill="#627AA1"/>
<path d="M74.8823 22.4543V16.4653C74.8823 15.206 74.1967 14.7453 73.1684 14.7453C72.1712 14.7453 71.5168 15.2982 71.1116 15.7589V22.4543H67.7461V12.0733H71.1116V13.3325C71.7349 12.5954 72.9814 11.7969 74.7577 11.7969C77.1572 11.7969 78.2479 13.179 78.2479 15.0832V22.4236H74.8823V22.4543Z" fill="#627AA1"/>
<path d="M80.6445 29.3853V28.3104H85.7863V23.2734H86.877V29.3853H80.6445Z" fill="#627AA1"/>
<path d="M86.881 11.1817H85.7903V6.14473H80.6797V5.03906H86.881V11.1817Z" fill="#627AA1"/>
</svg>
