<svg width="24" height="25" viewBox="0 0 24 25" fill="none" xmlns="http://www.w3.org/2000/svg">
<path d="M22.9462 6.75586C22.8162 6.27367 22.5622 5.83392 22.2095 5.48039C21.8568 5.12686 21.4176 4.87188 20.9357 4.74082C19.1489 4.25018 12.0004 4.2422 12.0004 4.2422C12.0004 4.2422 4.85304 4.23421 3.06507 4.70317C2.58347 4.84026 2.1452 5.09885 1.79233 5.45411C1.43947 5.80938 1.18385 6.24939 1.05003 6.7319C0.578785 8.51874 0.57422 12.2248 0.57422 12.2248C0.57422 12.2248 0.569656 15.9491 1.03747 17.7176C1.29991 18.6955 2.0701 19.468 3.04909 19.7315C4.85419 20.2222 11.9833 20.2302 11.9833 20.2302C11.9833 20.2302 19.1318 20.2382 20.9186 19.7703C21.4007 19.6395 21.8403 19.3851 22.1939 19.0323C22.5475 18.6795 22.8029 18.2405 22.9348 17.7587C23.4072 15.973 23.4106 12.2681 23.4106 12.2681C23.4106 12.2681 23.4334 8.5427 22.9462 6.75586ZM9.71379 15.6581L9.71949 8.81198L15.6608 12.2407L9.71379 15.6581Z" fill="#627AA1"/>
</svg>
