<svg width="85" height="85" viewBox="0 0 85 85" fill="none" xmlns="http://www.w3.org/2000/svg">
<path d="M23.8887 27.983C23.1271 28.9222 22.7296 30.1046 22.7692 31.3132H17.0361C16.7004 31.3036 16.3751 31.1945 16.1014 30.9997C15.8278 30.805 15.6182 30.5334 15.4991 30.2193L13.6597 25.0754H9.74028C9.34971 26.1277 8.6017 27.0092 7.62699 27.5658C6.65228 28.1224 5.51296 28.3186 4.4082 28.1202C3.30345 27.9218 2.30356 27.3414 1.58343 26.4804C0.863314 25.6194 0.46875 24.5327 0.46875 23.4103C0.46875 22.2879 0.863314 21.2012 1.58343 20.3402C2.30356 19.4792 3.30345 18.8988 4.4082 18.7004C5.51296 18.502 6.65228 18.6982 7.62699 19.2548C8.6017 19.8114 9.34971 20.6929 9.74028 21.7452H14.8304C15.1756 21.7487 15.512 21.8545 15.797 22.0492C16.082 22.2439 16.3028 22.5188 16.4315 22.839L18.2247 27.983H23.8887Z" fill="#BDD5F3"/>
<path d="M22.7945 53.8359C22.7363 55.0382 23.1148 56.2211 23.8602 57.1662H18.209L16.4158 62.3383C16.2864 62.6579 16.0654 62.932 15.7805 63.1262C15.4956 63.3204 15.1595 63.426 14.8148 63.4296H9.72465C9.33409 64.4819 8.58601 65.3634 7.6113 65.92C6.63659 66.4765 5.49727 66.6728 4.39252 66.4744C3.28776 66.276 2.28793 65.6955 1.56781 64.8346C0.847689 63.9736 0.453125 62.8869 0.453125 61.7644C0.453125 60.642 0.847689 59.5553 1.56781 58.6943C2.28793 57.8334 3.28776 57.2529 4.39252 57.0545C5.49727 56.8561 6.63659 57.0524 7.6113 57.609C8.58601 58.1655 9.33409 59.047 9.72465 60.0993H13.644L15.4834 54.9554C15.6013 54.6385 15.8099 54.3633 16.0833 54.1642C16.3566 53.9651 16.6826 53.8509 17.0204 53.8359H22.7945Z" fill="#BDD5F3"/>
<path d="M26.5803 54.4482C26.4966 54.2553 26.4777 54.0405 26.5266 53.8359H26.5522C26.5475 54.0404 26.5569 54.245 26.5803 54.4482Z" fill="#BDD5F3"/>
<path d="M18.9302 40.9349V44.242H9.73366C9.3966 45.1528 8.78985 45.9391 7.99437 46.4961C7.19889 47.0531 6.25246 47.3544 5.28136 47.3596C4.01223 47.3596 2.79507 46.8555 1.89766 45.9581C1.00024 45.0606 0.496094 43.8435 0.496094 42.5743C0.496094 41.3052 1.00024 40.0881 1.89766 39.1906C2.79507 38.2932 4.01223 37.7891 5.28136 37.7891C6.25634 37.7943 7.20622 38.0988 8.0025 38.6614C8.79878 39.224 9.40308 40.0176 9.73366 40.9349H18.9302Z" fill="#BDD5F3"/>
<path d="M84.4525 23.3966C84.4495 24.5139 84.0551 25.595 83.338 26.4518C82.6208 27.3087 81.6261 27.8872 80.5267 28.087C79.4273 28.2867 78.2927 28.095 77.32 27.5451C76.3473 26.9952 75.5979 26.122 75.2021 25.0771H71.2826L69.4433 30.2287C69.3275 30.5449 69.1187 30.8186 68.8444 31.0138C68.57 31.2091 68.243 31.3167 67.9063 31.3225H62.1681C62.2063 30.1184 61.819 28.9392 61.0742 27.9923H66.7254L68.5647 22.8484C68.6744 22.5283 68.8817 22.2506 69.1574 22.0544C69.4331 21.8582 69.7633 21.7533 70.1017 21.7545H75.1918C75.5794 20.7032 76.3245 19.8218 77.2966 19.2647C78.2687 18.7075 79.4059 18.5102 80.5089 18.7072C81.6119 18.9042 82.6104 19.483 83.3295 20.3423C84.0486 21.2015 84.4426 22.2864 84.4422 23.4068L84.4525 23.3966Z" fill="#BDD5F3"/>
<path d="M84.4542 61.7851C84.4515 62.4119 84.3252 63.032 84.0825 63.6099C83.8397 64.1878 83.4854 64.7121 83.0396 65.1529C82.5939 65.5936 82.0656 65.942 81.485 66.1782C80.9044 66.4144 80.2829 66.5338 79.6561 66.5294C78.6894 66.5204 77.7478 66.2207 76.9537 65.6692C76.1596 65.1178 75.5499 64.3401 75.2038 63.4374H70.1137C69.7758 63.4383 69.4459 63.3337 69.1703 63.138C68.8948 62.9424 68.6872 62.6655 68.5767 62.3461L66.7373 57.174H61.1016C61.8399 56.2264 62.2095 55.0431 62.1416 53.8438H67.9004C68.2393 53.8547 68.5671 53.9673 68.8412 54.1669C69.1153 54.3666 69.323 54.644 69.4374 54.9632L71.2768 60.1072H75.1961C75.5845 59.0535 76.332 58.1706 77.3071 57.6136C78.2821 57.0567 79.4223 56.8614 80.5271 57.0621C81.632 57.2628 82.6307 57.8467 83.3475 58.711C84.0644 59.5753 84.4536 60.6647 84.4465 61.7876L84.4542 61.7851Z" fill="#BDD5F3"/>
<path d="M84.4547 42.5898C84.4551 43.7102 84.0612 44.7951 83.3421 45.6543C82.6229 46.5136 81.6244 47.0924 80.5214 47.2894C79.4184 47.4864 78.2813 47.2891 77.3091 46.7319C76.337 46.1748 75.5919 45.2934 75.2044 44.2421H66.0078V40.9349H75.2044C75.5868 39.8775 76.3308 38.9892 77.3048 38.4272C78.2788 37.8652 79.4201 37.6655 80.527 37.8636C81.634 38.0616 82.6353 38.6445 83.354 39.5094C84.0727 40.3742 84.4626 41.4653 84.4547 42.5898Z" fill="#BDD5F3"/>
<path d="M55.5833 47.061C55.6107 46.9785 55.6613 46.9058 55.729 46.8513C55.7966 46.7968 55.8786 46.7628 55.9649 46.7536L60.8937 46.2412C61.276 46.2054 61.631 46.0278 61.8889 45.7433C62.1468 45.4588 62.2889 45.0882 62.2872 44.7042V40.4569C62.289 40.0733 62.1472 39.7029 61.8899 39.4185C61.6325 39.1342 61.2781 38.9563 60.8963 38.9198L55.9649 38.4075C55.8784 38.3977 55.7964 38.3633 55.7287 38.3084C55.6611 38.2534 55.6106 38.1803 55.5833 38.0975C55.3915 37.544 55.1647 37.0033 54.9044 36.4785C54.8653 36.4004 54.8495 36.3127 54.8591 36.2259C54.8686 36.1391 54.903 36.0569 54.9581 35.9892L58.0937 32.1467C58.3357 31.8489 58.4589 31.4722 58.4395 31.089C58.4201 30.7058 58.2595 30.3434 57.9887 30.0717L54.9787 27.0642C54.7088 26.7909 54.3464 26.6286 53.9629 26.6092C53.5793 26.5897 53.2023 26.7146 52.9062 26.9592L49.0636 30.0922C48.9957 30.1478 48.913 30.1825 48.8257 30.1921C48.7384 30.2016 48.6502 30.1856 48.5718 30.1459C48.0472 29.8852 47.5064 29.6584 46.9528 29.4671C46.87 29.4402 46.7969 29.3898 46.7423 29.322C46.6877 29.2542 46.654 29.172 46.6454 29.0854L46.133 24.1567C46.0966 23.7748 45.9187 23.4204 45.6343 23.163C45.3499 22.9056 44.9796 22.7639 44.596 22.7656H40.3436C39.96 22.7639 39.5897 22.9056 39.3053 23.163C39.0209 23.4204 38.843 23.7748 38.8066 24.1567L38.2942 29.0854C38.2856 29.172 38.2519 29.2542 38.1973 29.322C38.1427 29.3898 38.0695 29.4402 37.9868 29.4671C37.4333 29.6589 36.8926 29.8856 36.3678 30.1459C36.2894 30.1856 36.2012 30.2016 36.1139 30.1921C36.0266 30.1825 35.9439 30.1478 35.8759 30.0922L32.0333 26.9592C31.7356 26.7172 31.3589 26.594 30.9757 26.6134C30.5925 26.6328 30.2301 26.7934 29.9584 27.0642L26.9509 30.0717C26.677 30.3417 26.5141 30.7046 26.4947 31.0887C26.4752 31.4729 26.6005 31.8504 26.8459 32.1467L29.9788 35.9892C30.0346 36.0566 30.0693 36.1389 30.0789 36.2258C30.0885 36.3128 30.0724 36.4006 30.0327 36.4785C29.7723 37.0033 29.5456 37.544 29.3538 38.0975C29.3267 38.1804 29.2763 38.2538 29.2086 38.3087C29.1409 38.3637 29.0588 38.398 28.9721 38.4075L24.0434 38.9198C23.6615 38.9563 23.3071 39.1342 23.0498 39.4185C22.7924 39.7029 22.6506 40.0733 22.6524 40.4569V44.7119C22.6506 45.0954 22.7924 45.4658 23.0498 45.7502C23.3071 46.0346 23.6615 46.2125 24.0434 46.2489L28.9721 46.7612C29.0586 46.7702 29.1407 46.804 29.2084 46.8586C29.2761 46.9131 29.3266 46.9861 29.3538 47.0687C29.5451 47.6232 29.7719 48.1648 30.0327 48.6902C30.0724 48.7681 30.0885 48.856 30.0789 48.9429C30.0693 49.0299 30.0346 49.1121 29.9788 49.1795L26.8459 53.0221C26.6013 53.3182 26.4764 53.6951 26.4959 54.0787C26.5153 54.4623 26.6777 54.8247 26.9509 55.0945L29.9584 58.1045C30.2301 58.3754 30.5925 58.5359 30.9757 58.5553C31.3589 58.5747 31.7356 58.4516 32.0333 58.2096L35.8759 55.074C35.9442 55.019 36.0268 54.9846 36.114 54.9751C36.2012 54.9656 36.2893 54.9812 36.3678 55.0202C36.8926 55.2806 37.4333 55.5073 37.9868 55.6991C38.0692 55.7266 38.142 55.7772 38.1965 55.8448C38.251 55.9125 38.2849 55.9944 38.2942 56.0808L38.8066 61.0121C38.8463 61.3926 39.0252 61.745 39.3088 62.0017C39.5925 62.2585 39.961 62.4014 40.3436 62.4031H44.6011C44.9847 62.4048 45.3551 62.2631 45.6395 62.0057C45.9239 61.7483 46.1017 61.3939 46.1382 61.0121L46.6505 56.0808C46.6598 55.9944 46.6937 55.9125 46.7482 55.8448C46.8027 55.7772 46.8755 55.7266 46.9579 55.6991C47.5116 55.5077 48.0524 55.281 48.5769 55.0202C48.6555 54.9812 48.7435 54.9656 48.8307 54.9751C48.9179 54.9846 49.0005 55.019 49.0688 55.074L52.9113 58.2096C53.2074 58.4541 53.5844 58.579 53.968 58.5596C54.3515 58.5401 54.7139 58.3778 54.9838 58.1045L57.9938 55.0894C58.2671 54.8195 58.4294 54.4571 58.4489 54.0736C58.4683 53.69 58.3434 53.3131 58.0988 53.017L54.9633 49.1744C54.9081 49.1067 54.8737 49.0245 54.8642 48.9377C54.8547 48.8509 54.8704 48.7632 54.9095 48.6851C55.1686 48.1587 55.3937 47.6162 55.5833 47.061ZM42.4723 49.7098C41.0628 49.7098 39.685 49.2918 38.513 48.5087C37.341 47.7256 36.4276 46.6126 35.8882 45.3104C35.3488 44.0081 35.2076 42.5752 35.4826 41.1927C35.7576 39.8103 36.4363 38.5404 37.433 37.5438C38.4297 36.5471 39.6996 35.8683 41.082 35.5933C42.4645 35.3183 43.8974 35.4595 45.1996 35.9989C46.5018 36.5383 47.6149 37.4517 48.398 38.6237C49.1811 39.7957 49.5991 41.1736 49.5991 42.5831C49.5991 43.519 49.4147 44.4457 49.0566 45.3104C48.6984 46.175 48.1735 46.9607 47.5117 47.6224C46.8499 48.2842 46.0643 48.8092 45.1996 49.1673C44.335 49.5255 43.4082 49.7098 42.4723 49.7098Z" fill="#2977D7"/>
<path d="M24.2145 20.4912C28.8991 16.6526 34.6847 14.4061 40.7322 14.0777C46.7797 13.7493 52.7746 15.356 57.8473 18.6647L53.6768 19.4666C53.2711 19.5424 52.9084 19.7671 52.6598 20.0966C52.4113 20.4261 52.2948 20.8366 52.3333 21.2476C52.3717 21.6586 52.5625 22.0403 52.8679 22.3179C53.1734 22.5955 53.5715 22.7489 53.9843 22.7481C54.0883 22.7488 54.1921 22.7394 54.2943 22.7199L62.4226 21.1829C62.8536 21.1009 63.2344 20.8511 63.4813 20.4885C63.7283 20.1258 63.821 19.6799 63.7393 19.2488L62.2022 11.1205C62.1204 10.6891 61.8705 10.3078 61.5075 10.0606C61.1446 9.81347 60.6983 9.72061 60.2669 9.80247C59.8355 9.88434 59.4542 10.1342 59.207 10.4972C58.9599 10.8601 58.867 11.3064 58.9489 11.7379L59.7532 15.9749C54.0915 12.2494 47.3878 10.4297 40.6195 10.7813C33.8511 11.1329 27.3719 13.6374 22.1267 17.9295C21.9504 18.0642 21.803 18.233 21.6933 18.4258C21.5835 18.6186 21.5136 18.8315 21.4878 19.0519C21.462 19.2722 21.4807 19.4955 21.5429 19.7085C21.6051 19.9214 21.7095 20.1197 21.8499 20.2915C21.9902 20.4634 22.1637 20.6052 22.36 20.7086C22.5563 20.812 22.7714 20.8749 22.9925 20.8935C23.2135 20.9122 23.4361 20.8862 23.647 20.8171C23.8578 20.7479 24.0525 20.6371 24.2197 20.4912H24.2145Z" fill="#2977D7"/>
<path d="M60.7281 64.6674C56.0422 68.5044 50.2564 70.7498 44.2089 71.0782C38.1615 71.4066 32.1665 69.8009 27.0927 66.4939L31.2657 65.7023C31.6917 65.6141 32.0659 65.362 32.3076 65.0004C32.5493 64.6388 32.6392 64.1966 32.5579 63.7693C32.4765 63.342 32.2304 62.9638 31.8727 62.7163C31.515 62.4688 31.0744 62.3719 30.6458 62.4464L22.5201 63.9834C22.3064 64.0237 22.1028 64.1057 21.9208 64.2247C21.7389 64.3437 21.5822 64.4975 21.4597 64.6771C21.3371 64.8567 21.2512 65.0587 21.2068 65.2715C21.1624 65.4844 21.1603 65.7039 21.2007 65.9175L22.7378 74.0458C22.8099 74.4246 23.0118 74.7663 23.3087 75.0123C23.6056 75.2582 23.9789 75.3929 24.3645 75.3933C24.4684 75.3927 24.5721 75.3833 24.6744 75.3651C25.1062 75.2831 25.4876 75.0331 25.735 74.6699C25.9824 74.3067 26.0755 73.8602 25.9938 73.4285L25.2022 69.1991C30.8647 72.9226 37.5685 74.7401 44.3364 74.3867C51.1042 74.0333 57.5823 71.5273 62.8262 67.2342C63.0056 67.1008 63.1562 66.9324 63.2688 66.7392C63.3813 66.546 63.4536 66.332 63.4812 66.1101C63.5087 65.8882 63.491 65.663 63.4291 65.4481C63.3672 65.2332 63.2624 65.0331 63.121 64.8598C62.9797 64.6866 62.8047 64.5438 62.6066 64.44C62.4085 64.3363 62.1914 64.2738 61.9685 64.2563C61.7455 64.2388 61.5214 64.2666 61.3095 64.3382C61.0976 64.4097 60.9024 64.5234 60.7358 64.6725L60.7281 64.6674Z" fill="#2977D7"/>
</svg>
