<svg width="77" height="77" viewBox="0 0 77 77" fill="none" xmlns="http://www.w3.org/2000/svg">
<path d="M44.9531 21.4597H61.2912C61.7701 21.4611 62.229 21.6522 62.5673 21.9911C62.9057 22.33 63.0961 22.7891 63.0968 23.268V39.029H64.4957C65.2536 39.0304 65.9956 39.2457 66.6365 39.6501V23.268C66.6351 21.8493 66.072 20.4888 65.0704 19.4841C64.0687 18.4793 62.71 17.9121 61.2912 17.9062H44.9531V21.4597Z" fill="#2977D7"/>
<path d="M50.2629 60.27C49.3848 60.0568 48.6037 59.5549 48.045 58.8448C47.4864 58.1346 47.1825 57.2573 47.1821 56.3538V55.3809H6.73111C6.25269 55.3794 5.79426 55.1887 5.45597 54.8504C5.11767 54.5121 4.92703 54.0537 4.92558 53.5753V23.268C4.9263 22.7891 5.11665 22.33 5.45503 21.9911C5.7934 21.6522 6.25221 21.4611 6.73111 21.4597H23.0857V17.9062H6.73111C5.31413 17.9128 3.95756 18.4808 2.95869 19.4859C1.95982 20.491 1.40015 21.851 1.40235 23.268V59.6626C1.40089 61.0778 1.96131 62.4358 2.9605 63.4381C3.95968 64.4403 5.31586 65.005 6.73111 65.0079H28.5822L27.5791 71.2491H23.935C23.478 71.2671 23.0457 71.4613 22.7288 71.791C22.4118 72.1206 22.2348 72.5602 22.2348 73.0175C22.2348 73.4749 22.4118 73.9144 22.7288 74.2441C23.0457 74.5738 23.478 74.768 23.935 74.786H44.1288C44.5858 74.768 45.0181 74.5738 45.335 74.2441C45.6519 73.9144 45.829 73.4749 45.829 73.0175C45.829 72.5602 45.6519 72.1206 45.335 71.791C45.0181 71.4613 44.5858 71.2671 44.1288 71.2491H40.4682L39.4569 65.0079H50.6476C50.0928 64.3592 49.757 63.552 49.6879 62.7012C49.6188 61.8505 49.82 60.9996 50.2629 60.27Z" fill="#2977D7"/>
<path d="M21.6438 13.3539C22.096 13.3494 22.5438 13.2637 22.9657 13.101L25.8816 16.3604V26.625C26.7734 26.2839 27.6857 25.9993 28.6133 25.773V15.83C28.616 15.4977 28.4911 15.177 28.2643 14.9341L24.9966 11.2762C25.2761 10.7466 25.4241 10.1574 25.4281 9.55859C25.4286 8.80718 25.2063 8.07249 24.7892 7.44749C24.372 6.82248 23.7789 6.33525 23.0848 6.04745C22.3907 5.75964 21.6268 5.6842 20.8898 5.83066C20.1528 5.97712 19.4758 6.3389 18.9444 6.87023C18.4131 7.40156 18.0513 8.07856 17.9049 8.81556C17.7584 9.55256 17.8339 10.3164 18.1217 11.0106C18.4095 11.7047 18.8967 12.2978 19.5217 12.7149C20.1467 13.1321 20.8814 13.3544 21.6328 13.3539H21.6438Z" fill="#2977D7"/>
<path d="M32.6509 9.74502L32.6647 25.135C33.1209 25.1048 33.5606 25.091 34.0168 25.091C34.473 25.091 34.9429 25.1048 35.3909 25.135V9.74502C36.2169 9.42446 36.9049 8.82519 37.3357 8.05094C37.7665 7.27669 37.913 6.37618 37.75 5.50529C37.5869 4.63439 37.1245 3.8479 36.4428 3.28197C35.761 2.71603 34.9028 2.40625 34.0168 2.40625C33.1308 2.40625 32.2726 2.71603 31.5909 3.28197C30.9092 3.8479 30.4467 4.63439 30.2836 5.50529C30.1206 6.37618 30.2671 7.27669 30.6979 8.05094C31.1287 8.82519 31.8167 9.42446 32.6427 9.74502H32.6509Z" fill="#2977D7"/>
<path d="M42.1398 16.36L45.0584 13.1006C45.4841 13.2671 45.9369 13.3537 46.3941 13.3562C47.1447 13.3562 47.8785 13.1336 48.5026 12.7166C49.1267 12.2995 49.6132 11.7068 49.9004 11.0133C50.1877 10.3198 50.2629 9.5567 50.1164 8.82049C49.97 8.08427 49.6085 7.40802 49.0777 6.87724C48.5469 6.34646 47.8707 5.98499 47.1345 5.83855C46.3982 5.69211 45.6351 5.76727 44.9417 6.05452C44.2482 6.34178 43.6554 6.82823 43.2384 7.45236C42.8213 8.0765 42.5988 8.81027 42.5988 9.56091C42.6018 10.1587 42.7489 10.7469 43.0275 11.2758L39.7571 14.9364C39.5417 15.1853 39.4227 15.5032 39.4219 15.8323V25.7754C40.3444 26.0036 41.2521 26.2881 42.1398 26.6273V16.36Z" fill="#2977D7"/>
<path d="M75.1839 52.272L72.7792 51.923C72.4769 51.192 72.3944 50.9969 72.0921 50.2741L73.546 48.3256C73.7341 48.074 73.8254 47.7631 73.8032 47.4498C73.781 47.1364 73.6468 46.8415 73.4251 46.619L71.449 44.6458C71.2273 44.4238 70.933 44.2892 70.6201 44.2665C70.3072 44.2438 69.9966 44.3345 69.7452 44.5221L67.794 45.9759L66.145 45.2916L65.796 42.8841C65.7505 42.5738 65.5951 42.2902 65.358 42.0849C65.1209 41.8796 64.8179 41.7663 64.5043 41.7656H61.7176C61.4038 41.7657 61.1006 41.8788 60.8634 42.0842C60.6262 42.2896 60.4709 42.5736 60.426 42.8841L60.0687 45.2861L58.4198 45.9704L56.4713 44.5166C56.2198 44.329 55.9092 44.2383 55.5963 44.261C55.2834 44.2837 54.9891 44.4183 54.7674 44.6403L52.7942 46.6135C52.571 46.8351 52.4356 47.13 52.4128 47.4436C52.3901 47.7573 52.4817 48.0686 52.6705 48.3201L54.1298 50.2741C53.8275 50.9996 53.745 51.1947 53.4455 51.923L51.0326 52.272C50.7216 52.317 50.4372 52.4727 50.2318 52.7105C50.0263 52.9483 49.9135 53.2522 49.9141 53.5665V56.3586C49.9141 56.6724 50.0272 56.9757 50.2326 57.2129C50.438 57.4501 50.7221 57.6054 51.0326 57.6503L53.4373 57.9993C53.7396 58.7303 53.822 58.9227 54.1243 59.6482L52.6705 61.5967C52.4818 61.8478 52.3904 62.1586 52.4132 62.4718C52.4359 62.7851 52.5712 63.0795 52.7942 63.3006L54.7674 65.2766C54.9891 65.4985 55.2834 65.6331 55.5963 65.6558C55.9092 65.6786 56.2198 65.5878 56.4713 65.4003L58.4198 63.9465L60.0687 64.6308L60.4205 67.0382C60.4654 67.3487 60.6207 67.6327 60.8579 67.8381C61.0951 68.0436 61.3983 68.1566 61.7121 68.1567H64.5043C64.8179 68.1561 65.1209 68.0428 65.358 67.8375C65.5951 67.6322 65.7505 67.3485 65.796 67.0382L66.145 64.6308L67.794 63.9465L69.7452 65.4003C69.9966 65.5878 70.3072 65.6786 70.6201 65.6558C70.933 65.6331 71.2273 65.4985 71.449 65.2766L73.4251 63.3006C73.6466 63.0785 73.7807 62.7841 73.8029 62.4712C73.8251 62.1583 73.7339 61.8479 73.546 61.5967L72.0921 59.6482C72.3944 58.9172 72.4769 58.7248 72.7792 57.9993L75.1839 57.6503C75.4944 57.6054 75.7784 57.4501 75.9839 57.2129C76.1893 56.9757 76.3024 56.6724 76.3024 56.3586V53.5665C76.303 53.2522 76.1902 52.9483 75.9847 52.7105C75.7793 52.4727 75.4949 52.317 75.1839 52.272ZM63.0917 59.8928C62.1167 59.8901 61.1643 59.5985 60.3549 59.0548C59.5454 58.5111 58.9153 57.7397 58.544 56.8381C58.1728 55.9365 58.077 54.945 58.2689 53.989C58.4608 53.033 58.9317 52.1553 59.6221 51.4668C60.3126 50.7783 61.1916 50.3098 62.1481 50.1206C63.1047 49.9313 64.0958 50.0298 64.9964 50.4036C65.897 50.7774 66.6666 51.4096 67.2081 52.2206C67.7495 53.0315 68.0385 53.9847 68.0385 54.9598C68.0385 56.2676 67.5192 57.522 66.5946 58.447C65.6701 59.3721 64.4161 59.8921 63.1082 59.8928H63.0917Z" fill="#BDD5F3"/>
<path d="M15.7753 36.2353C15.4731 36.5131 15.2317 36.8506 15.0667 37.2264C14.9016 37.6023 14.8164 38.0083 14.8164 38.4188C14.8164 38.8293 14.9016 39.2353 15.0667 39.6112C15.2317 39.987 15.4731 40.3245 15.7753 40.6023C19.1309 43.705 26.0399 49.0173 34.0152 49.0173C41.9905 49.0173 48.9023 43.705 52.2551 40.6023C52.5574 40.3245 52.7987 39.987 52.9637 39.6112C53.1288 39.2353 53.2141 38.8293 53.2141 38.4188C53.2141 38.0083 53.1288 37.6023 52.9637 37.2264C52.7987 36.8506 52.5574 36.5131 52.2551 36.2353C48.9023 33.1326 41.9933 27.8203 34.0152 27.8203C26.0371 27.8203 19.1309 33.1326 15.7753 36.2353ZM41.2842 38.4174C41.2848 39.8552 40.8589 41.2609 40.0605 42.4566C39.2621 43.6524 38.127 44.5845 36.7988 45.1351C35.4706 45.6857 34.009 45.83 32.5988 45.5499C31.1885 45.2697 29.893 44.5776 28.8762 43.5611C27.8593 42.5446 27.1668 41.2494 26.8861 39.8393C26.6054 38.4292 26.7492 36.9675 27.2992 35.6391C27.8493 34.3107 28.781 33.1752 29.9765 32.3764C31.1719 31.5775 32.5774 31.1511 34.0152 31.1511C35.9426 31.1511 37.7911 31.9166 39.1542 33.2792C40.5173 34.6418 41.2835 36.49 41.2842 38.4174Z" fill="#BDD5F3"/>
<path d="M33.6242 35.4185C33.622 36.1085 33.3462 36.7695 32.8572 37.2563C32.3683 37.7432 31.7062 38.0163 31.0161 38.0155C30.483 38.0137 29.9635 37.8466 29.5293 37.5373C29.4705 37.8259 29.4411 38.1196 29.4414 38.414C29.4398 39.3198 29.7069 40.2057 30.2088 40.9597C30.7108 41.7136 31.4251 42.3018 32.2614 42.6496C33.0977 42.9975 34.0184 43.0895 34.907 42.914C35.7957 42.7385 36.6123 42.3034 37.2536 41.6637C37.8948 41.0239 38.3319 40.2084 38.5095 39.3202C38.6872 38.432 38.5973 37.5111 38.2515 36.674C37.9056 35.8368 37.3192 35.1211 36.5664 34.6173C35.8137 34.1135 34.9284 33.8443 34.0227 33.8438C33.7297 33.8438 33.4373 33.8696 33.1488 33.9207C33.4578 34.359 33.6238 34.8822 33.6242 35.4185Z" fill="#2977D7"/>
</svg>
