<svg width="41" height="41" viewBox="0 0 41 41" fill="none" xmlns="http://www.w3.org/2000/svg">
<path opacity="0.3" d="M25.5013 6.78906H15.5013C10.9013 6.78906 7.16797 10.5224 7.16797 15.1224V25.1224C7.16797 29.7224 10.9013 33.4557 15.5013 33.4557H25.5013C30.1013 33.4557 33.8346 29.7224 33.8346 25.1224V15.1224C33.8346 10.5224 30.1013 6.78906 25.5013 6.78906ZM29.268 23.8891C29.268 26.6557 27.0346 28.8891 24.268 28.8891H16.7346C13.968 28.8891 11.7346 26.6557 11.7346 23.8891V16.3557C11.7346 13.5891 13.968 11.3557 16.7346 11.3557H24.2513C27.018 11.3557 29.2513 13.5891 29.2513 16.3557V23.8891H29.268Z" fill="#2977D7"/>
<path d="M15.5977 4.71094V6.79427H15.4977C14.6643 6.79427 13.8643 6.91094 13.0977 7.14427V4.71094C13.0977 4.0276 13.6477 3.46094 14.3477 3.46094C15.031 3.46094 15.5977 4.0276 15.5977 4.71094Z" fill="#2977D7"/>
<path d="M21.75 4.71094V6.79427H19.25V4.71094C19.25 4.0276 19.8167 3.46094 20.5 3.46094C21.1833 3.46094 21.75 4.0276 21.75 4.71094Z" fill="#2977D7"/>
<path d="M27.9141 4.71094V7.14427C27.1474 6.91094 26.3307 6.79427 25.4974 6.79427H25.4141V4.71094C25.4141 4.0276 25.9807 3.46094 26.6641 3.46094C27.3474 3.46094 27.9141 4.0276 27.9141 4.71094Z" fill="#2977D7"/>
<path d="M37.1638 13.9531C37.1638 14.6531 36.6138 15.2031 35.9138 15.2031H33.8305V15.1198C33.8305 14.2865 33.7138 13.4698 33.4805 12.7031H35.9138C36.6138 12.7031 37.1638 13.2698 37.1638 13.9531Z" fill="#2977D7"/>
<path d="M37.1654 20.125C37.1654 20.8083 36.6154 21.375 35.9154 21.375H33.832V18.875H35.9154C36.6154 18.875 37.1654 19.425 37.1654 20.125Z" fill="#2977D7"/>
<path d="M37.1638 26.2969C37.1638 26.9802 36.6138 27.5469 35.9138 27.5469H33.4805C33.7138 26.7802 33.8305 25.9635 33.8305 25.1302V25.0469H35.9138C36.6138 25.0469 37.1638 25.5969 37.1638 26.2969Z" fill="#2977D7"/>
<path d="M27.9141 33.1094V35.5427C27.9141 36.226 27.3474 36.7927 26.6641 36.7927C25.9807 36.7927 25.4141 36.226 25.4141 35.5427V33.4594H25.4974C26.3307 33.4594 27.1474 33.3427 27.9141 33.1094Z" fill="#2977D7"/>
<path d="M21.7695 33.4609V35.5443C21.7695 36.2276 21.2029 36.7943 20.5195 36.7943C19.8195 36.7943 19.2695 36.2276 19.2695 35.5443V33.4609H21.7695Z" fill="#2977D7"/>
<path d="M15.5977 33.4594V35.5427C15.5977 36.226 15.031 36.7927 14.3477 36.7927C13.6477 36.7927 13.0977 36.226 13.0977 35.5427V33.1094C13.8643 33.3427 14.6643 33.4594 15.4977 33.4594H15.5977Z" fill="#2977D7"/>
<path d="M7.51536 12.7031C7.28203 13.4698 7.16536 14.2865 7.16536 15.1198V15.2031H5.08203C4.3987 15.2031 3.83203 14.6531 3.83203 13.9531C3.83203 13.2698 4.3987 12.7031 5.08203 12.7031H7.51536Z" fill="#2977D7"/>
<path d="M7.16536 18.875V21.375H5.08203C4.3987 21.375 3.83203 20.8083 3.83203 20.125C3.83203 19.425 4.3987 18.875 5.08203 18.875H7.16536Z" fill="#2977D7"/>
<path d="M7.51536 27.5469H5.08203C4.3987 27.5469 3.83203 26.9802 3.83203 26.2969C3.83203 25.5969 4.3987 25.0469 5.08203 25.0469H7.16536V25.1302C7.16536 25.9635 7.28203 26.7802 7.51536 27.5469Z" fill="#2977D7"/>
<path d="M24.2638 11.3594H16.7305C13.9638 11.3594 11.7305 13.5927 11.7305 16.3594V23.876C11.7305 26.6427 13.9638 28.876 16.7305 28.876H24.2471C27.0138 28.876 29.2471 26.6427 29.2471 23.876V16.3594C29.2638 13.6094 27.0138 11.3594 24.2638 11.3594ZM23.1471 21.8594L21.5805 24.5927C21.3471 24.9927 20.9305 25.226 20.4971 25.226C20.2805 25.226 20.0638 25.176 19.8805 25.0594C19.2805 24.7094 19.0805 23.9427 19.4138 23.3594L20.5471 21.3927H19.5638C18.7638 21.3927 18.1138 21.0427 17.7638 20.4427C17.4138 19.8427 17.4471 19.0927 17.8305 18.4094L19.3971 15.676C19.7471 15.076 20.5138 14.876 21.0971 15.2094C21.6971 15.5594 21.8971 16.326 21.5638 16.9094L20.4305 18.876H21.4138C22.2138 18.876 22.8638 19.226 23.2138 19.826C23.5805 20.426 23.5471 21.1594 23.1471 21.8594Z" fill="#2977D7"/>
</svg>
