<svg width="77" height="77" viewBox="0 0 77 77" fill="none" xmlns="http://www.w3.org/2000/svg">
<path d="M6.50604 41.1617C6.05349 41.5776 5.69215 42.0829 5.44502 42.6456C5.19788 43.2083 5.07031 43.8163 5.07031 44.4309C5.07031 45.0455 5.19788 45.6534 5.44502 46.2161C5.69215 46.7789 6.05349 47.2841 6.50604 47.7C11.5301 52.3455 21.8744 60.2992 33.8153 60.2992C45.7562 60.2992 56.1047 52.3455 61.1247 47.7C61.5772 47.2841 61.9384 46.7789 62.1856 46.2161C62.4327 45.6534 62.5604 45.0455 62.5604 44.4309C62.5604 43.8163 62.4327 43.2083 62.1856 42.6456C61.9384 42.0829 61.5772 41.5776 61.1247 41.1617C56.1047 36.5162 45.7603 28.5625 33.8153 28.5625C21.8703 28.5625 11.5301 36.5162 6.50604 41.1617ZM44.6987 44.4288C44.6995 46.5815 44.0619 48.6861 42.8666 50.4764C41.6712 52.2667 39.9717 53.6623 37.983 54.4867C35.9944 55.3111 33.806 55.5272 31.6946 55.1077C29.5831 54.6882 27.6435 53.652 26.121 52.1301C24.5985 50.6082 23.5616 48.669 23.1414 46.5577C22.7211 44.4464 22.9364 42.2579 23.76 40.269C24.5836 38.2801 25.9786 36.5801 27.7684 35.384C29.5583 34.1879 31.6626 33.5495 33.8153 33.5495C36.701 33.5495 39.4687 34.6956 41.5096 36.7357C43.5505 38.7759 44.6976 41.5431 44.6987 44.4288Z" fill="#2977D7"/>
<path d="M21.9047 13.3605C22.3503 13.356 22.7916 13.2716 23.2074 13.1113L26.0808 16.3232V26.4384C26.9596 26.1022 27.8587 25.8218 28.7727 25.5988V15.8006C28.7754 15.4731 28.6523 15.157 28.4288 14.9177L25.2087 11.3131C25.4841 10.7911 25.6299 10.2106 25.6339 9.62044C25.6344 8.87997 25.4153 8.15598 25.0043 7.54007C24.5932 6.92417 24.0087 6.44403 23.3247 6.16042C22.6407 5.8768 21.8879 5.80246 21.1617 5.94679C20.4354 6.09111 19.7682 6.44763 19.2446 6.97122C18.721 7.49482 18.3645 8.16195 18.2202 8.88823C18.0759 9.6145 18.1503 10.3673 18.4339 11.0513C18.7175 11.7353 19.1976 12.3198 19.8135 12.7308C20.4294 13.1419 21.1534 13.361 21.8939 13.3605H21.9047Z" fill="#BDD5F3"/>
<path d="M32.7483 9.81005L32.7619 24.976C33.2115 24.9462 33.6448 24.9326 34.0943 24.9326C34.5439 24.9326 35.007 24.9462 35.4484 24.976V9.81005C36.2624 9.49415 36.9403 8.90361 37.3648 8.14063C37.7894 7.37766 37.9338 6.49026 37.7731 5.63204C37.6124 4.77382 37.1568 3.99879 36.4849 3.44109C35.8131 2.88339 34.9674 2.57812 34.0943 2.57812C33.2212 2.57812 32.3756 2.88339 31.7037 3.44109C31.0319 3.99879 30.5762 4.77382 30.4155 5.63204C30.2548 6.49026 30.3992 7.37766 30.8238 8.14063C31.2483 8.90361 31.9262 9.49415 32.7402 9.81005H32.7483Z" fill="#BDD5F3"/>
<path d="M42.0963 16.3229L44.9724 13.111C45.392 13.275 45.8382 13.3604 46.2886 13.3629C47.0283 13.3629 47.7514 13.1435 48.3665 12.7326C48.9815 12.3216 49.4609 11.7375 49.744 11.0541C50.027 10.3707 50.1011 9.61869 49.9568 8.8932C49.8125 8.1677 49.4563 7.50129 48.9332 6.97824C48.4102 6.45519 47.7437 6.09899 47.0183 5.95468C46.2928 5.81037 45.5408 5.88443 44.8574 6.16751C44.174 6.45058 43.5899 6.92995 43.1789 7.54499C42.7679 8.16004 42.5486 8.88313 42.5486 9.62284C42.5516 10.2119 42.6966 10.7916 42.9711 11.3128L39.7484 14.9201C39.536 15.1653 39.4188 15.4786 39.418 15.803V25.6012C40.3271 25.8261 41.2215 26.1065 42.0963 26.4408V16.3229Z" fill="#BDD5F3"/>
<path d="M33.2274 39.9437C33.2242 40.9768 32.8112 41.9664 32.0791 42.6954C31.347 43.4244 30.3557 43.8332 29.3226 43.8321C28.5244 43.8293 27.7466 43.5792 27.0965 43.1161C27.0085 43.5481 26.9644 43.9878 26.9649 44.4287C26.9624 45.7849 27.3623 47.1113 28.1139 48.2401C28.8655 49.369 29.9349 50.2495 31.1871 50.7704C32.4392 51.2912 33.8177 51.429 35.1482 51.1662C36.4786 50.9034 37.7013 50.2519 38.6614 49.2941C39.6215 48.3363 40.2759 47.1153 40.5419 45.7855C40.8079 44.4556 40.6734 43.0768 40.1555 41.8234C39.6377 40.57 38.7597 39.4984 37.6327 38.7441C36.5056 37.9898 35.1802 37.5868 33.824 37.5859C33.3854 37.5861 32.9476 37.6246 32.5156 37.7011C32.9783 38.3575 33.2269 39.1407 33.2274 39.9437Z" fill="#2977D7"/>
<path d="M1.95109 36.5944C2.4668 36.5944 2.96142 36.3895 3.32608 36.0248C3.69074 35.6602 3.89562 35.1656 3.89562 34.6499V25.1495H13.4041C13.9076 25.1307 14.3843 24.9175 14.7338 24.5546C15.0834 24.1918 15.2787 23.7075 15.2787 23.2037C15.2787 22.6998 15.0834 22.2156 14.7338 21.8527C14.3843 21.4898 13.9076 21.2766 13.4041 21.2578H1.95109C1.43513 21.2578 0.940259 21.4626 0.575167 21.8272C0.210075 22.1918 0.00462386 22.6863 0.00390625 23.2023V34.658C0.00605662 35.1728 0.212268 35.6657 0.577283 36.0287C0.942298 36.3916 1.43631 36.5951 1.95109 36.5944Z" fill="#2977D7"/>
<path d="M13.4015 64.208H3.89307V54.6995C3.90283 54.4378 3.85965 54.1769 3.76626 53.9323C3.67287 53.6877 3.5311 53.4645 3.34945 53.2759C3.1678 53.0874 2.95011 52.9374 2.70916 52.8349C2.46821 52.7325 2.20903 52.6797 1.94721 52.6797C1.68539 52.6797 1.42621 52.7325 1.18527 52.8349C0.944321 52.9374 0.726498 53.0874 0.544847 53.2759C0.363195 53.4645 0.221428 53.6877 0.128038 53.9323C0.0346475 54.1769 -0.00840726 54.4378 0.00135533 54.6995V66.1525C0.00135508 66.408 0.0517033 66.6611 0.149592 66.8972C0.247481 67.1333 0.390974 67.3478 0.571823 67.5284C0.752672 67.709 0.967419 67.8522 1.20365 67.9497C1.43988 68.0473 1.69295 68.0973 1.94854 68.097H13.4015C13.9172 68.097 14.4119 67.8921 14.7765 67.5274C15.1412 67.1628 15.3461 66.6682 15.3461 66.1525C15.3461 65.6367 15.1412 65.1422 14.7765 64.7775C14.4119 64.4128 13.9172 64.208 13.4015 64.208Z" fill="#2977D7"/>
<path d="M54.6793 25.1495H64.1877V34.658C64.2065 35.1615 64.4198 35.6381 64.7827 35.9877C65.1455 36.3373 65.6297 36.5326 66.1336 36.5326C66.6374 36.5326 67.1216 36.3373 67.4845 35.9877C67.8474 35.6381 68.0607 35.1615 68.0794 34.658V23.2023C68.0787 22.6863 67.8733 22.1918 67.5082 21.8272C67.1431 21.4626 66.6482 21.2578 66.1323 21.2578H54.6793C54.1758 21.2766 53.6991 21.4898 53.3495 21.8527C52.9999 22.2156 52.8047 22.6998 52.8047 23.2037C52.8047 23.7075 52.9999 24.1918 53.3495 24.5546C53.6991 24.9175 54.1758 25.1307 54.6793 25.1495Z" fill="#2977D7"/>
<path d="M60.5782 44.5547C57.4805 44.5542 54.4521 45.4723 51.8762 47.193C49.3002 48.9137 47.2924 51.3597 46.1067 54.2215C44.921 57.0834 44.6107 60.2327 45.2149 63.271C45.8191 66.3092 47.3107 69.1001 49.5012 71.2906C51.6917 73.481 54.4825 74.9727 57.5208 75.5769C60.5591 76.1812 63.7084 75.8708 66.5703 74.6851C69.4321 73.4993 71.8781 71.4915 73.5988 68.9156C75.3195 66.3397 76.2377 63.3113 76.2371 60.2135C76.2378 58.157 75.8333 56.1204 75.0466 54.2203C74.2599 52.3202 73.1066 50.5937 71.6524 49.1395C70.1982 47.6853 68.4716 46.5319 66.5715 45.7452C64.6713 44.9585 62.6348 44.554 60.5782 44.5547ZM68.0664 58.2446L59.996 66.3178C59.7743 66.5354 59.512 66.7072 59.2239 66.8234C58.9358 66.9396 58.6275 66.9978 58.3169 66.9948C57.691 66.9931 57.0899 66.7507 56.6379 66.3178L52.6351 62.3124C52.1941 61.8713 51.9464 61.2732 51.9464 60.6495C51.9464 60.0258 52.1941 59.4277 52.6351 58.9867C53.0761 58.5457 53.6743 58.2979 54.2979 58.2979C54.9216 58.2979 55.5198 58.5457 55.9608 58.9867L58.3169 61.3455L64.711 54.9515C65.1554 54.5168 65.7522 54.2733 66.3738 54.2733C66.9954 54.2733 67.5923 54.5168 68.0366 54.9515C68.2639 55.1604 68.4458 55.4138 68.5711 55.6959C68.6965 55.978 68.7626 56.2829 68.7654 56.5916C68.7682 56.9003 68.7076 57.2063 68.5874 57.4906C68.4672 57.775 68.2898 58.0316 68.0664 58.2446Z" fill="#BDD5F3"/>
</svg>
