<svg width="25" height="24" viewBox="0 0 25 24" fill="none" xmlns="http://www.w3.org/2000/svg">
<path fill-rule="evenodd" clip-rule="evenodd" d="M4.58079 6.53652C4.73598 6.02265 5.21309 5.64844 5.77761 5.64844H19.7777C20.3422 5.64844 20.8193 6.02256 20.9745 6.53634L12.7775 12.001L4.58079 6.53652ZM3.02758 6.92062V16.8984C3.02758 18.4172 4.25882 19.6484 5.77761 19.6484H19.7777C21.2965 19.6484 22.5278 18.4172 22.5278 16.8984V6.89844C22.5278 5.37965 21.2965 4.14844 19.7777 4.14844H5.77761C4.26478 4.14844 3.03726 5.37 3.02764 6.88056C3.02726 6.89393 3.02725 6.90728 3.02758 6.92062ZM4.52759 8.30384L12.3615 13.5264C12.6134 13.6943 12.9416 13.6943 13.1935 13.5264L21.0278 8.30362V16.8984C21.0278 17.5888 20.4681 18.1484 19.7777 18.1484H5.77761C5.08723 18.1484 4.52759 17.5888 4.52759 16.8984V8.30384Z" fill="#2977D7"/>
</svg>
