<svg width="20" height="21" viewBox="0 0 20 21" fill="none" xmlns="http://www.w3.org/2000/svg">
<path d="M8.33203 15.0156H11.6654" stroke="#2977D7" stroke-width="1.25" stroke-linecap="round" stroke-linejoin="round"/>
<path d="M1.66797 15.0156V6.68229C1.66797 3.34896 2.5013 2.51562 5.83464 2.51562" stroke="#2977D7" stroke-width="1.25" stroke-linecap="round" stroke-linejoin="round"/>
<path d="M18.3346 15.0156V6.68229C18.3346 3.34896 17.5013 2.51562 14.168 2.51562" stroke="#2977D7" stroke-width="1.25" stroke-linecap="round" stroke-linejoin="round"/>
<path d="M8.33464 13.6849V16.4266C8.33464 18.0932 7.66797 18.7599 6.0013 18.7599H4.0013C2.33464 18.7599 1.66797 18.0932 1.66797 16.4266V13.6849C1.66797 12.0182 2.33464 11.3516 4.0013 11.3516H6.0013C7.66797 11.3516 8.33464 12.0182 8.33464 13.6849Z" stroke="#2977D7" stroke-width="1.25" stroke-linecap="round" stroke-linejoin="round"/>
<path d="M18.3346 13.6849V16.4266C18.3346 18.0932 17.668 18.7599 16.0013 18.7599H14.0013C12.3346 18.7599 11.668 18.0932 11.668 16.4266V13.6849C11.668 12.0182 12.3346 11.3516 14.0013 11.3516H16.0013C17.668 11.3516 18.3346 12.0182 18.3346 13.6849Z" stroke="#2977D7" stroke-width="1.25" stroke-linecap="round" stroke-linejoin="round"/>
</svg>
