<svg width="18" height="17" viewBox="0 0 18 17" fill="none" xmlns="http://www.w3.org/2000/svg">
<g id="icon-linkedin" clip-path="url(#clip0_833_91695)">
<g id="Symbols">
<g id="menu-detail">
<g id="icon-linkedin_2">
<path id="Fill-1" fill-rule="evenodd" clip-rule="evenodd" d="M16.8448 16.2703H16.849V10.3342C16.849 7.43142 16.224 5.19531 12.8295 5.19531C11.1976 5.19531 10.1031 6.08976 9.6559 6.93837H9.60868V5.46615H6.39062V16.2703H9.74201V10.9203C9.74201 9.51198 10.0087 8.14948 11.7531 8.14948C13.4712 8.14948 13.4976 9.75642 13.4976 11.0106V16.2703H16.8448Z" fill="#EFF2F6"/>
<g id="Mask group">
<mask id="mask0_833_91695" style="mask-type:luminance" maskUnits="userSpaceOnUse" x="0" y="0" width="17" height="17">
<g id="Group">
<path id="Vector" d="M0.669922 16.2693H16.8533V0.0859375H0.669922V16.2693Z" fill="white"/>
</g>
</mask>
<g mask="url(#mask0_833_91695)">
<path id="Fill-3" fill-rule="evenodd" clip-rule="evenodd" d="M0.935547 16.2729H4.28971V5.46875H0.935547V16.2729Z" fill="#EFF2F6"/>
</g>
</g>
<g id="Mask group_2">
<mask id="mask1_833_91695" style="mask-type:luminance" maskUnits="userSpaceOnUse" x="0" y="0" width="17" height="17">
<g id="Group_2">
<path id="Vector_2" d="M0.669922 16.2693H16.8533V0.0859375H0.669922V16.2693Z" fill="white"/>
</g>
</mask>
<g mask="url(#mask1_833_91695)">
<path id="Fill-5" fill-rule="evenodd" clip-rule="evenodd" d="M2.61298 0.0859375C1.54076 0.0859375 0.669922 0.956771 0.669922 2.02899C0.669922 3.1026 1.54076 3.9901 2.61298 3.9901C3.68381 3.9901 4.55464 3.1026 4.55464 2.02899C4.55464 0.956771 3.68381 0.0859375 2.61298 0.0859375Z" fill="#EFF2F6"/>
</g>
</g>
</g>
</g>
</g>
</g>
<defs>
<clipPath id="clip0_833_91695">
<rect width="16.6667" height="16.6667" fill="white" transform="translate(0.666016 0.0859375)"/>
</clipPath>
</defs>
</svg>
