<svg width="41" height="41" viewBox="0 0 41 41" fill="none" xmlns="http://www.w3.org/2000/svg">
<path opacity="0.3" d="M32.5133 10.7001C30.7799 7.20012 27.4299 4.61678 23.5466 3.76678C19.4799 2.86678 15.3133 3.83345 12.1299 6.40012C8.92995 8.95012 7.11328 12.7668 7.11328 16.8501C7.11328 21.1668 9.69661 25.6834 13.5966 28.3001V29.6834C13.5799 30.1501 13.5633 30.8668 14.1299 31.4501C14.7133 32.0501 15.5799 32.1168 16.2633 32.1168H24.8133C25.7133 32.1168 26.3966 31.8668 26.8633 31.4001C27.4966 30.7501 27.4799 29.9168 27.4633 29.4668V28.3001C32.6299 24.8168 35.8799 17.4668 32.5133 10.7001Z" fill="#2977D7"/>
<path d="M25.932 36.763C25.832 36.763 25.7153 36.7464 25.6153 36.713C22.2653 35.763 18.7486 35.763 15.3986 36.713C14.782 36.8797 14.132 36.5297 13.9653 35.913C13.782 35.2964 14.1486 34.6464 14.7653 34.4797C18.532 33.413 22.4986 33.413 26.2653 34.4797C26.882 34.663 27.2486 35.2964 27.0653 35.913C26.8986 36.4297 26.432 36.763 25.932 36.763Z" fill="#2977D7"/>
<path d="M20.5006 23.1772C20.2839 23.1772 20.0673 23.1272 19.8839 23.0106C19.2839 22.6606 19.0839 21.8939 19.4173 21.3106L20.8339 18.8439H19.4339C18.6006 18.8439 17.9173 18.4772 17.5506 17.8606C17.1839 17.2272 17.2173 16.4606 17.6339 15.7272L19.4173 12.6272C19.7673 12.0272 20.5339 11.8272 21.1173 12.1606C21.7173 12.5106 21.9173 13.2772 21.5839 13.8606L20.1673 16.3439H21.5673C22.4006 16.3439 23.0839 16.7106 23.4506 17.3272C23.8173 17.9606 23.7839 18.7272 23.3673 19.4606L21.5839 22.5606C21.3506 22.9606 20.9339 23.1772 20.5006 23.1772Z" fill="#2977D7"/>
</svg>
