<svg width="20" height="21" viewBox="0 0 20 21" fill="none" xmlns="http://www.w3.org/2000/svg">
<path d="M10.8406 2.45313L15.7573 4.63646C17.174 5.26146 17.174 6.29479 15.7573 6.91979L10.8406 9.10312C10.2823 9.35312 9.36562 9.35312 8.80729 9.10312L3.89063 6.91979C2.47396 6.29479 2.47396 5.26146 3.89063 4.63646L8.80729 2.45313C9.36562 2.20312 10.2823 2.20312 10.8406 2.45313Z" stroke="#2977D7" stroke-width="1.25" stroke-linecap="round" stroke-linejoin="round"/>
<path d="M2.5 9.17969C2.5 9.87969 3.025 10.688 3.66667 10.9714L9.325 13.488C9.75833 13.6797 10.25 13.6797 10.675 13.488L16.3333 10.9714C16.975 10.688 17.5 9.87969 17.5 9.17969" stroke="#2977D7" stroke-width="1.25" stroke-linecap="round" stroke-linejoin="round"/>
<path d="M2.5 13.3516C2.5 14.1266 2.95833 14.8266 3.66667 15.1432L9.325 17.6599C9.75833 17.8516 10.25 17.8516 10.675 17.6599L16.3333 15.1432C17.0417 14.8266 17.5 14.1266 17.5 13.3516" stroke="#2977D7" stroke-width="1.25" stroke-linecap="round" stroke-linejoin="round"/>
</svg>
