<svg width="25" height="24" viewBox="0 0 25 24" fill="none" xmlns="http://www.w3.org/2000/svg">
<path fill-rule="evenodd" clip-rule="evenodd" d="M6.50002 4.75782C5.80965 4.75782 5.25001 5.31747 5.25001 6.00782V18.0078C5.25001 18.6982 5.80965 19.2578 6.50002 19.2578H18.5001C19.1905 19.2578 19.7502 18.6982 19.7502 18.0078V6.00782C19.7502 5.31747 19.1905 4.75782 18.5001 4.75782H6.50002ZM3.75 6.00782C3.75 4.48902 4.98123 3.25781 6.50002 3.25781H18.5001C20.0189 3.25781 21.2502 4.48902 21.2502 6.00782V18.0078C21.2502 19.5266 20.0189 20.7578 18.5001 20.7578H6.50002C4.98123 20.7578 3.75 19.5266 3.75 18.0078V6.00782ZM8.50781 10.2539C8.92203 10.2539 9.25782 10.5897 9.25782 11.0039V16.0039C9.25782 16.4181 8.92203 16.7539 8.50781 16.7539C8.0936 16.7539 7.75781 16.4181 7.75781 16.0039V11.0039C7.75781 10.5897 8.0936 10.2539 8.50781 10.2539ZM9.25782 8.00391C9.25782 7.58969 8.92203 7.2539 8.50781 7.2539C8.0936 7.2539 7.75781 7.58969 7.75781 8.00391V8.01141C7.75781 8.42562 8.0936 8.76141 8.50781 8.76141C8.92203 8.76141 9.25782 8.42562 9.25782 8.01141V8.00391ZM13.1327 10.6135C13.0009 10.3978 12.7634 10.2539 12.4922 10.2539C12.078 10.2539 11.7422 10.5897 11.7422 11.0039V13.0039V16.0039C11.7422 16.4181 12.078 16.7539 12.4922 16.7539C12.9064 16.7539 13.2422 16.4181 13.2422 16.0039V13.0039C13.2422 12.6724 13.3739 12.3544 13.6083 12.12C13.8427 11.8856 14.1607 11.7539 14.4922 11.7539C14.8237 11.7539 15.1417 11.8856 15.3761 12.12C15.6105 12.3544 15.7422 12.6724 15.7422 13.0039V16.0039C15.7422 16.4181 16.078 16.7539 16.4922 16.7539C16.9064 16.7539 17.2422 16.4181 17.2422 16.0039V13.0039C17.2422 12.2746 16.9525 11.5751 16.4368 11.0594C15.921 10.5436 15.2216 10.2539 14.4922 10.2539C14.0113 10.2539 13.5435 10.3798 13.1327 10.6135Z" fill="#2977D7"/>
</svg>
