<svg width="20" height="21" viewBox="0 0 20 21" fill="none" xmlns="http://www.w3.org/2000/svg">
<path d="M14.168 15.9818H10.8346L7.12629 18.4485C6.57629 18.8151 5.83464 18.4235 5.83464 17.7568V15.9818C3.33464 15.9818 1.66797 14.3152 1.66797 11.8152V6.8151C1.66797 4.3151 3.33464 2.64844 5.83464 2.64844H14.168C16.668 2.64844 18.3346 4.3151 18.3346 6.8151V11.8152C18.3346 14.3152 16.668 15.9818 14.168 15.9818Z" stroke="#2977D7" stroke-width="1.25" stroke-miterlimit="10" stroke-linecap="round" stroke-linejoin="round"/>
<path d="M10.0005 10.0937V9.91878C10.0005 9.35212 10.3505 9.0521 10.7005 8.81043C11.0422 8.5771 11.3838 8.27711 11.3838 7.72711C11.3838 6.96045 10.7672 6.34375 10.0005 6.34375C9.23383 6.34375 8.61719 6.96045 8.61719 7.72711" stroke="#2977D7" stroke-width="1.25" stroke-linecap="round" stroke-linejoin="round"/>
<path d="M9.99495 12.0807H10.0024" stroke="#2977D7" stroke-width="1.25" stroke-linecap="round" stroke-linejoin="round"/>
</svg>
