<svg width="96" height="38" viewBox="0 0 96 38" fill="none" xmlns="http://www.w3.org/2000/svg">
<g clip-path="url(#clip0_538_44648)">
<path d="M0.46875 5.75781V32.1134H40.6174L49.4819 5.75781H0.46875ZM40.2725 31.6052H0.98613V6.26595H48.792L40.2725 31.6052Z" fill="#2977D7"/>
<path d="M-0.0507812 5.25V32.6218H40.9947L50.204 5.25H-0.0507812ZM0.983978 31.6056V6.26628H48.7899L40.2703 31.6056H0.983978Z" fill="#2977D7"/>
<path d="M48.7864 6.26562L40.2668 31.6049H0.980469V6.26562H48.7864Z" fill="#2977D7"/>
<g opacity="0.2">
<path d="M8.51562 25.2081V13.7241H12.2408V15.1808C12.9996 14.2661 14.4827 13.4531 15.8969 13.4531V16.9762C15.69 16.9085 15.3795 16.8746 14.9656 16.8746C13.9998 16.8746 12.7236 17.2811 12.2408 17.9586V25.2081H8.51562Z" fill="#050D3D"/>
<path d="M16.9609 19.4492C16.9609 16.231 19.3409 13.4531 23.3075 13.4531C27.3085 13.4531 29.6885 16.231 29.6885 19.4492C29.6885 22.6674 27.3085 25.4791 23.3075 25.4791C19.3409 25.4791 16.9609 22.6674 16.9609 19.4492ZM25.8599 19.4492C25.8599 17.9248 24.9286 16.6713 23.3075 16.6713C21.6863 16.6713 20.7895 17.9248 20.7895 19.4492C20.7895 20.9736 21.6863 22.2609 23.3075 22.2609C24.9631 22.2609 25.8599 21.0075 25.8599 19.4492Z" fill="#050D3D"/>
<path d="M34.7984 25.2027L30.2109 13.7188H34.1085L36.7299 20.9682L39.3858 13.7188H43.3179L38.7305 25.1689H34.7984V25.2027Z" fill="#050D3D"/>
<path d="M52.0039 25.2081V13.7241H55.729V15.1808C56.4879 14.2661 57.971 13.4531 59.3852 13.4531V16.9762C59.1782 16.9085 58.8678 16.8746 58.4539 16.8746C57.4881 16.8746 56.2119 17.2811 55.729 17.9586V25.2081H52.0039Z" fill="black"/>
<path d="M66.6539 13.4531C70.1031 13.4531 72.621 15.96 72.621 19.8218V20.601H64.3084C64.5154 21.685 65.5501 22.6335 67.2747 22.6335C68.3095 22.6335 69.4822 22.227 70.1376 21.6511L71.6897 23.9208C70.517 24.9371 68.5854 25.4452 66.8263 25.4452C63.2392 25.4452 60.4453 23.1417 60.4453 19.4153C60.4453 16.1293 62.9977 13.4531 66.6539 13.4531ZM64.2739 18.2296H69.0683C68.9648 17.4166 68.3785 16.2648 66.6539 16.2648C65.0327 16.2648 64.4119 17.4166 64.2739 18.2296Z" fill="black"/>
<path d="M82.5237 25.2029V18.5632C82.5237 17.1743 81.7648 16.6662 80.6266 16.6662C79.5229 16.6662 78.7985 17.2759 78.3501 17.7841V25.1691H74.625V13.7189H78.3501V15.1079C79.04 14.2948 80.4197 13.4141 82.3857 13.4141C85.0416 13.4141 86.2488 14.9385 86.2488 17.0388V25.1352H82.5237V25.2029Z" fill="black"/>
</g>
<path d="M50.9656 0.552671L39.2031 36.8359L40.1891 37.1443L51.9517 0.861011L50.9656 0.552671Z" fill="#2977D7"/>
<path d="M8.13672 24.7524V13.3023H11.8619V14.7589C12.6207 13.8443 14.1038 13.0312 15.518 13.0312V16.5544C15.3111 16.4866 15.0006 16.4527 14.5867 16.4527C13.6209 16.4527 12.3447 16.8592 11.8619 17.5368V24.7862H8.13672V24.7524Z" fill="white"/>
<path d="M16.5781 18.9961C16.5781 15.7778 18.9581 13 22.9246 13C26.9257 13 29.3057 15.7778 29.3057 18.9961C29.3057 22.2143 26.9257 25.026 22.9246 25.026C18.9581 25.026 16.5781 22.2482 16.5781 18.9961ZM25.4771 18.9961C25.4771 17.4716 24.5458 16.2182 22.9246 16.2182C21.3035 16.2182 20.4067 17.4716 20.4067 18.9961C20.4067 20.5205 21.3035 21.8078 22.9246 21.8078C24.5803 21.8078 25.4771 20.5544 25.4771 18.9961Z" fill="white"/>
<path d="M34.4234 24.7548L29.8359 13.3047H33.768L36.3894 20.5542L39.0453 13.3047H42.9774L38.3899 24.7548H34.4234Z" fill="white"/>
<path d="M51.625 24.7524V13.3023H55.3501V14.7589C56.109 13.8443 57.5921 13.0312 59.0063 13.0312V16.5544C58.7993 16.4866 58.4889 16.4527 58.075 16.4527C57.1092 16.4527 55.833 16.8592 55.3501 17.5368V24.7862H51.625V24.7524Z" fill="#2977D7"/>
<path d="M66.276 13C69.7252 13 72.2431 15.5068 72.2431 19.3687V20.1478H63.9305C64.1375 21.2319 65.1722 22.1804 66.8968 22.1804C67.9316 22.1804 69.1043 21.7739 69.7597 21.198L71.3463 23.4677C70.1736 24.484 68.242 24.9921 66.4829 24.9921C62.8958 24.9921 60.1019 22.6886 60.1019 18.9622C60.0674 15.6762 62.6543 13 66.276 13ZM63.896 17.8104H68.6904C68.5869 16.9974 68.0006 15.8456 66.276 15.8456C64.6548 15.8456 64.034 16.9635 63.896 17.8104Z" fill="#2977D7"/>
<path d="M82.1487 24.755V18.1492C82.1487 16.7602 81.3898 16.2521 80.2516 16.2521C79.1479 16.2521 78.4235 16.8619 77.9751 17.37V24.755H74.25V13.3049H77.9751V14.6938C78.665 13.8808 80.0447 13 82.0107 13C84.6666 13 85.8738 14.5244 85.8738 16.6247V24.7211H82.1487V24.755Z" fill="#2977D7"/>
<path d="M88.5156 32.4132V31.2275H94.2068V25.6719H95.414V32.4132H88.5156Z" fill="#2977D7"/>
<path d="M95.4147 12.3299H94.2075V6.77423H88.5508V5.55469H95.4147V12.3299Z" fill="#2977D7"/>
</g>
<defs>
<clipPath id="clip0_538_44648">
<rect width="95.25" height="37.5" fill="white" transform="translate(0 0.25)"/>
</clipPath>
</defs>
</svg>
