<svg width="1024" height="1024" viewBox="0 0 1024 1024" fill="none" xmlns="http://www.w3.org/2000/svg">
<g clip-path="url(#clip0_4_185)">
<path d="M1024 0H0V1024H1024V0Z" fill="#316DB6"/>
<path opacity="0.14" d="M193 788V242.582H350.537V311.422C386.62 267.42 455.53 229 521 229V397.286C510.863 393.937 496.17 391.611 478.128 391.611C432.932 391.611 373.135 410.775 350.537 442.404V787.907H193V788Z" fill="black"/>
<path opacity="0.14" d="M484 595.087C484 487 562.756 394 693.087 394C825.071 394 903 487 903 595.087C903 703.173 825.071 797 693.087 797C562.653 797 484 703.173 484 595.087ZM777.424 595.087C777.424 544.247 747.244 502.087 693.19 502.087C639.962 502.087 610.506 544.247 610.506 595.087C610.506 646.753 639.962 688.913 693.19 688.913C747.141 688.913 777.424 646.753 777.424 595.087Z" fill="black"/>
<path d="M182 777V231.582H339.537V300.422C375.619 256.42 444.53 218 510 218V386.286C499.863 382.937 485.17 380.611 467.128 380.611C421.932 380.611 362.135 399.775 339.537 431.404V777H182Z" fill="white"/>
<path d="M472 583.087C472 475 550.756 382 681.087 382C813.071 382 891 475 891 583.087C891 691.173 813.071 785 681.087 785C550.756 785.103 472 691.277 472 583.087ZM765.424 583.087C765.424 532.247 735.244 490.087 681.19 490.087C627.962 490.087 598.506 532.247 598.506 583.087C598.506 634.753 627.962 676.913 681.19 676.913C735.244 676.913 765.424 634.753 765.424 583.087Z" fill="white"/>
<path d="M782 984V948.685H946.848V784H982V984H782Z" fill="white"/>
<path d="M41 784H76.3152V948.848H241V984H41V784Z" fill="white"/>
<path d="M240 42V77.2436H75.1515V242H40V42H240Z" fill="white"/>
<path d="M982 240H946.685V75.1515H782V40H982V240Z" fill="white"/>
</g>
<defs>
<clipPath id="clip0_4_185">
<rect width="1024" height="1024" fill="white"/>
</clipPath>
</defs>
</svg>
