<svg width="25" height="24" viewBox="0 0 25 24" fill="none" xmlns="http://www.w3.org/2000/svg">
<path d="M22.1291 3.90747C21.1291 4.39747 20.1491 4.59647 19.1291 4.89747C18.0081 3.63247 16.346 3.56247 14.749 4.16047C13.152 4.75847 12.106 6.22047 12.129 7.89747V8.89747C8.88397 8.98047 5.99394 7.50247 4.12893 4.89747C4.12893 4.89747 -0.053115 12.3305 8.12896 15.8975C6.25695 17.1445 4.38993 17.9855 2.12891 17.8975C5.43694 19.7005 9.04197 20.3205 12.163 19.4145C15.743 18.3745 18.6851 15.6915 19.8141 11.6725C20.1509 10.4501 20.3181 9.18733 20.3111 7.91947C20.3091 7.67047 21.8211 5.14747 22.1291 3.90647V3.90747Z" stroke="#2977D7" stroke-width="1.50001" stroke-linecap="round" stroke-linejoin="round"/>
</svg>
