<svg id="eHbtfMkPUNr1" xmlns="http://www.w3.org/2000/svg" xmlns:xlink="http://www.w3.org/1999/xlink" viewBox="0 0 546 318" shape-rendering="geometricPrecision" text-rendering="geometricPrecision"><g transform="matrix(.566905 0 0 0.615025-26.543693-6.110221)"><g transform="matrix(7.087977 0 0 3.408031-4.679313 10.931925)"><rect width="153.333" height="153.333" rx="0" ry="0" transform="matrix(.885127 0 0 0.992056 7.266036-.292562)" fill="#fff"/><g transform="translate(10 10)"><path d="M25.38,11.76C31.82,5.14,43.09,1.85,53.1,0.21c10.01-1.63,22.82-1.05,32.34,1.74c9.52,2.8,17.98,8.54,24.79,15.02c6.81,6.47,12.08,14.93,16.08,23.84s8.2,20.35,7.93,29.62c-.27,9.28-4.57,17.51-9.57,26.05s-12.81,19.05-20.42,25.2-16.42,10.36-25.24,11.67c-8.83,1.31-18.28-1.39-27.72-3.81s-21.19-4.72-28.91-10.7C14.67,112.85,8.4,102.62,5.01,93.62s-3.37-18.91-2.97-28.79c.4-9.87-3.48-19.82,5.37-30.46C16.27,23.73,41.8,5.8,55.17,0.98s32.3,3.13,32.46,4.45M29.58,11.48c6.76-6.41,16.95-12.23,26.58-13.95c9.62-1.71,21.36.5,31.17,3.65c9.82,3.15,20.34,8.55,27.74,15.26c7.39,6.7,13.65,15.63,16.64,24.95c2.98,9.33,2.63,20.98,1.27,31.01-1.36,10.02-4.13,20.65-9.42,29.15-5.3,8.49-14,16.66-22.38,21.81-8.37,5.14-18.71,8-27.9,9.07-9.18,1.07-18.73.45-27.18-2.65-8.46-3.11-16.38-9.63-23.54-15.99-7.17-6.35-15.97-12.71-19.44-22.15-3.48-9.44-2.74-24.45-1.41-34.48C3.04,47.14,6.1,39.29,11.1,31.48c4.99-7.81,17.65-17.54,20.58-21.17s-3.05-1.93-2.99-.61" fill="none" stroke="rgba(0,0,0,0)" stroke-linecap="round"/></g></g><g transform="matrix(1 0 0 0.983257-1.914183 7.999847)"><g transform="translate(384.942 17.3561)"><path d="M-1.78,-2.3c-1.41,83.72-6.85,420.28-7.66,503.96M2.45,2.62c-.49,83.03-5.08,411.87-6.89,495.3" fill="none" stroke="#ced4da" stroke-width="4" stroke-linecap="round"/></g></g><g transform="matrix(.833273 0 0 1 68.921802 28.4635)"><path d="M3.44,3.57L322.95,0.7l4.25,48.14L-2.79,47.27" fill="#fff" stroke-width="0" stroke-linecap="round"/><path d="M0.3,-2.61c112.03-1.02,220.92-2.35,324.3,2.1M0.87,-0.9c112.96-3.28,226.28-2.12,322.52,2.24m-1.16-3.57c4.23,15.89,1.84,27.7.47,43.6m2.29-40.25c-1.71,11.28-1.4,28.97-.62,45.85m-1.3-4.49c-101.08,1.73-202.18,4.54-323.26,2.73M322.86,44.2c-74.66-2.16-150.98-.68-323.59.21m.24.75c-1.05-11.33-1.8-25.8,2.03-44.59M-0.6,44.13c-.25-9.84-.56-20.17-.94-45.05" fill="none" stroke="#52d5eb" stroke-width="4" stroke-linecap="round"/></g><g transform="matrix(.831343 0 0 1 69.345138 87.4943)"><path d="M-0.82,0.7L347.97,3.84l-6.22,42.45L-3.14,44.64" fill="#fff" stroke-width="0" stroke-linecap="round"/><path d="M0.92,0.06c129.39,3.01,263.32,3.72,344.98-.59M0.03,-1.07c126.31,4.04,253.1,5.29,344.54.43m3.1.7c-2.73,14.45-4.54,28.79-2.41,47.22m-1.94-49.19c.83,17.54,2.35,32.21,1.57,45.07m.64-1.39C231.7,40.31,113.41,40.1,-1.67,42.84m347.18.69c-84.38-1.22-170.94-2.7-345.99,1.37m-.47-.18c-.63-19.49,2.6-33.89-2.41-47.66m1.85,45.97c-.05-13.24.23-25.17,3.23-41.25" fill="none" stroke="#52d5eb" stroke-width="4" stroke-linecap="round"/></g><g transform="matrix(.830225 0 0 1 17.963576 145.208)"><path d="M-1.44,-1.23c71.55.63,141.45.58,339.76,2.92M-0.42,0.03c79.18,4.95,158.72,3,337.85-.55m-.2-1.21c-1.1,9.09.69,26.96.14,49.15M335.58,1.47c.97,16.52.72,29.7,1.62,43.02m1.99.94c-73.22-4.1-145.1-5.51-340.65-2.2m339.21,2.7C254.34,42.74,173.1,44.2,1.12,44.84m-2.81-1.75C1.75,31.9,-3.15,14.71,-0.53,-1.2M-1.82,43.39c.96-10.86,4.22-19.71,1.41-43.04" transform="translate(59.68122 0)" fill="none" stroke="#52d5eb" stroke-width="4" stroke-linecap="round"/></g><g transform="matrix(.815994 0 0 1 68.980521 208.055)"><path d="M-2.79,2.27l308.7-1.66l6.81,43.66L-2.5,47.72" fill="#fff" stroke-width="0" stroke-linecap="round"/><path d="M0.85,-0.53c94.07,1.97,187.98,4.36,306.34.6M-0.4,1.39c67.99-2.17,136.51-2.03,308.65-.27m-.27-4.75c1.96,20.45,2.11,33.19,3.31,46.18M309.65,1.97c-.66,6.38-.31,15.95-2.42,43.78m1.63-.53c-67.91-.81-133.93-1.41-310.52,1.89M308.3,44.39c-80.96,4.63-160.43,3.51-308.24.27m1.48.91c-4.52-17.79-1.69-30.33-3.27-48.6m.19,47.11C2.54,35.52,0.41,22.83,1.71,1.92" fill="none" stroke="#52d5eb" stroke-width="4" stroke-linecap="round"/></g><g id="eHbtfMkPUNr22" transform="matrix(.92946 0 0 0.945839 72.307308 274.841436)"><path d="M-2.79,2.27l258.000882-3.522291.000008,47.476398L-2.5,47.72" fill="#fff" stroke-width="0" stroke-linecap="round"/><path d="M0.85,-0.53c94.07,1.97,187.98,4.36,306.34.6M-0.4,1.39c67.99-2.17,136.51-2.03,308.65-.27m-.27-4.75c1.96,20.45,2.11,33.19,3.31,46.18M309.65,1.97c-.66,6.38-.31,15.95-2.42,43.78m1.63-.53c-67.91-.81-133.93-1.41-310.52,1.89M308.3,44.39c-80.96,4.63-160.43,3.51-308.24.27m1.48.91c-4.52-17.79-1.69-30.33-3.27-48.6m.19,47.11C2.54,35.52,0.41,22.83,1.71,1.92" fill="none" stroke="#52d5eb" stroke-width="4" stroke-linecap="round"/></g><g id="eHbtfMkPUNr25" transform="matrix(.818934 0 0 1 69.945157 275.509)" opacity="0"><path d="M-3.14,0.61l363.51-1.34-6.17,41.28L-1.6,37.78" fill="#52d5eb" stroke-width="0" stroke-linecap="round"/><path d="M1.31,-0.51C92.5,2.45,179.87,0.9,354.62,-0.79M0.03,-0.62c108.53-4.27,214.61-2.78,356.69.85m.7,3.02c-.05,8.89,1.32,13.74-4.53,32.74m4.16-36.85c.58,14.48-1.94,29.87-2.06,40.69m.09-3.15C242.65,36.5,129.9,40.06,-0.95,40.21m357.19-1.53c-130.18-2.95-262.9-3.1-356.02-1.39m-3.58-2.4c2.54-7.81,1.34-19.17,1.37-38.53M1.72,39.62C0.17,29.88,2.3,23.14,-1.4,1.13" fill="none" stroke="#52d5eb" stroke-width="4" stroke-linecap="round"/></g><g transform="matrix(.823369 0 0 1 69.69204 334.511)"><path d="M-1.75,0.07c93.35-3.75,189.4-3.66,339.46-.01m-338.46,1c84.96.94,168.54.32,334.63-.82m3.47-2.69c-5.86,17.47.89,37.36,1.7,47.35M333.29,0.75c.42,12.6,2.44,21.81,1.97,42.18m-1.72,3.25c-84.9-2.44-167.49-6.37-334.69-2.96m336.31.66c-122.53-.8-246.13.29-334.97-.82m-1.92-1.89c-.14-10.62-1.37-20.08-.12-37.73M1.71,46.12c-2.92-17.99-3.1-36.02.13-46.49" fill="none" stroke="#3371e5" stroke-width="4" stroke-linecap="round"/></g><g transform="matrix(.839789 0 0 1 22.735914 400.874)"><path d="M-2.1,-0.8c130.54-.03,261.37.74,354.55,2.57M0.02,0.24c91.87-4.15,183.71-3.57,354.73.04m-4.86-2.12c7.25,19.26,8.26,34.99,2.08,48.25M351.99,2c1.21,10.22,1.05,21.45.81,41.91m-.06,3.49c-80.1-.41-165.83.01-351.04-.25m352.23-2.69c-102.64-.04-203.64-1.62-354.88.37m-1.04-3.47c-.84-11.59.53-17.21,5.56-42.18M-1.4,46.13c-.94-15.11,2.46-30.08.15-44.77" transform="translate(54.807 0)" fill="none" stroke="#3371e5" stroke-width="4" stroke-linecap="round"/></g><g transform="matrix(.851612 0 0 1 19.004876 463.983)"><path d="M0.05,-0.74c104.59,2.2,202.75,3.99,336.2-.76M-0.58,-0.36c126.93-.23,256.81-.18,338.68,1.11m2.13.45c.18,9.74-5.49,20.68-3.96,38.01m1.34-39.35c-.9,13.34-1.95,27.99-1.64,41.83m3.18-.25C210.19,46.1,87.16,49.32,-0.33,42.96m336.98.41c-92.39-3.56-186.78-2.61-337.05-1.1m-2.82-2.5C-1.42,36.68,4,22.8,0.7,3.43M-1.57,43.16c4-17.65.92-32.89.77-43.19" transform="translate(58.23244 4.736127)" fill="none" stroke="#3371e5" stroke-width="4" stroke-linecap="round"/></g><g id="eHbtfMkPUNr34" opacity="0"><g transform="translate(319.368 277.117)"><path d="M12.63,0.92c3.04-1.04,6.76-1.42,9.75.27c2.98,1.7,6.41,6.55,8.17,9.91c1.76,3.35,3.1,6.87,2.4,10.23-.69,3.36-3.55,7.56-6.57,9.92-3.03,2.37-7.84,4.45-11.58,4.27-3.73-.18-8.54-2.65-10.83-5.36-2.3-2.71-2.67-7.17-2.94-10.89-.28-3.72-.74-8.41,1.29-11.42c2.04-3,9.09-5.37,10.93-6.59c1.83-1.22,0-.95.07-.75m2.82-.46c3.7-.21,9.29.96,12.14,3.4s4.42,7.52,4.95,11.24c.52,3.73.2,7.91-1.79,11.09-2,3.19-6.68,6.57-10.16,8.03-3.49,1.45-7.62,1.85-10.78.69-3.15-1.15-6.25-4.05-8.16-7.62-1.9-3.57-3.91-9.77-3.28-13.8s4.1-8.39,7.08-10.39C9.12,0.7,15.35,1.52,16.94,1.1c1.6-.42-1.06-1.23-1.23-.94" fill="#fff" stroke-width="0" stroke-linecap="round"/><path d="M15.24,-0.17c3.54-.6,8.12,1.45,11.02,3.53c2.89,2.07,5.43,5.19,6.35,8.91s.86,9.78-.83,13.39c-1.69,3.6-6.07,6.97-9.31,8.23-3.24,1.27-6.77.39-10.14-.65-3.37-1.03-8.01-2.53-10.08-5.54s-2.93-8.91-2.33-12.53c.6-3.61,3.09-6.71,5.93-9.18C8.7,3.52,14.58,1.1,16.97,0.35s3.09.89,3.23,1.16m-8.88-1.72c3.07-.99,8.46-.04,11.92,1.5s7.28,4.54,8.83,7.75s1.48,7.79.45,11.5c-1.03,3.7-3.59,8.42-6.63,10.72-3.03,2.29-8.15,3.5-11.58,3.03-3.43-.46-6.7-3.27-9-5.81-2.3-2.53-4.3-5.93-4.78-9.4-.48-3.46-.22-8.52,1.92-11.4c2.14-2.87,9.16-4.53,10.93-5.83c1.77-1.29-.11-2.14-.31-1.93" fill="none" stroke="rgba(0,0,0,0)" stroke-width="2" stroke-linecap="round"/></g><g transform="translate(330.696 287.595)"><path d="M-2.51,-0.82q0,0,.1-.7.11-.7.67-2.17.57-1.47,1.46-2.49t2.36-1.67q1.48-.64,2.61-.72q1.14-.08,2.75.1q1.61.19,3.02.93t2.23,1.99q.83,1.26,1.15,2.3t.44,2.13q.13,1.09-.14,2.39-.27,1.31-1.08,2.51-.8,1.2-1.75,1.9-.96.7-2.47,1.3-1.52.6-1.51,1.73t.17,1.7q.16.58.13,1.18t-.25,1.16q-.23.55-.61,1.01-.39.46-.9.77-.52.31-1.1.44-.59.13-1.18.06-.6-.06-1.14-.31-.55-.25-.98-.66-.44-.42-.72-.94-.28-.53-.38-1.12-.1-.6,0-1.19t.38-1.12.71-.94.98-.67q.54-.25,1.14-.32.59-.06,1.18.07.58.13,1.1.43.51.31.9.77.39.45.61,1.01t.26,1.15q.03.6-.13,1.18t-.49,1.08q-.34.49-.82.85-.47.37-1.04.56t-1.17.19-1.16-.19q-.57-.19-1.05-.55t-.81-.86q-.34-.49-.34-.49t-.25-2.83q-.24-2.82-.03-3.91.22-1.09.55-2.1t1.22-1.78q.9-.76,1.91-1.2t2.22-.72q1.21-.27.99-1.45-.23-1.2-1.39-1.46t-2.07.56q-.91.83-1.1,1.51-.2.67-.3.97-.1.29-.27.55-.17.25-.39.46-.23.21-.49.37-.27.15-.57.23t-.6.09-.6-.06q-.3-.06-.58-.2-.28-.13-.51-.33-.24-.2-.42-.45t-.3-.53-.16-.59q-.05-.29-.02-.6t.03-.31v0Z" fill="#52d5eb"/></g><g transform="translate(334.472 305.285)"><path d="M0.82,-0.1c.09-.15-.88.19-.9.23-.02.03.64-.09.76-.01s.03.17-.05.5-.33,1.21-.42,1.47c-.09.27-.06.26-.12.14s-.31-.7-.23-.86c.08-.15.79-.03.72-.09-.08-.05-1.12.05-1.16-.23-.03-.27.76-1.2.93-1.43s.12-.09.08.06m-.05-.5c.16-.1.25.57.42.8s.68.47.6.58c-.09.11-1.12-.18-1.13.06c0,.23,1.08,1,1.11,1.37.04.37-.52.89-.89.86-.37-.04-1.37-.9-1.33-1.05s1.39.32,1.55.14c.16-.17-.48-.85-.59-1.18-.11-.32-.15-.53-.07-.76.07-.22.51-.67.52-.56" fill="#52d5eb" stroke-width="0" stroke-linecap="round"/><path d="M0.03,0.69c.2-.13.85-.64.94-.68.08-.05-.42.31-.42.43s.4.03.42.29c.01.27-.32.97-.32,1.29s.51.57.32.62c-.2.05-1.43-.03-1.5-.34-.06-.32,1.11-1.24,1.11-1.55c0-.32-1.14-.14-1.12-.33.03-.2,1.05-.81,1.27-.84s.05.65.06.66m-.55.11c.17-.01,1.43-.63,1.43-.66s-1.33.03-1.42.5c-.08.47.72,2.09.89,2.29.18.21.44-1.02.18-1.05-.26-.04-1.61.96-1.75.84-.13-.12.79-1.33.92-1.55.12-.22-.26.44-.16.24.1-.21.74-1.15.73-1.47c0-.33-.77-.56-.76-.48.02.09.72.95.84.99" fill="none" stroke="#52d5eb" stroke-width="4" stroke-linecap="round"/></g></g><g><g transform="translate(279.38 214.033)"><path d="M12.31,0.85c3.08-.88,8.01-.69,11.16.98c3.14,1.67,6.39,5.64,7.72,9.04s1.16,7.75.25,11.36c-.9,3.61-2.65,8.12-5.67,10.31s-8.71,3.37-12.44,2.83c-3.73-.55-7.54-3.26-9.92-6.09-2.39-2.83-4.28-7.19-4.39-10.89s1.13-8.16,3.75-11.33C5.38,3.9,12.87,0.6,14.71,-0.61s-.7.09-.88.41m-.36-.98c3.26-.35,7.53,3.1,10.73,5.25c3.2,2.14,7.27,4.18,8.48,7.62s.04,9.41-1.22,13.01-3.12,6.81-6.33,8.6c-3.22,1.79-9.5,3.23-12.95,2.16-3.45-1.06-5.82-5.39-7.74-8.56s-3.95-7.08-3.8-10.46s2.61-7.12,4.7-9.8c2.08-2.69,6.4-5.06,7.81-6.32c1.41-1.25.68-1.56.65-1.22" fill="#52d5eb" stroke-width="0" stroke-linecap="round"/><path d="M16.48,-0.71c3.49-.29,8.04,2.12,10.77,4.49c2.72,2.36,4.95,5.81,5.57,9.68s.09,10.09-1.83,13.51c-1.92,3.43-6.3,5.88-9.69,7.04-3.39,1.15-7.34,1.34-10.65-.11s-7.63-5.32-9.22-8.61c-1.6-3.28-1.15-7.59-.35-11.1.8-3.5,2.35-7.62,5.16-9.91s9.54-3.26,11.7-3.85c2.17-.59,1.33-.03,1.28.31M9.85,0.51c3.4-1.73,9.87-1.58,13.43-.31c3.57,1.27,6.32,4.54,7.96,7.91c1.63,3.38,2.89,8.37,1.85,12.35-1.05,3.98-5.13,9.01-8.12,11.53s-6.44,3.85-9.81,3.61c-3.37-.25-7.95-2.52-10.41-5.09-2.47-2.57-4.07-6.63-4.37-10.34-.29-3.71.58-8.96,2.61-11.93c2.02-2.97,8.12-4.95,9.57-5.91s-.88.24-.89.15" fill="none" stroke="rgba(0,0,0,0)" stroke-width="2" stroke-linecap="round"/></g><g transform="translate(290.424 225.186)"><path d="M-2.51,-0.82q0,0,.1-.7.11-.7.67-2.17.57-1.47,1.46-2.49t2.36-1.67q1.48-.64,2.61-.72q1.14-.08,2.75.1q1.61.19,3.02.93t2.23,1.99q.83,1.26,1.15,2.3t.44,2.13q.13,1.09-.14,2.39-.27,1.31-1.08,2.51-.8,1.2-1.75,1.9-.96.7-2.47,1.3-1.52.6-1.51,1.73t.17,1.7q.16.58.13,1.18t-.25,1.16q-.23.55-.61,1.01-.39.46-.9.77-.52.31-1.1.44-.59.13-1.18.06-.6-.06-1.14-.31-.55-.25-.98-.66-.44-.42-.72-.94-.28-.53-.38-1.12-.1-.6,0-1.19t.38-1.12.71-.94.98-.67q.54-.25,1.14-.32.59-.06,1.18.07.58.13,1.1.43.51.31.9.77.39.45.61,1.01t.26,1.15q.03.6-.13,1.18t-.49,1.08q-.34.49-.82.85-.47.37-1.04.56t-1.17.19-1.16-.19q-.57-.19-1.05-.55t-.81-.86q-.34-.49-.34-.49t-.25-2.83q-.24-2.82-.03-3.91.22-1.09.55-2.1t1.22-1.78q.9-.76,1.91-1.2t2.22-.72q1.21-.27.99-1.45-.23-1.2-1.39-1.46t-2.07.56q-.91.83-1.1,1.51-.2.67-.3.97-.1.29-.27.55-.17.25-.39.46-.23.21-.49.37-.27.15-.57.23t-.6.09-.6-.06q-.3-.06-.58-.2-.28-.13-.51-.33-.24-.2-.42-.45t-.3-.53-.16-.59q-.05-.29-.02-.6t.03-.31v0Z" fill="#fff"/></g><g transform="translate(294.2 242.876)"><path d="M0.3,-0.08c.1-.02,0-.23.19-.02.19.22.95.93.92,1.31s-.87.78-1.11.96c-.23.17-.18.07-.31.08-.12.02-.37.1-.45.01s-.2-.2-.02-.55c.19-.35,1.1-1.22,1.12-1.56.03-.33-.88-.35-.96-.43-.07-.09.42-.1.52-.09.1,0,.1.06.08.11m.62.14c.15-.15-.43.59-.33.76s.97.07.91.28-1.21.99-1.25,1s.92-.91,1.01-.94c.1-.03-.4.55-.45.78s.37.66.15.58c-.22-.09-1.29-.6-1.45-1.07s.46-1.59.46-1.74-.58.91-.46.85s1.03-1.3,1.2-1.2" fill="#fff" stroke-width="0" stroke-linecap="round"/><path d="M0.65,-0.51c.07.06.33,1.03.27,1.25-.05.22-.57-.05-.62.05-.05.11.38.5.34.58s-.62-.18-.58-.1c.05.08.79.49.86.58.06.1-.33.07-.47-.01-.14-.09-.3-.27-.39-.5s-.19-.74-.15-.88c.04-.15.38.13.38-.01.01-.14-.47-.69-.36-.83m.86-.27c.06.04.55.22.38.56-.16.34-1.23,1.15-1.38,1.49-.16.34.43.48.47.58s-.24-.01-.22.02c.03.02.31.21.38.14s-.04-.53.05-.57.52.4.51.33-.55-.37-.55-.77c0-.39.58-1.3.54-1.63-.05-.32-.64-.46-.81-.33" fill="none" stroke="#fff" stroke-width="4" stroke-linecap="round"/></g></g><g id="eHbtfMkPUNr52" transform="translate(39.850092 63.447114)"><g transform="translate(279.38 214.033)"><path d="M12.31,0.85c3.08-.88,8.01-.69,11.16.98c3.14,1.67,6.39,5.64,7.72,9.04s1.16,7.75.25,11.36c-.9,3.61-2.65,8.12-5.67,10.31s-8.71,3.37-12.44,2.83c-3.73-.55-7.54-3.26-9.92-6.09-2.39-2.83-4.28-7.19-4.39-10.89s1.13-8.16,3.75-11.33C5.38,3.9,12.87,0.6,14.71,-0.61s-.7.09-.88.41m-.36-.98c3.26-.35,7.53,3.1,10.73,5.25c3.2,2.14,7.27,4.18,8.48,7.62s.04,9.41-1.22,13.01-3.12,6.81-6.33,8.6c-3.22,1.79-9.5,3.23-12.95,2.16-3.45-1.06-5.82-5.39-7.74-8.56s-3.95-7.08-3.8-10.46s2.61-7.12,4.7-9.8c2.08-2.69,6.4-5.06,7.81-6.32c1.41-1.25.68-1.56.65-1.22" fill="#52d5eb" stroke-width="0" stroke-linecap="round"/><path d="M16.48,-0.71c3.49-.29,8.04,2.12,10.77,4.49c2.72,2.36,4.95,5.81,5.57,9.68s.09,10.09-1.83,13.51c-1.92,3.43-6.3,5.88-9.69,7.04-3.39,1.15-7.34,1.34-10.65-.11s-7.63-5.32-9.22-8.61c-1.6-3.28-1.15-7.59-.35-11.1.8-3.5,2.35-7.62,5.16-9.91s9.54-3.26,11.7-3.85c2.17-.59,1.33-.03,1.28.31M9.85,0.51c3.4-1.73,9.87-1.58,13.43-.31c3.57,1.27,6.32,4.54,7.96,7.91c1.63,3.38,2.89,8.37,1.85,12.35-1.05,3.98-5.13,9.01-8.12,11.53s-6.44,3.85-9.81,3.61c-3.37-.25-7.95-2.52-10.41-5.09-2.47-2.57-4.07-6.63-4.37-10.34-.29-3.71.58-8.96,2.61-11.93c2.02-2.97,8.12-4.95,9.57-5.91s-.88.24-.89.15" fill="none" stroke="rgba(0,0,0,0)" stroke-width="2" stroke-linecap="round"/></g><g transform="translate(290.424 225.186)"><path d="M-2.51,-0.82q0,0,.1-.7.11-.7.67-2.17.57-1.47,1.46-2.49t2.36-1.67q1.48-.64,2.61-.72q1.14-.08,2.75.1q1.61.19,3.02.93t2.23,1.99q.83,1.26,1.15,2.3t.44,2.13q.13,1.09-.14,2.39-.27,1.31-1.08,2.51-.8,1.2-1.75,1.9-.96.7-2.47,1.3-1.52.6-1.51,1.73t.17,1.7q.16.58.13,1.18t-.25,1.16q-.23.55-.61,1.01-.39.46-.9.77-.52.31-1.1.44-.59.13-1.18.06-.6-.06-1.14-.31-.55-.25-.98-.66-.44-.42-.72-.94-.28-.53-.38-1.12-.1-.6,0-1.19t.38-1.12.71-.94.98-.67q.54-.25,1.14-.32.59-.06,1.18.07.58.13,1.1.43.51.31.9.77.39.45.61,1.01t.26,1.15q.03.6-.13,1.18t-.49,1.08q-.34.49-.82.85-.47.37-1.04.56t-1.17.19-1.16-.19q-.57-.19-1.05-.55t-.81-.86q-.34-.49-.34-.49t-.25-2.83q-.24-2.82-.03-3.91.22-1.09.55-2.1t1.22-1.78q.9-.76,1.91-1.2t2.22-.72q1.21-.27.99-1.45-.23-1.2-1.39-1.46t-2.07.56q-.91.83-1.1,1.51-.2.67-.3.97-.1.29-.27.55-.17.25-.39.46-.23.21-.49.37-.27.15-.57.23t-.6.09-.6-.06q-.3-.06-.58-.2-.28-.13-.51-.33-.24-.2-.42-.45t-.3-.53-.16-.59q-.05-.29-.02-.6t.03-.31v0Z" fill="#fff"/></g><g transform="translate(294.2 242.876)"><path d="M0.3,-0.08c.1-.02,0-.23.19-.02.19.22.95.93.92,1.31s-.87.78-1.11.96c-.23.17-.18.07-.31.08-.12.02-.37.1-.45.01s-.2-.2-.02-.55c.19-.35,1.1-1.22,1.12-1.56.03-.33-.88-.35-.96-.43-.07-.09.42-.1.52-.09.1,0,.1.06.08.11m.62.14c.15-.15-.43.59-.33.76s.97.07.91.28-1.21.99-1.25,1s.92-.91,1.01-.94c.1-.03-.4.55-.45.78s.37.66.15.58c-.22-.09-1.29-.6-1.45-1.07s.46-1.59.46-1.74-.58.91-.46.85s1.03-1.3,1.2-1.2" fill="#fff" stroke-width="0" stroke-linecap="round"/><path d="M0.65,-0.51c.07.06.33,1.03.27,1.25-.05.22-.57-.05-.62.05-.05.11.38.5.34.58s-.62-.18-.58-.1c.05.08.79.49.86.58.06.1-.33.07-.47-.01-.14-.09-.3-.27-.39-.5s-.19-.74-.15-.88c.04-.15.38.13.38-.01.01-.14-.47-.69-.36-.83m.86-.27c.06.04.55.22.38.56-.16.34-1.23,1.15-1.38,1.49-.16.34.43.48.47.58s-.24-.01-.22.02c.03.02.31.21.38.14s-.04-.53.05-.57.52.4.51.33-.55-.37-.55-.77c0-.39.58-1.3.54-1.63-.05-.32-.64-.46-.81-.33" fill="none" stroke="#fff" stroke-width="4" stroke-linecap="round"/></g></g><g><g transform="translate(306.734 339.678)"><path d="M13.05,-0.05c3.27-1.1,7.37-.28,10.26,1.57c2.9,1.85,5.51,6.03,7.11,9.52c1.59,3.49,3.16,7.86,2.46,11.43s-3.71,7.91-6.68,9.97-7.43,2.98-11.14,2.38-8.73-3.47-11.11-5.97c-2.38-2.51-2.97-5.56-3.18-9.05-.21-3.48-.61-8.48,1.91-11.86c2.53-3.38,10.57-7.06,13.23-8.41s2.97-.11,2.75.31m4.26,2.89c2.87,1.04,5.73,3.58,7.28,6.97s3,9.61,2.03,13.39c-.96,3.78-4.94,7.52-7.83,9.29-2.88,1.77-6.31,1.9-9.48,1.34-3.18-.56-7.13-2.01-9.58-4.69C2.9,26.36,0.81,21.3,0.27,17.68c-.54-3.63-.3-7.35,1.82-10.4c2.13-3.05,7.33-7.01,10.95-7.9c3.62-.9,9.16,2.17,10.77,2.51s-.85-.79-1.09-.46" fill="#3371e5" stroke-width="0" stroke-linecap="round"/><path d="M13.29,-0.4c3.07-.99,7.39,1.29,10.47,3.24c3.09,1.95,6.81,5.31,8.02,8.47s.51,7.05-.74,10.48-3.82,7.97-6.75,10.11c-2.94,2.14-7.48,3.31-10.87,2.76-3.38-.56-7.32-3.34-9.43-6.08-2.1-2.75-3.15-6.77-3.2-10.39-.04-3.62.07-8.31,2.94-11.34s11.19-6.03,14.27-6.85c3.07-.81,4.28,1.7,4.2,1.96m-7.51-2.04c3.28-.57,7.87,1.63,10.6,3.8c2.73,2.18,4.63,5.58,5.79,9.23c1.16,3.66,2.38,9.46,1.15,12.7s-5.33,5.37-8.51,6.77c-3.17,1.39-7.28,2.29-10.54,1.59-3.27-.7-6.79-2.81-9.02-5.78-2.23-2.96-4.29-7.97-4.38-12.01C-0.3,12.18,1.42,6.71,3.66,4c2.24-2.72,7.52-3.55,9.56-4.04c2.03-.5,2.2.7,2.67,1.07" fill="none" stroke="rgba(0,0,0,0)" stroke-width="2" stroke-linecap="round"/></g><g transform="translate(317.779 350.83)"><path d="M-2.51,-0.82q0,0,.1-.7.11-.7.67-2.17.57-1.47,1.46-2.49t2.36-1.67q1.48-.64,2.61-.72q1.14-.08,2.75.1q1.61.19,3.02.93t2.23,1.99q.83,1.26,1.15,2.3t.44,2.13q.13,1.09-.14,2.39-.27,1.31-1.08,2.51-.8,1.2-1.75,1.9-.96.7-2.47,1.3-1.52.6-1.51,1.73t.17,1.7q.16.58.13,1.18t-.25,1.16q-.23.55-.61,1.01-.39.46-.9.77-.52.31-1.1.44-.59.13-1.18.06-.6-.06-1.14-.31-.55-.25-.98-.66-.44-.42-.72-.94-.28-.53-.38-1.12-.1-.6,0-1.19t.38-1.12.71-.94.98-.67q.54-.25,1.14-.32.59-.06,1.18.07.58.13,1.1.43.51.31.9.77.39.45.61,1.01t.26,1.15q.03.6-.13,1.18t-.49,1.08q-.34.49-.82.85-.47.37-1.04.56t-1.17.19-1.16-.19q-.57-.19-1.05-.55t-.81-.86q-.34-.49-.34-.49t-.25-2.83q-.24-2.82-.03-3.91.22-1.09.55-2.1t1.22-1.78q.9-.76,1.91-1.2t2.22-.72q1.21-.27.99-1.45-.23-1.2-1.39-1.46t-2.07.56q-.91.83-1.1,1.51-.2.67-.3.97-.1.29-.27.55-.17.25-.39.46-.23.21-.49.37-.27.15-.57.23t-.6.09-.6-.06q-.3-.06-.58-.2-.28-.13-.51-.33-.24-.2-.42-.45t-.3-.53-.16-.59q-.05-.29-.02-.6t.03-.31v0Z" fill="#fff"/></g><g transform="translate(321.555 368.521)"><path d="M-0.11,0.67c.15.01,1.05-.28,1.26-.21.21.08.03.52-.01.67-.04.16-.06.22-.24.25s-.83-.27-.84-.05c-.02.21.77,1.2.75,1.33-.02.12-.86-.25-.89-.57s.59-1.01.71-1.36c.11-.35.08-.63-.03-.72s-.68.15-.62.17c.06.03.85.03,1-.02m-.32.47c.07.15-.69.17-.64.13s.76-.47.96-.37c.19.11.26.83.19,1-.06.17-.3-.08-.58.01-.27.1-1.06.7-1.07.56-.02-.14.85-1.17.99-1.37.13-.21-.09.3-.2.15s-.44-.99-.45-1.04c-.01-.06.27.49.38.7.11.22.22.72.3.58" fill="#fff" stroke-width="0" stroke-linecap="round"/><path d="M0.56,0.33c.01-.27-.46-.9-.5-.89s.2.66.25.97.01.69.04.88.03.1.12.25c.09.14.43.57.41.62-.03.06-.42-.11-.57-.29-.14-.19-.18-.58-.28-.8-.11-.22-.35-.32-.33-.53.02-.2.35-.59.44-.68.08-.1.02.07.09.13m-.41.3c.2.02,1.31.73,1.5.75.18.01-.39-.68-.41-.64-.01.04.27.57.32.89.04.32.16.92-.03,1.03-.19.12-.81-.07-1.09-.35-.29-.27-.45-1.11-.61-1.3-.16-.2-.6.14-.34.13.25,0,1.53-.05,1.88-.15.35-.09.41-.47.22-.44s-1.13.75-1.37.64" fill="none" stroke="#fff" stroke-width="4" stroke-linecap="round"/></g></g><g><g transform="translate(308.605 150.102)"><path d="M24.1,1.84c2.97,1.22,5.15,4.81,6.3,8.23c1.14,3.41,1.52,8.6.58,12.25s-3.36,7.41-6.23,9.64c-2.86,2.23-7.47,4.12-10.95,3.75s-7.63-3.06-9.91-5.97c-2.28-2.92-3.58-7.59-3.77-11.5-.2-3.91.6-9.15,2.6-11.96s5.22-4.57,9.4-4.9c4.19-.34,12.6,1.38,15.73,2.88s3.3,5.72,3.06,6.11M7.95,2.26c2.95-1.29,7.94-1.36,11.58-.33c3.65,1.02,8.25,3.78,10.3,6.46c2.05,2.69,2.33,5.94,1.98,9.66-.35,3.71-1.73,9.97-4.07,12.63-2.34,2.67-6.67,2.94-9.95,3.34-3.28.39-6.65,1.17-9.72-.95C5,30.94,0.25,25.15,-0.61,21.28s1.97-8.15,3.53-11.42s4.96-6.89,5.85-8.2c.88-1.3-.69.21-.55.38" fill="#52d5eb" stroke-width="0" stroke-linecap="round"/><path d="M10.14,1.54c3.28-1.41,8.64-.84,11.97.25c3.32,1.09,6.3,3.45,7.97,6.31c1.68,2.87,2.55,7.05,2.06,10.9-.5,3.86-2.53,9.68-5.04,12.22-2.5,2.54-6.55,3.11-10,3.02-3.45-.1-8.05-1.41-10.7-3.61-2.66-2.21-4.37-6.06-5.25-9.62-.88-3.55-1.74-8.22-.06-11.72C2.78,5.79,9.42,1.23,11.27,0s.73,1.54.92,1.88m8.45-1.09c3.05,1.08,7.86,4.17,9.76,7.46c1.9,3.3,2.35,8.63,1.65,12.29-.69,3.67-3.38,7.12-5.8,9.71-2.41,2.6-5.54,5.85-8.69,5.86-3.16,0-7.39-3.21-10.25-5.83s-6.19-6.63-6.94-9.91c-.75-3.27.57-6.79,2.43-9.72C4.67,7.72,8.55,4.68,11.55,2.8s7.7-3.14,9.24-3.43c1.54-.28-.08,1.08-.01,1.71" fill="none" stroke="rgba(0,0,0,0)" stroke-width="2" stroke-linecap="round"/></g><g transform="translate(319.65 161.255)"><path d="M-2.51,-0.82q0,0,.1-.7.11-.7.67-2.17.57-1.47,1.46-2.49t2.36-1.67q1.48-.64,2.61-.72q1.14-.08,2.75.1q1.61.19,3.02.93t2.23,1.99q.83,1.26,1.15,2.3t.44,2.13q.13,1.09-.14,2.39-.27,1.31-1.08,2.51-.8,1.2-1.75,1.9-.96.7-2.47,1.3-1.52.6-1.51,1.73t.17,1.7q.16.58.13,1.18t-.25,1.16q-.23.55-.61,1.01-.39.46-.9.77-.52.31-1.1.44-.59.13-1.18.06-.6-.06-1.14-.31-.55-.25-.98-.66-.44-.42-.72-.94-.28-.53-.38-1.12-.1-.6,0-1.19t.38-1.12.71-.94.98-.67q.54-.25,1.14-.32.59-.06,1.18.07.58.13,1.1.43.51.31.9.77.39.45.61,1.01t.26,1.15q.03.6-.13,1.18t-.49,1.08q-.34.49-.82.85-.47.37-1.04.56t-1.17.19-1.16-.19q-.57-.19-1.05-.55t-.81-.86q-.34-.49-.34-.49t-.25-2.83q-.24-2.82-.03-3.91.22-1.09.55-2.1t1.22-1.78q.9-.76,1.91-1.2t2.22-.72q1.21-.27.99-1.45-.23-1.2-1.39-1.46t-2.07.56q-.91.83-1.1,1.51-.2.67-.3.97-.1.29-.27.55-.17.25-.39.46-.23.21-.49.37-.27.15-.57.23t-.6.09-.6-.06q-.3-.06-.58-.2-.28-.13-.51-.33-.24-.2-.42-.45t-.3-.53-.16-.59q-.05-.29-.02-.6t.03-.31v0Z" fill="#fff"/></g><g transform="translate(323.426 178.945)"><path d="M-0.21,-0.12c.13.04.46.04.57.31.1.27.06,1.04.06,1.31.01.27-.05.25-.02.32.02.07.27.15.19.11s-.55-.4-.69-.36-.18.84-.16.62c.02-.21.17-1.64.27-1.9.11-.26.32.37.36.35s-.04-.3-.12-.48c-.09-.18-.32-.5-.38-.61m.76,1.18c.09-.22-.43-1.06-.42-.9c0,.16.39,1.63.47,1.85.07.22-.09-.72-.01-.51.08.2.69,1.7.48,1.74-.21.05-1.71-1.19-1.74-1.47-.02-.29,1.54-.1,1.59-.22.04-.12-1.06-.34-1.33-.51-.26-.17-.38-.34-.29-.53.09-.18.69-.58.84-.58.14,0,0,.34.04.57" fill="#fff" stroke-width="0" stroke-linecap="round"/><path d="M0.44,-0.01c-.04-.18-.01-.46.04-.2.04.26.15,1.51.21,1.75.05.24.16-.33.13-.31-.02.02-.27.31-.28.42-.01.12.38.29.21.26-.17-.04-1.12-.16-1.23-.44-.11-.29.47-1.18.57-1.28.09-.1-.14.75,0,.67s.72-1.12.85-1.15.11.94-.06.96m-.74-.14c-.07-.03-.34-.52-.17-.33.17.2.97,1.38,1.21,1.5.23.12.3-.74.2-.78-.11-.03-.78.25-.86.58-.08.32.28,1.22.37,1.39.08.18.33.17.14-.33-.2-.5-1.12-2.26-1.31-2.66-.19-.39.02.21.19.3s.6.1.81.23c.22.12.4.62.5.51" fill="none" stroke="#fff" stroke-width="4" stroke-linecap="round"/></g></g><g><g transform="translate(316.521 91.8686)"><path d="M9.68,2.15c2.83-1.54,6.16-1.52,9.38-.78c3.21.75,7.96,2.29,9.91,5.27c1.96,2.98,2.16,9.01,1.83,12.59-.33,3.59-1.62,6.37-3.79,8.91-2.18,2.54-5.74,6.07-9.28,6.35-3.55.27-9.09-2.45-12-4.71-2.91-2.25-4.65-5.47-5.47-8.82s-1.36-8.03.54-11.29C2.7,6.42,9.48,2.92,11.66,1.45c2.19-1.47,2.38-.63,2.27-.59M17.48,0c3.25-.32,6.97,1.46,9.49,4.11c2.51,2.65,5.46,8.16,5.62,11.8.15,3.65-2.84,7.09-4.69,10.08-1.85,3-3.33,6.81-6.4,7.92-3.08,1.1-8.54.18-12.05-1.31-3.52-1.5-7.68-4.16-9.02-7.69-1.35-3.53-.12-9.95.94-13.47C2.42,7.91,4.26,5.51,6.76,3.78s7.79-2.35,9.62-2.72c1.83-.36,1.28.52,1.35.54" fill="#52d5eb" stroke-width="0" stroke-linecap="round"/><path d="M23.22,1.89c3.05,1.52,6.13,4.94,7.51,8.28c1.37,3.34,1.91,8.25.73,11.76-1.17,3.51-4.72,7.46-7.77,9.31-3.05,1.86-7.2,2.5-10.53,1.84-3.32-.67-7.4-3.15-9.43-5.83C1.71,24.57,0.91,20.58,1,16.99C1.1,13.4,2.5,8.42,4.29,5.71C6.07,3,8.49,1.14,11.71,0.72c3.23-.42,10.01,2.03,11.93,2.5s-.13.12-.42.31M21.69,1.41c3.22.46,6.7,2.58,8.45,5.24s2.57,7.12,2.03,10.72c-.53,3.6-2.63,7.97-5.21,10.86-2.59,2.9-6.71,6.3-10.28,6.5-3.58.19-8.47-3.02-11.19-5.34-2.72-2.33-4.68-5.17-5.12-8.59s.75-8.58,2.47-11.94c1.73-3.35,4.79-7.05,7.88-8.19c3.08-1.14,9.3,1.45,10.65,1.37s-2.31-1.68-2.56-1.85" fill="none" stroke="rgba(0,0,0,0)" stroke-width="2" stroke-linecap="round"/></g><g transform="translate(327.152 102.604)"><path d="M-2.51,-0.8q0,0,.1-.68t.66-2.11q.55-1.44,1.42-2.43.86-.99,2.3-1.62t2.54-.71q1.1-.09,2.66.09q1.57.19,2.95.91t2.19,1.94q.81,1.23,1.18,2.56.38,1.32.18,3.35-.21,2.03-.99,3.21-.79,1.17-1.72,1.86-.93.68-2.41,1.27-1.48.58-1.42,1.58.05.99.21,1.57t.13,1.17q-.03.6-.25,1.16-.22.55-.61,1.01-.38.45-.9.76-.51.31-1.09.44-.59.13-1.18.07-.59-.07-1.14-.32-.54-.25-.97-.66-.44-.41-.72-.94-.28-.52-.38-1.11t0-1.18.38-1.12q.27-.53.71-.94.43-.41.97-.66.55-.26,1.14-.32.59-.07,1.18.06.58.13,1.09.43.52.31.9.77.39.45.61,1.01.23.55.26,1.15t-.13,1.17q-.16.58-.49,1.07-.34.5-.81.86-.48.36-1.04.56-.57.19-1.17.19-.59,0-1.16-.19t-1.04-.55q-.48-.36-.82-.86-.33-.49-.33-.49t-.25-2.48q-.25-2.49-.1-3.74t.54-2.32t1.28-1.83q.89-.75,1.88-1.18.99-.44,2.1-.64q1.12-.19.97-1.28-.16-1.1-1.25-1.36-1.09-.27-1.95.5-.86.76-1.05,1.42-.19.64-.29.93t-.26.55q-.17.26-.4.47-.22.21-.49.36t-.56.23q-.3.08-.6.09t-.6-.05q-.3-.07-.58-.2-.27-.14-.51-.34-.23-.19-.42-.44-.18-.25-.29-.53-.12-.29-.17-.59-.04-.29-.01-.6.02-.31.02-.3v0Z" fill="#fff"/></g><g transform="translate(330.787 119.633)"><path d="M0.66,-0.49c.13.04-.36,1.18-.29,1.35.06.18.53-.52.68-.27.16.25.43,1.58.25,1.75-.19.18-1.15-.64-1.36-.71s.17.33.09.31c-.07-.03-.59-.34-.54-.47.05-.14.64-.17.84-.36.19-.19.37-.55.33-.79-.05-.25-.59-.66-.6-.68-.01-.01.37.42.55.57m.66.48c-.08.04-1.28-.62-1.22-.48.07.13,1.49,1.05,1.6,1.31s-.61.13-.94.27-1.05.71-1.02.58s1.08-1.29,1.18-1.38c.11-.09-.37.76-.54.84-.17.09-.58-.18-.49-.31.1-.12.92-.15,1.04-.46.13-.31-.07-1.29-.29-1.41-.23-.11-1.06.59-1.05.73" fill="#fff" stroke-width="0" stroke-linecap="round"/><path d="M0.95,-0.02c-.01.05-.47.3-.54.4s.09.12.11.22-.12.2-.01.38.6.63.66.71c.07.08-.01-.24-.27-.23s-1.15.31-1.31.3.38-.14.36-.35c-.02-.2-.44-.7-.48-.87-.03-.18.04-.13.26-.17s.88-.13,1.06-.07m.27-1.24c-.01.03.02.29-.02.75-.03.45-.03,1.75-.18,1.97-.15.21-.63-.74-.7-.68s.13.95.26,1.04c.14.1.47-.26.53-.47.07-.2-.11-.73-.14-.75s.22.86-.04.64c-.25-.23-1.44-1.59-1.49-1.98-.05-.4,1.08-.53,1.18-.42.11.12-.4,1.09-.54,1.09" fill="none" stroke="#fff" stroke-width="4" stroke-linecap="round"/></g></g><g><g transform="translate(299.908 32.8972)"><path d="M11.15,0.53c3.06-1.38,7.14-.81,10.05.39c2.91,1.21,5.73,3.65,7.39,6.82s3.1,8.67,2.58,12.21c-.51,3.54-3.02,6.83-5.66,9.01-2.65,2.18-7,3.98-10.22,4.07-3.23.1-6.5-1.29-9.12-3.52s-5.98-6.23-6.59-9.86c-.62-3.62.86-8.7,2.88-11.87C4.48,4.6,9.91,1.75,11.71,0.59c1.8-1.17,1.5-.14,1.55.18m-4.2-.46c3.18-1.32,8.9-1.15,12.02.44c3.13,1.58,5.1,6.12,6.73,9.06c1.64,2.93,3.34,5.17,3.09,8.54-.24,3.37-2.21,9.11-4.54,11.66s-5.86,3.71-9.42,3.65-9-1.51-11.95-4.04c-2.94-2.53-5.01-7.75-5.73-11.13s-.4-6.49,1.41-9.16s8.02-5.7,9.47-6.86c1.45-1.15-1.13-.08-.77-.05" fill="#52d5eb" stroke-width="0" stroke-linecap="round"/><path d="M18.03,-0.83c3.26.26,6.59,3.39,8.77,6.06s4.16,6.24,4.31,9.96c.14,3.72-1.32,9.42-3.44,12.37-2.13,2.95-6.31,4.56-9.33,5.31-3.03.76-6.13.7-8.84-.77-2.71-1.48-6.04-4.89-7.41-8.08-1.38-3.19-1.62-7.55-.84-11.06.77-3.51,2.16-7.93,5.48-10s11.25-2.49,14.45-2.43c3.19.06,4.79,2.47,4.72,2.76M9.51,2.69c3.05-1.36,8.31-2.07,11.42-1.28c3.11.8,5.51,3.04,7.21,6.03c1.7,3,3.16,8.11,2.99,11.93-.16,3.82-1.67,8.62-3.99,11.02-2.33,2.39-6.28,3.25-9.98,3.35-3.69.09-9.48-.64-12.2-2.79-2.71-2.15-3.52-6.24-4.09-10.09-.58-3.85-.81-10,.66-13C2.99,4.85,8.46,4.03,9.64,2.82c1.18-1.2-1.16-2.03-1.01-2.21" fill="none" stroke="rgba(0,0,0,0)" stroke-width="2" stroke-linecap="round"/></g><g transform="translate(310.539 43.6327)"><path d="M-2.51,-0.8q0,0,.1-.68t.66-2.11q.55-1.44,1.42-2.43.86-.99,2.3-1.62t2.54-.71q1.1-.09,2.66.09q1.57.19,2.95.91t2.19,1.94q.81,1.23,1.18,2.56.38,1.32.18,3.35-.21,2.03-.99,3.21-.79,1.17-1.72,1.86-.93.68-2.41,1.27-1.48.58-1.42,1.58.05.99.21,1.57t.13,1.17q-.03.6-.25,1.16-.22.55-.61,1.01-.38.45-.9.76-.51.31-1.09.44-.59.13-1.18.07-.59-.07-1.14-.32-.54-.25-.97-.66-.44-.41-.72-.94-.28-.52-.38-1.11t0-1.18.38-1.12q.27-.53.71-.94.43-.41.97-.66.55-.26,1.14-.32.59-.07,1.18.06.58.13,1.09.43.52.31.9.77.39.45.61,1.01.23.55.26,1.15t-.13,1.17q-.16.58-.49,1.07-.34.5-.81.86-.48.36-1.04.56-.57.19-1.17.19-.59,0-1.16-.19t-1.04-.55q-.48-.36-.82-.86-.33-.49-.33-.49t-.25-2.48q-.25-2.49-.1-3.74t.54-2.32t1.28-1.83q.89-.75,1.88-1.18.99-.44,2.1-.64q1.12-.19.97-1.28-.16-1.1-1.25-1.36-1.09-.27-1.95.5-.86.76-1.05,1.42-.19.64-.29.93t-.26.55q-.17.26-.4.47-.22.21-.49.36t-.56.23q-.3.08-.6.09t-.6-.05q-.3-.07-.58-.2-.27-.14-.51-.34-.23-.19-.42-.44-.18-.25-.29-.53-.12-.29-.17-.59-.04-.29-.01-.6.02-.31.02-.3v0Z" fill="#fff"/></g><g transform="translate(314.174 60.6616)"><path d="M-0.11,-0.4c.06-.01.6.63.71.73.11.11-.02-.21-.05-.09-.03.11-.17.51-.1.77.06.26.57.62.48.78-.1.15-.97.25-1.07.15-.1-.09.47-.58.47-.73.01-.15-.35-.05-.42-.17-.06-.11-.02-.38.03-.51.04-.14.25-.1.25-.29s-.25-.76-.27-.87M-0.62,1c.04-.16.75-1.7,1.04-1.7.29-.01.5,1.3.68,1.66.18.35.59.32.42.47-.16.15-1.09.46-1.4.41s-.31-.76-.47-.7-.54.95-.5,1.08c.05.14.73-.08.78-.27.04-.19-.73-.57-.5-.89.23-.31,1.59-.98,1.87-1s-.18.71-.18.89" fill="#fff" stroke-width="0" stroke-linecap="round"/><path d="M0.12,-0.33c.03.02,0,.82-.01.94s-.26-.35-.07-.22c.2.14,1.07.73,1.25,1.03.18.29-.07.54-.16.74-.09.21-.17.53-.37.48s-.63-.43-.83-.78c-.21-.34-.45-.95-.4-1.28.06-.33.67-.56.74-.72.06-.16-.26-.24-.34-.25-.09,0-.19.15-.16.24m.3.13c-.02.04.35.57.54.92s.53,1.01.6,1.17c.06.16.08-.26-.21-.2-.28.07-1.42.59-1.52.6-.09.01.89-.17.96-.53.08-.37-.47-1.58-.52-1.65-.04-.07.3,1.38.25,1.23-.06-.16-.68-1.78-.57-2.16.1-.37,1.07-.17,1.2-.11.13.07-.25.45-.42.51" fill="none" stroke="#fff" stroke-width="4" stroke-linecap="round"/></g></g><g><g transform="translate(325.392 406.435)"><path d="M23.59,2.1c3.2,1.52,6.56,4.95,8.03,8.43c1.46,3.48,1.74,8.9.74,12.45-1.01,3.56-3.83,6.96-6.76,8.86-2.94,1.91-7.15,3.05-10.86,2.58s-9.06-2.57-11.42-5.39c-2.35-2.81-2.73-7.67-2.71-11.51s.72-8.67,2.85-11.51C5.6,3.17,9.92,1,13.42,0.5c3.5-.51,8.87,1.94,11.05,2.47c2.18.52,2.05.61,2.02.68M17.3,0.84c3.33-.16,6.59,2.1,8.98,4.56s4.45,6.8,5.36,10.21c.91,3.4,1.7,7.3.12,10.2-1.57,2.9-5.98,5.93-9.59,7.22-3.61,1.28-8.99,1.41-12.07.49-3.07-.93-4.8-2.63-6.4-6.03s-3.68-10.27-3.18-14.36c.5-4.1,3.69-8.04,6.19-10.2c2.49-2.16,7.24-2.1,8.78-2.77c1.53-.67.25-1.35.41-1.22" fill="#3371e5" stroke-width="0" stroke-linecap="round"/><path d="M21.59,0.92c3.03.8,5.91,3.77,7.58,7.02c1.68,3.25,2.87,8.84,2.46,12.5-.41,3.67-2.64,7.21-4.91,9.5-2.27,2.28-5.22,3.97-8.72,4.21s-9.38-.67-12.31-2.79c-2.92-2.13-4.45-6.23-5.22-9.98s-.82-9.13.61-12.52c1.44-3.4,4.24-6.73,8-7.84c3.75-1.11,11.66.63,14.54,1.18s2.89,2.01,2.73,2.13M21.82,1.81c3.01,1.5,5.79,5.11,7.68,8.22c1.88,3.12,4.27,6.92,3.63,10.46-.65,3.54-4.48,8.24-7.49,10.78-3.02,2.55-7.17,4.58-10.59,4.48-3.41-.1-7.25-2.45-9.9-5.06-2.65-2.62-5.72-6.85-6.01-10.63s2.22-8.63,4.28-12.07c2.05-3.44,4.88-7.33,8.04-8.56c3.16-1.24,9.06.97,10.93,1.17c1.87.21.23-.6.28.05" fill="none" stroke="rgba(0,0,0,0)" stroke-width="2" stroke-linecap="round"/></g><g transform="translate(336.436 417.588)"><path d="M-2.51,-0.82q0,0,.1-.7.11-.7.67-2.17.57-1.47,1.46-2.49t2.36-1.67q1.48-.64,2.61-.72q1.14-.08,2.75.1q1.61.19,3.02.93t2.23,1.99q.83,1.26,1.15,2.3t.44,2.13q.13,1.09-.14,2.39-.27,1.31-1.08,2.51-.8,1.2-1.75,1.9-.96.7-2.47,1.3-1.52.6-1.51,1.73t.17,1.7q.16.58.13,1.18t-.25,1.16q-.23.55-.61,1.01-.39.46-.9.77-.52.31-1.1.44-.59.13-1.18.06-.6-.06-1.14-.31-.55-.25-.98-.66-.44-.42-.72-.94-.28-.53-.38-1.12-.1-.6,0-1.19t.38-1.12.71-.94.98-.67q.54-.25,1.14-.32.59-.06,1.18.07.58.13,1.1.43.51.31.9.77.39.45.61,1.01t.26,1.15q.03.6-.13,1.18t-.49,1.08q-.34.49-.82.85-.47.37-1.04.56t-1.17.19-1.16-.19q-.57-.19-1.05-.55t-.81-.86q-.34-.49-.34-.49t-.25-2.83q-.24-2.82-.03-3.91.22-1.09.55-2.1t1.22-1.78q.9-.76,1.91-1.2t2.22-.72q1.21-.27.99-1.45-.23-1.2-1.39-1.46t-2.07.56q-.91.83-1.1,1.51-.2.67-.3.97-.1.29-.27.55-.17.25-.39.46-.23.21-.49.37-.27.15-.57.23t-.6.09-.6-.06q-.3-.06-.58-.2-.28-.13-.51-.33-.24-.2-.42-.45t-.3-.53-.16-.59q-.05-.29-.02-.6t.03-.31v0Z" fill="#fff"/></g><g transform="translate(340.212 435.278)"><path d="M0.8,0.05c.14,0,.26-.19.35-.08.08.11.32.46.16.73s-1.06.7-1.12.88c-.06.17.73.16.73.16.01.01-.6-.11-.69-.13-.1-.02.21.13.11.04-.09-.1-.73-.38-.68-.62.05-.23.83-.55.98-.81.15-.25-.07-.67-.11-.74-.03-.07-.16.13-.12.33M0.03,0.95c.26-.16,1.38-.62,1.52-.68s-.44.11-.67.31-.8.53-.71.91c.08.38,1.2,1.46,1.23,1.37.04-.09-.89-1.51-1.01-1.9-.11-.38.45-.39.32-.42s-.99.46-1.1.24.27-1.37.45-1.59c.17-.22.69-.02.6.27-.09.3-1.22,1.5-1.16,1.52" fill="#fff" stroke-width="0" stroke-linecap="round"/><path d="M-0.13,0.58c.09-.03.1-.45.35-.47s1.15.1,1.14.35c0,.25-1.02.89-1.16,1.16s.41.46.34.45-.59-.36-.77-.5c-.18-.13-.34-.2-.3-.3.04-.09.37-.13.54-.24.18-.11.48-.17.53-.4.05-.22-.32-.81-.24-.95.08-.15.8.1.72.11m.06-.4c.19-.05-.6.48-.68.85-.09.36.11,1.03.16,1.33.05.29.28.3.16.44s-.88.41-.88.42c0,0,.87-.07.89-.38.02-.3-.62-1.15-.77-1.45s-.2-.18-.15-.37c.05-.18.25-.89.42-.76.18.12.54,1.55.63,1.53.09-.03-.18-1.39-.09-1.69" fill="none" stroke="#fff" stroke-width="4" stroke-linecap="round"/></g></g><g><g transform="translate(316.906595 473.276127)"><path d="M22.94,0.57c3.13,1.37,6.28,6.37,7.84,9.67c1.57,3.3,2.3,6.52,1.56,10.13-.75,3.6-3.17,9.19-6.03,11.5-2.87,2.31-7.74,2.72-11.18,2.34-3.43-.37-7.07-2.2-9.42-4.59s-4.06-6.04-4.67-9.75c-.62-3.71-.9-9.33.96-12.53C3.86,4.15,8.41,1.66,12.19,0.69c3.78-.98,10.11.29,12.5.79s1.93,1.88,1.84,2.19m-4.09-4.18c3.39.64,5.79,5.15,7.42,8.52c1.63,3.36,2.81,7.94,2.36,11.68-.44,3.75-2.25,8.38-5.02,10.8s-8.1,3.66-11.57,3.74c-3.47.07-6.49-1.23-9.25-3.29-2.75-2.07-6.7-5.38-7.29-9.11-.59-3.74,1.78-10.15,3.74-13.32c1.95-3.17,4.83-4.32,7.99-5.73c3.15-1.41,9.29-2.37,10.93-2.74s-.84.05-1.08.54" fill="#3371e5" stroke-width="0" stroke-linecap="round"/><path d="M8.9,1.54c2.91-1.45,8.27-1.89,11.83-.72c3.56,1.16,7.69,4.73,9.53,7.74c1.84,3,2.09,6.81,1.5,10.3-.6,3.5-2.49,8.05-5.06,10.65-2.56,2.59-6.99,4.49-10.32,4.94-3.32.45-6.93.02-9.62-2.26-2.68-2.28-5.61-7.56-6.5-11.4-.89-3.85-1-8.14,1.16-11.69c2.16-3.56,9.15-8.22,11.81-9.65c2.67-1.44,4.22.67,4.18,1.03M13.03,-1c3.25-.69,7.18,2.38,10.49,4.8c3.3,2.43,7.9,6.42,9.34,9.72c1.44,3.31.68,7.06-.71,10.12-1.38,3.05-4.43,6.37-7.62,8.21-3.19,1.83-7.74,3.23-11.5,2.81s-8.98-2.42-11.05-5.32-1.54-8.1-1.39-12.08c.15-3.97.06-9.11,2.28-11.76c2.21-2.65,9.35-3.52,11.01-4.13c1.67-.62-.88.35-1.03.43" fill="none" stroke="rgba(0,0,0,0)" stroke-width="2" stroke-linecap="round"/></g><g transform="translate(327.951595 484.428127)"><path d="M-2.51,-0.82q0,0,.1-.7.11-.7.67-2.17.57-1.47,1.46-2.49t2.36-1.67q1.48-.64,2.61-.72q1.14-.08,2.75.1q1.61.19,3.02.93t2.23,1.99q.83,1.26,1.15,2.3t.44,2.13q.13,1.09-.14,2.39-.27,1.31-1.08,2.51-.8,1.2-1.75,1.9-.96.7-2.47,1.3-1.52.6-1.51,1.73t.17,1.7q.16.58.13,1.18t-.25,1.16q-.23.55-.61,1.01-.39.46-.9.77-.52.31-1.1.44-.59.13-1.18.06-.6-.06-1.14-.31-.55-.25-.98-.66-.44-.42-.72-.94-.28-.53-.38-1.12-.1-.6,0-1.19t.38-1.12.71-.94.98-.67q.54-.25,1.14-.32.59-.06,1.18.07.58.13,1.1.43.51.31.9.77.39.45.61,1.01t.26,1.15q.03.6-.13,1.18t-.49,1.08q-.34.49-.82.85-.47.37-1.04.56t-1.17.19-1.16-.19q-.57-.19-1.05-.55t-.81-.86q-.34-.49-.34-.49t-.25-2.83q-.24-2.82-.03-3.91.22-1.09.55-2.1t1.22-1.78q.9-.76,1.91-1.2t2.22-.72q1.21-.27.99-1.45-.23-1.2-1.39-1.46t-2.07.56q-.91.83-1.1,1.51-.2.67-.3.97-.1.29-.27.55-.17.25-.39.46-.23.21-.49.37-.27.15-.57.23t-.6.09-.6-.06q-.3-.06-.58-.2-.28-.13-.51-.33-.24-.2-.42-.45t-.3-.53-.16-.59q-.05-.29-.02-.6t.03-.31v0Z" fill="#fff"/></g><g transform="translate(323.164 497.383)"><path d="M0.62,-0.31c.03.01-.11.39-.17.66s-.24.79-.18.96c.06.18.53-.01.56.09s-.31.51-.38.53c-.08.02-.12-.34-.09-.41.04-.06.32.16.29.03s-.46-.62-.48-.82c-.01-.19.27-.27.38-.37.11-.09.39-.21.29-.19-.09.03-.77.3-.88.33m1.29-1.02c.14-.06-.66.42-.63.61.03.18.74.28.81.5.08.22-.25.73-.37.83-.13.1-.42-.46-.38-.24.05.23.79,1.54.65,1.6-.15.07-1.41-.97-1.52-1.2s.81.01.88-.17c.06-.17-.42-.56-.49-.9-.07-.33.06-1.13.06-1.13c0,.01.03,1.01-.07,1.18" fill="#fff" stroke-width="0" stroke-linecap="round"/><path d="M0.45,-0.46c-.04-.11.02.03.11.3.09.26.44,1,.42,1.29s-.48.33-.54.45c-.05.11.13.09.18.24s.19.71.11.67c-.07-.03-.39-.67-.53-.88-.15-.21-.42-.22-.33-.38s.63-.43.84-.59c.22-.16.44-.22.44-.37c0-.14-.41-.45-.42-.47m-.2.02c.25.01.24.3.24.54s-.15.64-.26.92c-.12.27-.29.59-.42.75-.14.15-.6.23-.39.18s1.46-.27,1.65-.48c.19-.22-.23-.63-.5-.82-.26-.2-.83-.18-1.08-.35-.25-.16-.54-.63-.41-.65.12-.01,1.13.57,1.17.56s-1.04-.43-.91-.62" transform="translate(8.563595 4.736127)" fill="none" stroke="#fff" stroke-width="4" stroke-linecap="round"/></g></g><g id="eHbtfMkPUNr115" opacity="0"><g><g transform="matrix(.864567 0 0 1.07164 378.699928 26.9509)"><path d="M2,-1.47L707.09,1.75L704.39,453l-707.7-1.55" fill="#3b2f83" stroke-width="0" stroke-linecap="round"/><path d="M0.72,0.44c257.56,1.72,514.67,2.72,706.86-1.51M-0.22,0.23c228.82-1.96,456.21-2.64,706.13-.3m2.09-.17c3.28,156.39,4.33,313.02-1.76,453.3m.59-452.22c-2.05,173.06-1.25,345.41-.29,453.09m.88-.38c-205.71,1.14-410.75,1.63-708.25.99m707.18-1.97c-166.24,5.24-331.47,6.26-706.69,1.19m-.17,1.21c.62-150.32,3.83-300.31-.04-455.91m.63,453.7C2.37,285.33,1.67,115.48,-0.39,0.32" fill="none" stroke="#3b2f83" stroke-width="4" stroke-linecap="round"/></g><g transform="translate(362.348928 277.117)"><path d="M17.37,1.86L32.53,15.03L18.82,30.77L1.98,17.1" fill="#3b2f83" fill-rule="evenodd" stroke-width="0" stroke-linecap="round"/><path d="M17.32,1.13C25,5.49,30.82,11.96,35.54,15.36M16.37,-0.07c3.86,2.83,8.43,6.87,17.31,17.5m-.25,1.53c-5.21,3.86-9.56,4.26-15.88,11.42M34.46,17.11c-5.79,4.91-11.47,9.18-17.57,15.33m.63-1.84c-3.29-2.33-6.21-2.59-17.67-12.92M16.92,32.03c-3.75-3.9-8.08-8.1-16.96-15.43m-.2,2.03c5.78-6.09,7.91-12.5,17.53-18.64m-18,17.04C6.86,10.92,12.81,4.67,16.41,-0.86" fill="none" stroke="#3b2f83" stroke-width="4" stroke-linecap="round"/></g></g><g transform="translate(397.581 97.517438)"><text dx="0" dy="0" font-family="&quot;Virgil, Segoe UI Emoji&quot;" font-size="23.28" font-weight="400" transform="translate(0-20.51412)" fill="#fff"><tspan font-family="&quot;Virgil, Segoe UI Emoji&quot;" font-size="23.28" font-weight="400" font-style="normal" fill="#fff"><![CDATA[
Operator`s name
]]></tspan></text></g><g transform="matrix(.865838 0 0 1 57.128709-15.385588)"><g transform="translate(416.631 124.688)"><path d="M-0.2,-1.45l635.17.44.97,4.38L0.09,3.36" fill="#fff" stroke-width="0" stroke-linecap="round"/><path d="M-0.64,-0.23c176.25-1.12,352.82-1.03,637.34.44M-0.34,0.05c128.53,2.17,256.17,1.7,636.56-.43m-.05.64c0,.93.03,2.55.48,3.21m-.14-3.46c-.16.87-.12,1.98.14,3.31m.2-.11C419.82,4.23,203.93,4.32,0.12,3.24m636.66-.25c-225.1,2.92-449.81,2.78-637,.77m0-.65c.02-1.24.24-2.38.55-3.29m-.46,3.65c.08-.88-.01-1.93.01-3.49" fill="none" stroke="#fff" stroke-linecap="round"/></g><g transform="translate(417.872 144.497)"><path d="M0.72,-0.6l637.1-.17-.36,1.18L0.01,0.55" fill="#fff" stroke-width="0" stroke-linecap="round"/><path d="M0.64,-0.68c141.61,1.53,284.53,1.4,636.01.14m-636.74.26c190.96,1.36,381.34,1.39,636.72.36M636.49,0c-.09.44.09.82.08,1.06m-.04-1.11c-.08.3-.01.48-.08,1.15m.23.59c-173.22.71-346.98.1-636.14-.88m635.59-.03C473.31,2.97,309.91,2.56,0.04,1.22m.06-.15c-.01-.31-.18-.78-.12-1.09m0,1.1c.07-.35.04-.64-.03-1.07" fill="none" stroke="#fff" stroke-width="4" stroke-linecap="round"/></g><g transform="translate(417.752 160.546)"><path d="M-1.44,0.12l500.79.52-2.14,3.14L-0.48,4.97" fill="#fff" stroke-width="0" stroke-linecap="round"/><path d="M-0.48,-0.35C184.26,1.1,369.14,0.6,498.78,0.72M0.35,-0.11c133.81,1.31,267.39.8,498.16-.13m-.25-.16c.5,1.25.46,2.41-.05,4.5m.64-4.09c-.18,1.73.03,3.52.02,4.32m-.29-.19c-130.59,2.17-260.2.71-498.7,1M498.84,4.09c-110.48-.61-219.88-.71-498.78.49m.27.09c-.32-1.45-.03-3.79-.61-4.86m.47,4.47c-.17-1.4-.38-2.86-.04-4.18" fill="none" stroke="#fff" stroke-linecap="round"/></g></g><g id="eHbtfMkPUNr136" transform="translate(400.943 199.799374)"><path d="M-3.25,-3.83L135.12,2.68l-4,38.06-131.64.87" fill="#979797" stroke-width="0" stroke-linecap="round"/><path d="M-1.27,2.24c47.48-3.21,96.15-8.42,137.77-2.91m-136.83.36c50.79-3.82,100.28-.59,134.99.58m-.43-3.97c2.03,9.84-.39,18.38,1.53,50.23m-2.63-47.99c1.21,13.92,1.8,28.58.13,42.73m3.95-.88c-42.37-.85-79.35,2.16-139.13,3.77m136.22-.5c-42.71-3.35-80.32-.59-134.27.16m3.49,2.84C1.09,31.9,-3.33,16.64,1.02,-1.13m.5,43.58c.34-13.13-.46-26.43-1.03-42.12" fill="none" stroke="rgba(0,0,0,0)" stroke-width="4" stroke-linecap="round"/></g><g id="eHbtfMkPUNr139" transform="translate(568.824 227.578374)"><text dx="0" dy="0" font-family="&quot;Virgil, Segoe UI Emoji&quot;" font-size="23.28" font-weight="400" fill="#fff"><tspan font-family="&quot;Virgil, Segoe UI Emoji&quot;" font-size="23.28" font-weight="400" font-style="normal" fill="#fff"><![CDATA[
Applications
]]></tspan></text></g><g id="eHbtfMkPUNr142" transform="translate(737.710405 228.940374)"><text dx="0" dy="0" font-family="&quot;Virgil, Segoe UI Emoji&quot;" font-size="23.28" font-weight="400" fill="#fff"><tspan font-family="&quot;Virgil, Segoe UI Emoji&quot;" font-size="23.28" font-weight="400" font-style="normal" fill="#fff"><![CDATA[
Parameters
]]></tspan></text></g><g transform="translate(409.305 226.578374)"><text dx="0" dy="0" font-family="&quot;Virgil, Segoe UI Emoji&quot;" font-size="23.28" font-weight="400" fill="#fff"><tspan font-family="&quot;Virgil, Segoe UI Emoji&quot;" font-size="23.28" font-weight="400" font-style="normal" fill="#fff"><![CDATA[
Description
]]></tspan></text></g><g id="eHbtfMkPUNr148" transform="translate(897.740843 229.940374)"><text dx="0" dy="0" font-family="&quot;Virgil, Segoe UI Emoji&quot;" font-size="23.28" font-weight="400" fill="#fff"><![CDATA[
Links
]]></text></g><g transform="matrix(.916009 0 0 1 27.152372-22.223626)"><g transform="translate(395.34 268.122)"><path d="M-0.83,-1.11c235.6,6.59,469.21,7.58,646.81,3.48M-0.29,-0.46C205.62,1.22,409.17,2.81,645.38,1.95" fill="none" stroke="#979797" stroke-width="4" stroke-linecap="round"/></g></g><g><g transform="translate(412.379989 292.13552)"><path d="M-0.88,-1.38l548.54.64.55,7.64L-1.33,4.69" fill="#66e4fe" stroke-width="0" stroke-linecap="round"/><path d="M-0.12,-0.04c143.44-.66,285.65-.34,549.31.51M0.25,0.05c158.63-.74,317.99-.79,549.03-.17m-.15.41c.45.9.35,2.51.37,5.16m-.24-5.2c.13,1.61-.3,3.15-.3,5.54m.91.38C354.02,5.02,157.91,4.55,0.18,6.31m548.78-1.1C345.52,4.5,141.42,4.67,0.12,5.49m-.3.66c.65-2.57.59-3.58.18-5.99m.14,5.49c-.04-1.3.03-3.01-.37-5.44" fill="none" stroke="rgba(0,0,0,0)" stroke-linecap="round"/></g><g id="eHbtfMkPUNr157" transform="translate(412.379989 270.269705)"><path d="M-0.88,-1.38l548.54.64.55,7.64L-1.33,4.69" fill="#66e4fe" stroke-width="0" stroke-linecap="round"/><path d="M-0.12,-0.04c143.44-.66,285.65-.34,549.31.51M0.25,0.05c158.63-.74,317.99-.79,549.03-.17m-.15.41c.45.9.35,2.51.37,5.16m-.24-5.2c.13,1.61-.3,3.15-.3,5.54m.91.38C354.02,5.02,157.91,4.55,0.18,6.31m548.78-1.1C345.52,4.5,141.42,4.67,0.12,5.49m-.3.66c.65-2.57.59-3.58.18-5.99m.14,5.49c-.04-1.3.03-3.01-.37-5.44" fill="none" stroke="rgba(0,0,0,0)" stroke-linecap="round"/></g><g id="eHbtfMkPUNr160" transform="translate(413.27 316.307)"><path d="M0.04,-1l429.356699-2.456886L428.477405,5.39L-0.48,5.39" fill="#66e4fe" stroke-width="0" stroke-linecap="round"/><path d="M0.89,0.69c180.04-2.15,362.33-1.45,456.9.15M-0.39,-0.22c179.03,1.8,356.83,1.24,458.05.55m-.2-.18c.4,2.62-.08,4.04-.48,5.91m.51-5.96c-.36,2.39-.04,4.68-.4,6.95m.98-.33C278.54,7.93,99.89,8.79,0.46,6.87m456.4-.53c-158.01,1.74-317.4,1.61-457.03.18m-.31.03c.45-1.65.06-5.38.15-6.39m.3,6.72c-.05-2.22.08-4.19.19-6.74" transform="matrix(.940255 0 0 1-.901209 0)" fill="none" stroke="#66e4fe" stroke-linecap="round"/></g><g transform="translate(482.746 340.96)"><path d="M-0.22,1.13l486.3-2.46-1.62,5.61-483.7.37" fill="#66e4fe" stroke-width="0" stroke-linecap="round"/><path d="M0.57,-0.03c114-.47,228.09-1.31,484.17-.43M0.23,0.18c108.28-.17,217.16-.66,483.6-.54m.21-.15c.15,2.61-.23,3.68.51,5.7m-.62-5.22c.13,1.91.13,4.09.12,5.73m-.53.48c-179.46-1.76-357.54-2-483.34-.77m483.81.01c-115.45-.11-229.99.2-484.1.36m.2-.23c-.29-.8.51-2.17-.15-5.34m.18,5.45c-.29-1.31-.3-2.92-.07-5.71" fill="none" stroke="#66e4fe" stroke-linecap="round"/></g><g id="eHbtfMkPUNr166" transform="translate(481.625 362.251)"><path d="M-1.64,1.41l484.28-2.94l1.49,6.86L-1.31,7.16" fill="#66e4fe" stroke-width="0" stroke-linecap="round"/><path d="M0.6,0.51C128,-1.3,257.85,-1.36,484.45,0.7M-0.26,-0.21c152.03.58,303.6.35,484.02.56m-.01-.86c.03,2.25.28,3.57.83,6.67m-.63-6.01c.33,2.1.19,3.98.27,5.3m-.22.63C353.9,4.7,222.16,4.7,0.32,5.19m484.18.44C302.29,7.45,119.86,7.42,0.32,5.74m-.11.13c.17-2.12-.71-3.17-.58-6.07m.24,6.03c-.04-1.52.05-2.51,0-5.73" fill="none" stroke="#66e4fe" stroke-linecap="round"/></g><g transform="translate(481.625 383.542)"><path d="M-1.91,-1.69l487.58,3.2-2.12,2.8-485.46.57" fill="#66e4fe" stroke-width="0" stroke-linecap="round"/><path d="M-0.25,0.16c121.6.88,243.71,1.82,483.77,0M0.33,0.25C113.42,1.4,226.22,1.36,484.35,0.1m-.33.25c.56,1.84.38,4.04-.17,4.79m.01-4.93c.43,1.66.42,3.66.15,5.36m-.62.64c-169.14-.53-337.73.01-483.95.06m484.41-.43c-191,.67-383.07.12-484.11-.62m.3.58c.51-2.23.06-3.43.44-6.26m-.7,6.07c.46-1.78.1-3.08.1-5.72" fill="none" stroke="#66e4fe" stroke-linecap="round"/></g><g id="eHbtfMkPUNr172" transform="matrix(1.010795 0 0 1 414.613708 457.841019)"><path d="M1.84,-0.42l544.99-.57l1.03,6.27-548.07.57" fill="#66e4fe" stroke-width="0" stroke-linecap="round"/><path d="M-0.2,-0.58c113.04.62,226.42.73,547.64,1.07M-0.39,0.17C144.51,1.61,288.95,2,547.98,-0.38m.13.18c.56,1.81-.39,4.76.15,6.34m-.16-6.39c-.3,2.31-.35,4.18.17,7.13m-.66-.85C329.7,5.53,112.56,5.22,0.06,7.04m548.02-.3C395.66,8.53,243.46,8.35,-0.09,7.1m-.25-.21c.41-2.82.69-5.38.15-7.35M-0.32,6.7c.61-2.01.14-4.76.06-6.88" fill="none" stroke="#66e4fe" stroke-linecap="round"/></g><g id="eHbtfMkPUNr175" transform="translate(419.533357 412.677)"><path d="M1.84,-0.42l598.875989-.849-.928477,6.27L1.840001,7.396003" transform="matrix(.918615 0 0 0.813733-4.970683 0.452629)" fill="#66e4fe" stroke-width="0" stroke-linecap="round"/><path d="M-0.2,-0.58c113.04.62,226.42.73,547.64,1.07M-0.39,0.17C144.51,1.61,288.95,2,547.98,-0.38m.13.18c.56,1.81-.39,4.76.15,6.34m-.16-6.39c-.3,2.31-.35,4.18.17,7.13m-.66-.85C329.7,5.53,112.56,5.22,0.06,7.04m548.02-.3C395.66,8.53,243.46,8.35,-0.09,7.1m-.25-.21c.41-2.82.69-5.38.15-7.35M-0.32,6.7c.61-2.01.14-4.76.06-6.88" fill="none" stroke="#66e4fe" stroke-linecap="round"/></g><g transform="translate(413.27 434.415)"><path d="M1.41,2l216.54-3.25.75,8.13L1.55,5.53" fill="#66e4fe" stroke-width="0" stroke-linecap="round"/><path d="M0.84,1.26c74.1-3.56,152.82-2.92,216.47-2.5M-0.58,-0.4c57.41-1.05,115.37-.02,218.49-.44m1.14,1.26c-.58,1.24-.54,2.5-.34,5.58m-.34-5.74c.15,1.51,0,3.56-.04,5.57m1.56,1.04C132.83,4.11,45.54,2.83,1.66,6.41m216-.5C149.38,4.18,82.13,5.79,-0.55,5.04m.06.06c.78-1.81.92-3.83.8-4.67M0.17,5.46c.04-2.21-.22-4.23-.21-5.3" fill="none" stroke="#66e4fe" stroke-linecap="round"/></g></g></g><g id="eHbtfMkPUNr181" transform="translate(130.014792 15.38559)"><g transform="translate(464.307 35.3547)"><path d="M1.39,-1.12c-4.78-5.34-11-13.44-16.39-24.23M0.61,0.6c-6.01-8.96-12.21-17.4-15.54-23.26" fill="none" stroke="#1e1e1e" stroke-width="4" stroke-linecap="round"/></g><g transform="translate(464.307 35.3547)"><path d="M-14.57,-21.36l9.94,5.38-6.87,6.24-3.24-11.23" fill="#1e1e1e" fill-rule="evenodd" stroke-width="0" stroke-linecap="round"/><path d="M-13.95,-23.44c3.26,3.13,5.4,4.38,11.06,7.06m-11.61-5.86c3.57,2.15,7.02,4.56,11.66,7.75m-1.37-.81c-2.67,1.74-5.08,4.02-10.2,5.9m11.35-5.16c-2.64.97-5.52,3.51-9.92,5.99m-.5.82c-.47-3.28-1.45-7.3-2.6-13.99m2.66,12.92c-.75-4.9-1.47-11.17-1.56-14.22m.05.38c0,0,0,0,0,0m0,0c0,0,0,0,0,0" fill="none" stroke="#1e1e1e" stroke-width="4" stroke-linecap="round"/></g></g></g><g transform="matrix(.561227 0 0 0.543055 2.518586 3.000887)"><path d="M-0.92,-0.57c289.29,5.32,579.24,6.52,962.86.65M0.28,0.11c289.57-7.13,577.67-7.72,962.8-.48m-.56-.97c2.35,218.93,3.08,434.17,1.31,578.4m-.52-577.15c.76,183.35.88,366.52-.29,577.74m-1.23,1.72c-237.02.16-473.68,1.33-960.28.18m962.03-.82c-273.46,1.53-547.71.75-962.97-1.14m-1.35.55c1.87-192.29,1.63-387.38.23-577.35m.96,577.85C2.6,391.76,3.67,207.29,0.37,-0.65" fill="none" stroke="#9dafbd" stroke-width="4" stroke-linecap="round"/></g>
<script><![CDATA[
!function(t,e){"object"==typeof exports&&"undefined"!=typeof module?module.exports=e():"function"==typeof __SVGATOR_DEFINE__&&__SVGATOR_DEFINE__.amd?__SVGATOR_DEFINE__(e):((t="undefined"!=typeof globalThis?globalThis:t||self).__SVGATOR_PLAYER__=t.__SVGATOR_PLAYER__||{},t.__SVGATOR_PLAYER__["91c80d77"]=e())}(this,(function(){"use strict";function t(t,e){var n=Object.keys(t);if(Object.getOwnPropertySymbols){var r=Object.getOwnPropertySymbols(t);e&&(r=r.filter((function(e){return Object.getOwnPropertyDescriptor(t,e).enumerable}))),n.push.apply(n,r)}return n}function e(e){for(var n=1;n<arguments.length;n++){var r=null!=arguments[n]?arguments[n]:{};n%2?t(Object(r),!0).forEach((function(t){u(e,t,r[t])})):Object.getOwnPropertyDescriptors?Object.defineProperties(e,Object.getOwnPropertyDescriptors(r)):t(Object(r)).forEach((function(t){Object.defineProperty(e,t,Object.getOwnPropertyDescriptor(r,t))}))}return e}function n(t){return(n="function"==typeof Symbol&&"symbol"==typeof Symbol.iterator?function(t){return typeof t}:function(t){return t&&"function"==typeof Symbol&&t.constructor===Symbol&&t!==Symbol.prototype?"symbol":typeof t})(t)}function r(t,e){if(!(t instanceof e))throw new TypeError("Cannot call a class as a function")}function i(t,e){for(var n=0;n<e.length;n++){var r=e[n];r.enumerable=r.enumerable||!1,r.configurable=!0,"value"in r&&(r.writable=!0),Object.defineProperty(t,r.key,r)}}function o(t,e,n){return e&&i(t.prototype,e),n&&i(t,n),t}function u(t,e,n){return e in t?Object.defineProperty(t,e,{value:n,enumerable:!0,configurable:!0,writable:!0}):t[e]=n,t}function a(t){return(a=Object.setPrototypeOf?Object.getPrototypeOf:function(t){return t.__proto__||Object.getPrototypeOf(t)})(t)}function l(t,e){return(l=Object.setPrototypeOf||function(t,e){return t.__proto__=e,t})(t,e)}function s(){if("undefined"==typeof Reflect||!Reflect.construct)return!1;if(Reflect.construct.sham)return!1;if("function"==typeof Proxy)return!0;try{return Boolean.prototype.valueOf.call(Reflect.construct(Boolean,[],(function(){}))),!0}catch(t){return!1}}function f(t,e,n){return(f=s()?Reflect.construct:function(t,e,n){var r=[null];r.push.apply(r,e);var i=new(Function.bind.apply(t,r));return n&&l(i,n.prototype),i}).apply(null,arguments)}function c(t,e){if(e&&("object"==typeof e||"function"==typeof e))return e;if(void 0!==e)throw new TypeError("Derived constructors may only return object or undefined");return function(t){if(void 0===t)throw new ReferenceError("this hasn't been initialised - super() hasn't been called");return t}(t)}function h(t,e,n){return(h="undefined"!=typeof Reflect&&Reflect.get?Reflect.get:function(t,e,n){var r=function(t,e){for(;!Object.prototype.hasOwnProperty.call(t,e)&&null!==(t=a(t)););return t}(t,e);if(r){var i=Object.getOwnPropertyDescriptor(r,e);return i.get?i.get.call(n):i.value}})(t,e,n||t)}function v(t){return function(t){if(Array.isArray(t))return d(t)}(t)||function(t){if("undefined"!=typeof Symbol&&null!=t[Symbol.iterator]||null!=t["@@iterator"])return Array.from(t)}(t)||function(t,e){if(!t)return;if("string"==typeof t)return d(t,e);var n=Object.prototype.toString.call(t).slice(8,-1);"Object"===n&&t.constructor&&(n=t.constructor.name);if("Map"===n||"Set"===n)return Array.from(t);if("Arguments"===n||/^(?:Ui|I)nt(?:8|16|32)(?:Clamped)?Array$/.test(n))return d(t,e)}(t)||function(){throw new TypeError("Invalid attempt to spread non-iterable instance.\nIn order to be iterable, non-array objects must have a [Symbol.iterator]() method.")}()}function d(t,e){(null==e||e>t.length)&&(e=t.length);for(var n=0,r=new Array(e);n<e;n++)r[n]=t[n];return r}function y(t,e,n){if(Number.isInteger(t))return t;var r=Math.pow(10,e);return Math[n]((+t+Number.EPSILON)*r)/r}Number.isInteger||(Number.isInteger=function(t){return"number"==typeof t&&isFinite(t)&&Math.floor(t)===t}),Number.EPSILON||(Number.EPSILON=2220446049250313e-31);var g=p(Math.pow(10,-6));function p(t){var e=arguments.length>1&&void 0!==arguments[1]?arguments[1]:6;return y(t,e,"round")}function m(t,e){var n=arguments.length>2&&void 0!==arguments[2]?arguments[2]:g;return Math.abs(t-e)<n}p(Math.pow(10,-2)),p(Math.pow(10,-4));var b=Math.PI/180;function w(t){return t}function k(t,e,n){var r=1-n;return 3*n*r*(t*r+e*n)+n*n*n}function _(){var t=arguments.length>0&&void 0!==arguments[0]?arguments[0]:0,e=arguments.length>1&&void 0!==arguments[1]?arguments[1]:0,n=arguments.length>2&&void 0!==arguments[2]?arguments[2]:1,r=arguments.length>3&&void 0!==arguments[3]?arguments[3]:1;return t<0||t>1||n<0||n>1?null:m(t,e)&&m(n,r)?w:function(i){if(i<=0)return t>0?i*e/t:0===e&&n>0?i*r/n:0;if(i>=1)return n<1?1+(i-1)*(r-1)/(n-1):1===n&&t<1?1+(i-1)*(e-1)/(t-1):1;for(var o,u=0,a=1;u<a;){var l=k(t,n,o=(u+a)/2);if(m(i,l))break;l<i?u=o:a=o}return k(e,r,o)}}function A(){return 1}function x(t){return 1===t?1:0}function O(){var t=arguments.length>0&&void 0!==arguments[0]?arguments[0]:1,e=arguments.length>1&&void 0!==arguments[1]?arguments[1]:0;if(1===t){if(0===e)return x;if(1===e)return A}var n=1/t;return function(t){return t>=1?1:(t+=e*n)-t%n}}var S=Math.sin,E=Math.cos,j=Math.acos,M=Math.asin,P=Math.tan,B=Math.atan2,I=Math.PI/180,T=180/Math.PI,N=Math.sqrt,R=function(){function t(){var e=arguments.length>0&&void 0!==arguments[0]?arguments[0]:1,n=arguments.length>1&&void 0!==arguments[1]?arguments[1]:0,i=arguments.length>2&&void 0!==arguments[2]?arguments[2]:0,o=arguments.length>3&&void 0!==arguments[3]?arguments[3]:1,u=arguments.length>4&&void 0!==arguments[4]?arguments[4]:0,a=arguments.length>5&&void 0!==arguments[5]?arguments[5]:0;r(this,t),this.m=[e,n,i,o,u,a],this.i=null,this.w=null,this.s=null}return o(t,[{key:"determinant",get:function(){var t=this.m;return t[0]*t[3]-t[1]*t[2]}},{key:"isIdentity",get:function(){if(null===this.i){var t=this.m;this.i=1===t[0]&&0===t[1]&&0===t[2]&&1===t[3]&&0===t[4]&&0===t[5]}return this.i}},{key:"point",value:function(t,e){var n=this.m;return{x:n[0]*t+n[2]*e+n[4],y:n[1]*t+n[3]*e+n[5]}}},{key:"translateSelf",value:function(){var t=arguments.length>0&&void 0!==arguments[0]?arguments[0]:0,e=arguments.length>1&&void 0!==arguments[1]?arguments[1]:0;if(!t&&!e)return this;var n=this.m;return n[4]+=n[0]*t+n[2]*e,n[5]+=n[1]*t+n[3]*e,this.w=this.s=this.i=null,this}},{key:"rotateSelf",value:function(){var t=arguments.length>0&&void 0!==arguments[0]?arguments[0]:0;if(t%=360){var e=S(t*=I),n=E(t),r=this.m,i=r[0],o=r[1];r[0]=i*n+r[2]*e,r[1]=o*n+r[3]*e,r[2]=r[2]*n-i*e,r[3]=r[3]*n-o*e,this.w=this.s=this.i=null}return this}},{key:"scaleSelf",value:function(){var t=arguments.length>0&&void 0!==arguments[0]?arguments[0]:1,e=arguments.length>1&&void 0!==arguments[1]?arguments[1]:1;if(1!==t||1!==e){var n=this.m;n[0]*=t,n[1]*=t,n[2]*=e,n[3]*=e,this.w=this.s=this.i=null}return this}},{key:"skewSelf",value:function(t,e){if(e%=360,(t%=360)||e){var n=this.m,r=n[0],i=n[1],o=n[2],u=n[3];t&&(t=P(t*I),n[2]+=r*t,n[3]+=i*t),e&&(e=P(e*I),n[0]+=o*e,n[1]+=u*e),this.w=this.s=this.i=null}return this}},{key:"resetSelf",value:function(){var t=arguments.length>0&&void 0!==arguments[0]?arguments[0]:1,e=arguments.length>1&&void 0!==arguments[1]?arguments[1]:0,n=arguments.length>2&&void 0!==arguments[2]?arguments[2]:0,r=arguments.length>3&&void 0!==arguments[3]?arguments[3]:1,i=arguments.length>4&&void 0!==arguments[4]?arguments[4]:0,o=arguments.length>5&&void 0!==arguments[5]?arguments[5]:0,u=this.m;return u[0]=t,u[1]=e,u[2]=n,u[3]=r,u[4]=i,u[5]=o,this.w=this.s=this.i=null,this}},{key:"recomposeSelf",value:function(){var t=arguments.length>0&&void 0!==arguments[0]?arguments[0]:null,e=arguments.length>1&&void 0!==arguments[1]?arguments[1]:null,n=arguments.length>2&&void 0!==arguments[2]?arguments[2]:null,r=arguments.length>3&&void 0!==arguments[3]?arguments[3]:null,i=arguments.length>4&&void 0!==arguments[4]?arguments[4]:null;return this.isIdentity||this.resetSelf(),t&&(t.x||t.y)&&this.translateSelf(t.x,t.y),e&&this.rotateSelf(e),n&&(n.x&&this.skewSelf(n.x,0),n.y&&this.skewSelf(0,n.y)),!r||1===r.x&&1===r.y||this.scaleSelf(r.x,r.y),i&&(i.x||i.y)&&this.translateSelf(i.x,i.y),this}},{key:"decompose",value:function(){var t=arguments.length>0&&void 0!==arguments[0]?arguments[0]:0,e=arguments.length>1&&void 0!==arguments[1]?arguments[1]:0,n=this.m,r=n[0]*n[0]+n[1]*n[1],i=[[n[0],n[1]],[n[2],n[3]]],o=N(r);if(0===o)return{origin:{x:p(n[4]),y:p(n[5])},translate:{x:p(t),y:p(e)},scale:{x:0,y:0},skew:{x:0,y:0},rotate:0};i[0][0]/=o,i[0][1]/=o;var u=n[0]*n[3]-n[1]*n[2]<0;u&&(o=-o);var a=i[0][0]*i[1][0]+i[0][1]*i[1][1];i[1][0]-=i[0][0]*a,i[1][1]-=i[0][1]*a;var l=N(i[1][0]*i[1][0]+i[1][1]*i[1][1]);if(0===l)return{origin:{x:p(n[4]),y:p(n[5])},translate:{x:p(t),y:p(e)},scale:{x:p(o),y:0},skew:{x:0,y:0},rotate:0};i[1][0]/=l,i[1][1]/=l,a/=l;var s=0;return i[1][1]<0?(s=j(i[1][1])*T,i[0][1]<0&&(s=360-s)):s=M(i[0][1])*T,u&&(s=-s),a=B(a,N(i[0][0]*i[0][0]+i[0][1]*i[0][1]))*T,u&&(a=-a),{origin:{x:p(n[4]),y:p(n[5])},translate:{x:p(t),y:p(e)},scale:{x:p(o),y:p(l)},skew:{x:p(a),y:0},rotate:p(s)}}},{key:"clone",value:function(){var t=this.m;return new this.constructor(t[0],t[1],t[2],t[3],t[4],t[5])}},{key:"toString",value:function(){var t=arguments.length>0&&void 0!==arguments[0]?arguments[0]:" ";if(null===this.s){var e=this.m.map((function(t){return p(t)}));1===e[0]&&0===e[1]&&0===e[2]&&1===e[3]?this.s="translate("+e[4]+t+e[5]+")":this.s="matrix("+e.join(t)+")"}return this.s}}],[{key:"create",value:function(t){return t?Array.isArray(t)?f(this,v(t)):t instanceof this?t.clone():(new this).recomposeSelf(t.origin,t.rotate,t.skew,t.scale,t.translate):new this}}]),t}();function F(t,e,n){return t>=.5?n:e}function D(t,e,n){return 0===t||e===n?e:t*(n-e)+e}function C(t,e,n){var r=D(t,e,n);return r<=0?0:r}function q(t,e,n){var r=D(t,e,n);return r<=0?0:r>=1?1:r}function L(t,e,n){return 0===t?e:1===t?n:{x:D(t,e.x,n.x),y:D(t,e.y,n.y)}}function V(t,e,n){return 0===t?e:1===t?n:{x:C(t,e.x,n.x),y:C(t,e.y,n.y)}}function G(t,e,n){var r=function(t,e,n){return Math.round(D(t,e,n))}(t,e,n);return r<=0?0:r>=255?255:r}function z(t,e,n){return 0===t?e:1===t?n:{r:G(t,e.r,n.r),g:G(t,e.g,n.g),b:G(t,e.b,n.b),a:D(t,null==e.a?1:e.a,null==n.a?1:n.a)}}function Y(t,e,n){var r=e.length;if(r!==n.length)return F(t,e,n);for(var i=new Array(r),o=0;o<r;o++)i[o]=D(t,e[o],n[o]);return i}function U(t,e){for(var n=[],r=0;r<t;r++)n.push(e);return n}function W(t,e){if(--e<=0)return t;var n=(t=Object.assign([],t)).length;do{for(var r=0;r<n;r++)t.push(t[r])}while(--e>0);return t}var $,H=function(){function t(e){r(this,t),this.list=e,this.length=e.length}return o(t,[{key:"setAttribute",value:function(t,e){for(var n=this.list,r=0;r<this.length;r++)n[r].setAttribute(t,e)}},{key:"removeAttribute",value:function(t){for(var e=this.list,n=0;n<this.length;n++)e[n].removeAttribute(t)}},{key:"style",value:function(t,e){for(var n=this.list,r=0;r<this.length;r++)n[r].style[t]=e}}]),t}(),Q=/-./g,X=function(t,e){return e.toUpperCase()};function J(t){return"function"==typeof t?t:F}function K(t){return t?"function"==typeof t?t:Array.isArray(t)?function(t){var e=arguments.length>1&&void 0!==arguments[1]?arguments[1]:w;if(!Array.isArray(t))return e;switch(t.length){case 1:return O(t[0])||e;case 2:return O(t[0],t[1])||e;case 4:return _(t[0],t[1],t[2],t[3])||e}return e}(t,null):function(t,e){var n=arguments.length>2&&void 0!==arguments[2]?arguments[2]:w;switch(t){case"linear":return w;case"steps":return O(e.steps||1,e.jump||0)||n;case"bezier":case"cubic-bezier":return _(e.x1||0,e.y1||0,e.x2||0,e.y2||0)||n}return n}(t.type,t.value,null):null}function Z(t,e,n){var r=arguments.length>3&&void 0!==arguments[3]&&arguments[3],i=e.length-1;if(t<=e[0].t)return r?[0,0,e[0].v]:e[0].v;if(t>=e[i].t)return r?[i,1,e[i].v]:e[i].v;var o,u=e[0],a=null;for(o=1;o<=i;o++){if(!(t>e[o].t)){a=e[o];break}u=e[o]}return null==a?r?[i,1,e[i].v]:e[i].v:u.t===a.t?r?[o,1,a.v]:a.v:(t=(t-u.t)/(a.t-u.t),u.e&&(t=u.e(t)),r?[o,t,n(t,u.v,a.v)]:n(t,u.v,a.v))}function tt(t,e){var n=arguments.length>2&&void 0!==arguments[2]?arguments[2]:null;return t&&t.length?"function"!=typeof e?null:("function"!=typeof n&&(n=null),function(r){var i=Z(r,t,e);return null!=i&&n&&(i=n(i)),i}):null}function et(t,e){return t.t-e.t}function nt(t,e,r,i,o){var u,a="@"===r[0],l="#"===r[0],s=$[r],f=F;switch(a?(u=r.substr(1),r=u.replace(Q,X)):l&&(r=r.substr(1)),n(s)){case"function":if(f=s(i,o,Z,K,r,a,e,t),l)return f;break;case"string":f=tt(i,J(s));break;case"object":if((f=tt(i,J(s.i),s.f))&&"function"==typeof s.u)return s.u(e,f,r,a,t)}return f?function(t,e,n){if(arguments.length>3&&void 0!==arguments[3]&&arguments[3])return t instanceof H?function(r){return t.style(e,n(r))}:function(r){return t.style[e]=n(r)};if(Array.isArray(e)){var r=e.length;return function(i){var o=n(i);if(null==o)for(var u=0;u<r;u++)t[u].removeAttribute(e);else for(var a=0;a<r;a++)t[a].setAttribute(e,o)}}return function(r){var i=n(r);null==i?t.removeAttribute(e):t.setAttribute(e,i)}}(e,r,f,a):null}function rt(t,e,r,i){if(!i||"object"!==n(i))return null;var o=null,u=null;return Array.isArray(i)?u=function(t){if(!t||!t.length)return null;for(var e=0;e<t.length;e++)t[e].e&&(t[e].e=K(t[e].e));return t.sort(et)}(i):(u=i.keys,o=i.data||null),u?nt(t,e,r,u,o):null}function it(t,e,n){if(!n)return null;var r=[];for(var i in n)if(n.hasOwnProperty(i)){var o=rt(t,e,i,n[i]);o&&r.push(o)}return r.length?r:null}function ot(t,e){if(!e.settings.duration||e.settings.duration<0)return null;var n,r,i,o,u,a=function(t,e){if(!e)return null;var n=[];if(Array.isArray(e))for(var r=e.length,i=0;i<r;i++){var o=e[i];if(2===o.length){var u=null;if("string"==typeof o[0])u=t.getElementById(o[0]);else if(Array.isArray(o[0])){u=[];for(var a=0;a<o[0].length;a++)if("string"==typeof o[0][a]){var l=t.getElementById(o[0][a]);l&&u.push(l)}u=u.length?1===u.length?u[0]:new H(u):null}if(u){var s=it(t,u,o[1]);s&&(n=n.concat(s))}}}else for(var f in e)if(e.hasOwnProperty(f)){var c=t.getElementById(f);if(c){var h=it(t,c,e[f]);h&&(n=n.concat(h))}}return n.length?n:null}(t,e.elements);return a?(n=a,r=e.settings,i=r.duration,o=n.length,u=null,function(t,e){var a=r.iterations||1/0,l=(r.alternate&&a%2==0)^r.direction>0?i:0,s=t%i,f=1+(t-s)/i;e*=r.direction,r.alternate&&f%2==0&&(e=-e);var c=!1;if(f>a)s=l,c=!0,-1===r.fill&&(s=r.direction>0?0:i);else if(e<0&&(s=i-s),s===u)return!1;u=s;for(var h=0;h<o;h++)n[h](s);return c}):null}function ut(t,e){for(var n=e.querySelectorAll("svg"),r=0;r<n.length;r++)if(n[r].id===t.root&&!n[r].svgatorAnimation)return n[r].svgatorAnimation=!0,n[r];return null}function at(t){var e=function(t){return t.shadowRoot};return document?Array.from(t.querySelectorAll(":not("+["a","area","audio","br","canvas","circle","datalist","embed","g","head","hr","iframe","img","input","link","object","path","polygon","rect","script","source","style","svg","title","track","video"].join()+")")).filter(e).map(e):[]}function lt(t){var e=arguments.length>1&&void 0!==arguments[1]?arguments[1]:document,n=arguments.length>2&&void 0!==arguments[2]?arguments[2]:0,r=ut(t,e);if(r)return r;if(n>=20)return null;for(var i=at(e),o=0;o<i.length;o++){var u=lt(t,i[o],n+1);if(u)return u}return null}function st(t,e){if($=e,!t||!t.root||!Array.isArray(t.animations))return null;var n=lt(t);if(!n)return null;var r=t.animations.map((function(t){return ot(n,t)})).filter((function(t){return!!t}));return r.length?{svg:n,animations:r,animationSettings:t.animationSettings,options:t.options||void 0}:null}function ft(t){var e=arguments.length>1&&void 0!==arguments[1]?arguments[1]:null,n=arguments.length>2&&void 0!==arguments[2]?arguments[2]:Number,r=arguments.length>3&&void 0!==arguments[3]?arguments[3]:"undefined"!=typeof BigInt&&BigInt,i="0x"+(t.replace(/[^0-9a-fA-F]+/g,"")||27);return e&&r&&n.isSafeInteger&&!n.isSafeInteger(+i)?n(r(i))%e+e:+i}function ct(t,e,n){return!t||!n||e>t.length?t:t.substring(0,e)+ct(t.substring(e+1),n,n)}function ht(t){var e=arguments.length>1&&void 0!==arguments[1]?arguments[1]:27;return!t||t%e?t%e:[0,1].includes(e)?e:ht(t/e,e)}function vt(t,e,n){if(t&&t.length){var r=ft(n),i=ht(r)+5,o=ct(t,ht(r,5),i);return o=o.replace(/\x7c$/g,"==").replace(/\x2f$/g,"="),o=function(t,e,n){var r=+("0x"+t.substring(0,4));t=t.substring(4);for(var i=ft(e,r)%r+n%27,o=[],u=0;u<t.length;u+=2)if("|"!==t[u]){var a=+("0x"+t[u]+t[u+1])-i;o.push(a)}else{var l=+("0x"+t.substring(u+1,u+1+4))-i;u+=3,o.push(l)}return String.fromCharCode.apply(String,o)}(o=(o=atob(o)).replace(/[\x41-\x5A]/g,""),e,r),o=JSON.parse(o)}}var dt=[{key:"alternate",def:!1},{key:"fill",def:1},{key:"iterations",def:0},{key:"direction",def:1},{key:"speed",def:1},{key:"fps",def:100}],yt=function(){function t(e,n){var i=this,o=arguments.length>2&&void 0!==arguments[2]?arguments[2]:null;r(this,t),this._id=0,this._running=!1,this._rollingBack=!1,this._animations=e,this._settings=n,(!o||o<"2022-05-02")&&delete this._settings.speed,dt.forEach((function(t){i._settings[t.key]=i._settings[t.key]||t.def})),this.duration=n.duration,this.offset=n.offset||0,this.rollbackStartOffset=0}return o(t,[{key:"alternate",get:function(){return this._settings.alternate}},{key:"fill",get:function(){return this._settings.fill}},{key:"iterations",get:function(){return this._settings.iterations}},{key:"direction",get:function(){return this._settings.direction}},{key:"speed",get:function(){return this._settings.speed}},{key:"fps",get:function(){return this._settings.fps}},{key:"maxFiniteDuration",get:function(){return this.iterations>0?this.iterations*this.duration:this.duration}},{key:"_apply",value:function(t){for(var e=arguments.length>1&&void 0!==arguments[1]?arguments[1]:{},n=this._animations,r=n.length,i=0,o=0;o<r;o++)e[o]?i++:(e[o]=n[o](t,1),e[o]&&i++);return i}},{key:"_rollback",value:function(t){var e=this,n=1/0,r=null;this.rollbackStartOffset=t,this._rollingBack=!0,this._running=!0;this._id=window.requestAnimationFrame((function i(o){if(e._rollingBack){null==r&&(r=o);var u=Math.round(t-(o-r)*e.speed);if(u>e.duration&&n!==1/0){var a=!!e.alternate&&u/e.duration%2>1,l=u%e.duration;u=(l+=a?e.duration:0)||e.duration}var s=(e.fps?1e3/e.fps:0)*e.speed,f=Math.max(0,u);f<=n-s&&(e.offset=f,n=f,e._apply(f));var c=e.iterations>0&&-1===e.fill&&u>=e.maxFiniteDuration;(u<=0||e.offset<u||c)&&e.stop(),e._id=window.requestAnimationFrame(i)}}))}},{key:"_start",value:function(){var t=this,e=arguments.length>0&&void 0!==arguments[0]?arguments[0]:0,n=-1/0,r=null,i={};this._running=!0;var o=function o(u){null==r&&(r=u);var a=Math.round((u-r)*t.speed+e),l=(t.fps?1e3/t.fps:0)*t.speed;if(a>=n+l&&!t._rollingBack&&(t.offset=a,n=a,t._apply(a,i)===t._animations.length))return void t.pause(!0);t._id=window.requestAnimationFrame(o)};this._id=window.requestAnimationFrame(o)}},{key:"_pause",value:function(){this._id&&window.cancelAnimationFrame(this._id),this._running=!1}},{key:"play",value:function(){if(!this._running)return this._rollingBack?this._rollback(this.offset):this._start(this.offset)}},{key:"stop",value:function(){this._pause(),this.offset=0,this.rollbackStartOffset=0,this._rollingBack=!1,this._apply(0)}},{key:"reachedToEnd",value:function(){return this.iterations>0&&this.offset>=this.iterations*this.duration}},{key:"restart",value:function(){var t=arguments.length>0&&void 0!==arguments[0]&&arguments[0];this.stop(t),this.play(t)}},{key:"pause",value:function(){this._pause()}},{key:"reverse",value:function(){this.direction=-this.direction}}],[{key:"build",value:function(t,e){delete t.animationSettings,t.options=vt(t.options,t.root,"91c80d77"),t.animations.map((function(e){e.settings=vt(e.s,t.root,"91c80d77"),delete e.s,t.animationSettings||(t.animationSettings=e.settings)}));var n=t.version;if(!(t=st(t,e)))return null;var r=t.options||{},i=new this(t.animations,t.animationSettings,n);return{el:t.svg,options:r,player:i}}},{key:"push",value:function(t){return this.build(t)}},{key:"init",value:function(){var t=this,e=window.__SVGATOR_PLAYER__&&window.__SVGATOR_PLAYER__["91c80d77"];Array.isArray(e)&&e.splice(0).forEach((function(e){return t.build(e)}))}}]),t}();!function(){for(var t=0,e=["ms","moz","webkit","o"],n=0;n<e.length&&!window.requestAnimationFrame;++n)window.requestAnimationFrame=window[e[n]+"RequestAnimationFrame"],window.cancelAnimationFrame=window[e[n]+"CancelAnimationFrame"]||window[e[n]+"CancelRequestAnimationFrame"];window.requestAnimationFrame||(window.requestAnimationFrame=function(e){var n=Date.now(),r=Math.max(0,16-(n-t)),i=window.setTimeout((function(){e(n+r)}),r);return t=n+r,i},window.cancelAnimationFrame=window.clearTimeout)}();var gt=function(){function t(e,n,i){r(this,t);var o=function(t){var e,n,r,i=t&&1===(null===(e=t.ownerDocument)||void 0===e||null===(n=e.childNodes)||void 0===n?void 0:n.length)&&window.parent!==window,o={el:t,window:window};if(!i)return o;try{r=window.parent.document}catch(t){return o}return o.window=window.parent,o.el=Array.from(r.querySelectorAll("iframe,object")).filter((function(t){return t.contentWindow===window}))[0]||o.el,o}(e);n=Math.max(1,n||1),n=Math.min(n,100),this.el=o.el,this._handlers=[],this.onThresholdChange=i&&i.call?i:function(){},this.thresholdPercent=n||1,this.currentVisibility=null,this.visibilityCalculator=function(t,e){var n=arguments.length>2&&void 0!==arguments[2]?arguments[2]:n,r=!1,i=null,o=function(){for(var o=0,u=n.innerHeight,a=0,l=n.innerWidth,s=t.parentNode;s instanceof Element;){var f=n.getComputedStyle(s);if("visible"!==f.overflowY||"visible"!==f.overflowX){var c=s.getBoundingClientRect();"visible"!==f.overflowY&&(o=Math.max(o,c.top),u=Math.min(u,c.bottom)),"visible"!==f.overflowX&&(a=Math.max(a,c.left),l=Math.min(l,c.right))}if(s===s.parentNode)break;s=s.parentNode}r=!1;var h=t.getBoundingClientRect(),v=Math.min(h.height,Math.max(0,o-h.top)),d=Math.min(h.height,Math.max(0,h.bottom-u)),y=Math.min(h.width,Math.max(0,a-h.left)),g=Math.min(h.width,Math.max(0,h.right-l)),p=(h.height-v-d)/h.height,m=(h.width-y-g)/h.width,b=Math.round(p*m*100);null!==i&&i===b||(i=b,e(b))};return function(t){r&&clearTimeout(r),r=setTimeout((function(){return o()}),100)}}(this.el,this.onVisibilityUpdate.bind(this),o.window),this.bindScrollWatchers(),this.visibilityCalculator()}return o(t,[{key:"bindScrollWatchers",value:function(){for(var t=this.el.parentNode;t&&(this._handlers.push({element:t,event:"scroll",handler:this.visibilityCalculator}),t.addEventListener("scroll",this.visibilityCalculator),t!==t.parentNode&&t!==document);)t=t.parentNode}},{key:"onVisibilityUpdate",value:function(t){var e=this.currentVisibility>=this.thresholdPercent,n=t>=this.thresholdPercent;if(null===this.currentVisibility||e!==n)return this.currentVisibility=t,void this.onThresholdChange(n);this.currentVisibility=t}},{key:"destruct",value:function(){this._handlers.forEach((function(t){t.element.removeEventListener(t.event,t.handler)}))}}]),t}();function pt(t){return p(t)+""}function mt(t){var e=arguments.length>1&&void 0!==arguments[1]?arguments[1]:" ";return t&&t.length?t.map(pt).join(e):""}function bt(t){return pt(t.x)+","+pt(t.y)}function wt(t){if(!t)return"transparent";if(null==t.a||t.a>=1){var e=function(t){return 1===(t=parseInt(t).toString(16)).length?"0"+t:t},n=function(t){return t.charAt(0)===t.charAt(1)},r=e(t.r),i=e(t.g),o=e(t.b);return n(r)&&n(i)&&n(o)&&(r=r.charAt(0),i=i.charAt(0),o=o.charAt(0)),"#"+r+i+o}return"rgba("+t.r+","+t.g+","+t.b+","+t.a+")"}function kt(t){return t?"url(#"+t+")":"none"}var _t={f:null,i:V,u:function(t,e){return function(n){var r=e(n);t.setAttribute("rx",pt(r.x)),t.setAttribute("ry",pt(r.y))}}},At={f:null,i:function(t,e,n){return 0===t?e:1===t?n:{width:C(t,e.width,n.width),height:C(t,e.height,n.height)}},u:function(t,e){return function(n){var r=e(n);t.setAttribute("width",pt(r.width)),t.setAttribute("height",pt(r.height))}}};Object.freeze({M:2,L:2,Z:0,H:1,V:1,C:6,Q:4,T:2,S:4,A:7});var xt={},Ot=null;function St(t){var e=function(){if(Ot)return Ot;if("object"!==("undefined"==typeof document?"undefined":n(document))||!document.createElementNS)return{};var t=document.createElementNS("http://www.w3.org/2000/svg","svg");return t&&t.style?(t.style.position="absolute",t.style.opacity="0.01",t.style.zIndex="-9999",t.style.left="-9999px",t.style.width="1px",t.style.height="1px",Ot={svg:t}):{}}().svg;if(!e)return function(t){return null};var r=document.createElementNS(e.namespaceURI,"path");r.setAttributeNS(null,"d",t),r.setAttributeNS(null,"fill","none"),r.setAttributeNS(null,"stroke","none"),e.appendChild(r);var i=r.getTotalLength();return function(t){var e=r.getPointAtLength(i*t);return{x:e.x,y:e.y}}}function Et(t){return xt[t]?xt[t]:xt[t]=St(t)}function jt(t,e,n,r){if(!t||!r)return!1;var i=["M",t.x,t.y];if(e&&n&&(i.push("C"),i.push(e.x),i.push(e.y),i.push(n.x),i.push(n.y)),e?!n:n){var o=e||n;i.push("Q"),i.push(o.x),i.push(o.y)}return e||n||i.push("L"),i.push(r.x),i.push(r.y),i.join(" ")}function Mt(t,e,n,r){var i=arguments.length>4&&void 0!==arguments[4]?arguments[4]:1,o=jt(t,e,n,r),u=Et(o);try{return u(i)}catch(t){return null}}function Pt(t,e,n){return t+(e-t)*n}function Bt(t,e,n){var r=arguments.length>3&&void 0!==arguments[3]&&arguments[3],i={x:Pt(t.x,e.x,n),y:Pt(t.y,e.y,n)};return r&&(i.a=It(t,e)),i}function It(t,e){return Math.atan2(e.y-t.y,e.x-t.x)}function Tt(t,e,n,r){var i=1-r;return i*i*t+2*i*r*e+r*r*n}function Nt(t,e,n,r){return 2*(1-r)*(e-t)+2*r*(n-e)}function Rt(t,e,n,r){var i=arguments.length>4&&void 0!==arguments[4]&&arguments[4],o=Mt(t,e,null,n,r);return o||(o={x:Tt(t.x,e.x,n.x,r),y:Tt(t.y,e.y,n.y,r)}),i&&(o.a=Ft(t,e,n,r)),o}function Ft(t,e,n,r){return Math.atan2(Nt(t.y,e.y,n.y,r),Nt(t.x,e.x,n.x,r))}function Dt(t,e,n,r,i){var o=i*i;return i*o*(r-t+3*(e-n))+3*o*(t+n-2*e)+3*i*(e-t)+t}function Ct(t,e,n,r,i){var o=1-i;return 3*(o*o*(e-t)+2*o*i*(n-e)+i*i*(r-n))}function qt(t,e,n,r,i){var o=arguments.length>5&&void 0!==arguments[5]&&arguments[5],u=Mt(t,e,n,r,i);return u||(u={x:Dt(t.x,e.x,n.x,r.x,i),y:Dt(t.y,e.y,n.y,r.y,i)}),o&&(u.a=Lt(t,e,n,r,i)),u}function Lt(t,e,n,r,i){return Math.atan2(Ct(t.y,e.y,n.y,r.y,i),Ct(t.x,e.x,n.x,r.x,i))}function Vt(t,e,n){var r=arguments.length>3&&void 0!==arguments[3]&&arguments[3];if(zt(e)){if(Yt(n))return Rt(e,n.start,n,t,r)}else if(zt(n)){if(Ut(e))return Rt(e,e.end,n,t,r)}else{if(Ut(e))return Yt(n)?qt(e,e.end,n.start,n,t,r):Rt(e,e.end,n,t,r);if(Yt(n))return Rt(e,n.start,n,t,r)}return Bt(e,n,t,r)}function Gt(t,e,n){var r=Vt(t,e,n,!0);return r.a=function(t){return arguments.length>1&&void 0!==arguments[1]&&arguments[1]?t+Math.PI:t}(r.a)/b,r}function zt(t){return!t.type||"corner"===t.type}function Yt(t){return null!=t.start&&!zt(t)}function Ut(t){return null!=t.end&&!zt(t)}var Wt=new R;var $t={f:function(t){return t?t.join(" "):""},i:function(t,e,r){if(0===t)return e;if(1===t)return r;var i=e.length;if(i!==r.length)return F(t,e,r);for(var o,u=new Array(i),a=0;a<i;a++){if((o=n(e[a]))!==n(r[a]))return F(t,e,r);if("number"===o)u[a]=D(t,e[a],r[a]);else{if(e[a]!==r[a])return F(t,e,r);u[a]=e[a]}}return u}},Ht={f:null,i:Y,u:function(t,e){return function(n){var r=e(n);t.setAttribute("x1",pt(r[0])),t.setAttribute("y1",pt(r[1])),t.setAttribute("x2",pt(r[2])),t.setAttribute("y2",pt(r[3]))}}},Qt={f:pt,i:D},Xt={f:pt,i:q},Jt={f:function(t){var e=arguments.length>1&&void 0!==arguments[1]?arguments[1]:" ";return t&&t.length>0&&(t=t.map((function(t){return p(t,4)}))),mt(t,e)},i:function(t,e,n){var r,i,o,u=e.length,a=n.length;if(u!==a)if(0===u)e=U(u=a,0);else if(0===a)a=u,n=U(u,0);else{var l=(o=(r=u)*(i=a)/function(t,e){for(var n;e;)n=e,e=t%e,t=n;return t||1}(r,i))<0?-o:o;e=W(e,Math.floor(l/u)),n=W(n,Math.floor(l/a)),u=a=l}for(var s=[],f=0;f<u;f++)s.push(p(C(t,e[f],n[f])));return s}};function Kt(t,e,n){return t.map((function(t){return function(t,e,n){var r=t.v;if(!r||"g"!==r.t||r.s||!r.v||!r.r)return t;var i=n.getElementById(r.r),o=i&&i.querySelectorAll("stop")||[];return r.s=r.v.map((function(t,e){var n=o[e]&&o[e].getAttribute("offset");return{c:t,o:n=p(parseInt(n)/100)}})),delete r.v,t}(t,0,n)}))}var Zt={gt:"gradientTransform",c:{x:"cx",y:"cy"},rd:"r",f:{x:"x1",y:"y1"},to:{x:"x2",y:"y2"}};function te(t,e,r,i,o,u,a,l){return Kt(t,0,l),e=function(t,e,n){for(var r,i,o,u=t.length-1,a={},l=0;l<=u;l++)(r=t[l]).e&&(r.e=e(r.e)),r.v&&"g"===(i=r.v).t&&i.r&&(o=n.getElementById(i.r))&&(a[i.r]={e:o,s:o.querySelectorAll("stop")});return a}(t,i,l),function(i){var o=r(i,t,ee);if(!o)return"none";if("c"===o.t)return wt(o.v);if("g"===o.t){if(!e[o.r])return kt(o.r);var u=e[o.r];return function(t,e){for(var n=t.s,r=n.length;r<e.length;r++){var i=n[n.length-1].cloneNode();i.id=ie(i.id),t.e.appendChild(i),n=t.s=t.e.querySelectorAll("stop")}for(var o=0,u=n.length,a=e.length-1;o<u;o++)n[o].setAttribute("stop-color",wt(e[Math.min(o,a)].c)),n[o].setAttribute("offset",e[Math.min(o,a)].o)}(u,o.s),Object.keys(Zt).forEach((function(t){if(void 0!==o[t])if("object"!==n(Zt[t])){var e,r="gt"===t?(e=o[t],Array.isArray(e)?"matrix("+e.join(" ")+")":""):o[t],i=Zt[t];u.e.setAttribute(i,r)}else Object.keys(Zt[t]).forEach((function(e){if(void 0!==o[t][e]){var n=o[t][e],r=Zt[t][e];u.e.setAttribute(r,n)}}))})),kt(o.r)}return"none"}}function ee(t,n,r){if(0===t)return n;if(1===t)return r;if(n&&r){var i=n.t;if(i===r.t)switch(n.t){case"c":return{t:i,v:z(t,n.v,r.v)};case"g":if(n.r===r.r){var o={t:i,s:ne(t,n.s,r.s),r:n.r};return n.gt&&r.gt&&(o.gt=Y(t,n.gt,r.gt)),n.c?(o.c=L(t,n.c,r.c),o.rd=C(t,n.rd,r.rd)):n.f&&(o.f=L(t,n.f,r.f),o.to=L(t,n.to,r.to)),o}}if("c"===n.t&&"g"===r.t||"c"===r.t&&"g"===n.t){var u="c"===n.t?n:r,a="g"===n.t?e({},n):e({},r),l=a.s.map((function(t){return{c:u.v,o:t.o}}));return a.s="c"===n.t?ne(t,l,a.s):ne(t,a.s,l),a}}return F(t,n,r)}function ne(t,e,n){if(e.length===n.length)return e.map((function(e,r){return re(t,e,n[r])}));for(var r=Math.max(e.length,n.length),i=[],o=0;o<r;o++){var u=re(t,e[Math.min(o,e.length-1)],n[Math.min(o,n.length-1)]);i.push(u)}return i}function re(t,e,n){return{o:q(t,e.o,n.o||0),c:z(t,e.c,n.c||{})}}function ie(t){return t.replace(/-fill-([0-9]+)$/,(function(t,e){return"-fill-"+(+e+1)}))}function oe(t,e,n){return 0===t?e:1===t?n:{blur:V(t,e.blur,n.blur),offset:L(t,e.offset,n.offset),color:z(t,e.color,n.color)}}var ue={blur:V,brightness:C,contrast:C,"drop-shadow":oe,"inner-shadow":oe,grayscale:C,"hue-rotate":D,invert:C,opacity:C,saturate:C,sepia:C};function ae(t,e,n){if(0===t)return e;if(1===t)return n;var r=e.length;if(r!==n.length)return F(t,e,n);for(var i,o=[],u=0;u<r;u++){if(e[u].type!==n[u].type)return e;if(!(i=ue[e[u].type]))return F(t,e,n);o.push({type:e.type,value:i(t,e[u].value,n[u].value)})}return o}var le={blur:function(t){return t?function(e){t.setAttribute("stdDeviation",bt(e))}:null},brightness:function(t,e,n){return(t=fe(n,e))?function(e){e=pt(e),t.map((function(t){return t.setAttribute("slope",e)}))}:null},contrast:function(t,e,n){return(t=fe(n,e))?function(e){var n=pt((1-e)/2);e=pt(e),t.map((function(t){t.setAttribute("slope",e),t.setAttribute("intercept",n)}))}:null},"drop-shadow":function(t,e,n){var r=n.getElementById(e+"-blur");if(!r)return null;var i=n.getElementById(e+"-offset");if(!i)return null;var o=n.getElementById(e+"-flood");return o?function(t){r.setAttribute("stdDeviation",bt(t.blur)),i.setAttribute("dx",pt(t.offset.x)),i.setAttribute("dy",pt(t.offset.y)),o.setAttribute("flood-color",wt(t.color))}:null},"inner-shadow":function(t,e,n){var r=n.getElementById(e+"-blur");if(!r)return null;var i=n.getElementById(e+"-offset");if(!i)return null;var o=n.getElementById(e+"-color-matrix");return o?function(t){r.setAttribute("stdDeviation",bt(t.blur)),i.setAttribute("dx",pt(t.offset.x)),i.setAttribute("dy",pt(t.offset.y));var e=[0,0,0,0,t.color.r/255,0,0,0,0,t.color.g/255,0,0,0,0,t.color.b/255,0,0,0,t.color.a,0];o.setAttribute("values",mt(e))}:null},grayscale:function(t){return t?function(e){t.setAttribute("values",mt(function(t){return[.2126+.7874*(t=1-t),.7152-.7152*t,.0722-.0722*t,0,0,.2126-.2126*t,.7152+.2848*t,.0722-.0722*t,0,0,.2126-.2126*t,.7152-.7152*t,.0722+.9278*t,0,0,0,0,0,1,0]}(e)))}:null},"hue-rotate":function(t){return t?function(e){return t.setAttribute("values",pt(e))}:null},invert:function(t,e,n){return(t=fe(n,e))?function(e){e=pt(e)+" "+pt(1-e),t.map((function(t){return t.setAttribute("tableValues",e)}))}:null},opacity:function(t,e,n){return(t=n.getElementById(e+"-A"))?function(e){return t.setAttribute("tableValues","0 "+pt(e))}:null},saturate:function(t){return t?function(e){return t.setAttribute("values",pt(e))}:null},sepia:function(t){return t?function(e){return t.setAttribute("values",mt(function(t){return[.393+.607*(t=1-t),.769-.769*t,.189-.189*t,0,0,.349-.349*t,.686+.314*t,.168-.168*t,0,0,.272-.272*t,.534-.534*t,.131+.869*t,0,0,0,0,0,1,0]}(e)))}:null}};var se=["R","G","B"];function fe(t,e){var n=se.map((function(n){return t.getElementById(e+"-"+n)||null}));return-1!==n.indexOf(null)?null:n}var ce={fill:te,"fill-opacity":Xt,stroke:te,"stroke-opacity":Xt,"stroke-width":Qt,"stroke-dashoffset":{f:pt,i:D},"stroke-dasharray":Jt,opacity:Xt,transform:function(t,e,r,i){if(!(t=function(t,e){if(!t||"object"!==n(t))return null;var r=!1;for(var i in t)t.hasOwnProperty(i)&&(t[i]&&t[i].length?(t[i].forEach((function(t){t.e&&(t.e=e(t.e))})),r=!0):delete t[i]);return r?t:null}(t,i)))return null;var o=function(n,i,o){var u=arguments.length>3&&void 0!==arguments[3]?arguments[3]:null;return t[n]?r(i,t[n],o):e&&e[n]?e[n]:u};return e&&e.a&&t.o?function(e){var n=r(e,t.o,Gt);return Wt.recomposeSelf(n,o("r",e,D,0)+n.a,o("k",e,L),o("s",e,L),o("t",e,L)).toString()}:function(t){return Wt.recomposeSelf(o("o",t,Vt,null),o("r",t,D,0),o("k",t,L),o("s",t,L),o("t",t,L)).toString()}},"#filter":function(t,e,n,r,i,o,u,a){if(!e.items||!t||!t.length)return null;var l=function(t,e){var n=(t=t.map((function(t){return t&&le[t[0]]?(e.getElementById(t[1]),le[t[0]](e.getElementById(t[1]),t[1],e)):null}))).length;return function(e){for(var r=0;r<n;r++)t[r]&&t[r](e[r].value)}}(e.items,a);return l?(t=function(t,e){return t.map((function(t){return t.e=e(t.e),t}))}(t,r),function(e){l(n(e,t,ae))}):null},"#line":Ht,points:{f:mt,i:Y},d:$t,r:Qt,"#size":At,"#radius":_t,_:function(t,e){if(Array.isArray(t))for(var n=0;n<t.length;n++)this[t[n]]=e;else this[t]=e}},he={currentTime:"offset",duration:"duration",hasEnded:function(){return this.reachedToEnd()},isAlternate:"alternate",isPlaying:"_running",isRollingBack:"_rollingBack",state:function(t,e){return e.isPlaying?e.isRollingBack?"rollback":"playing":e.hasEnded?"ended":"paused"},totalTime:"maxFiniteDuration",iterations:"iterations",direction:"direction",fill:"fill",isReversed:function(t,e){return-1===e.direction},isBackwards:function(t,e){return-1===e.fill},isInfinite:function(t,e){return 0===e.iterations},speed:"speed",fps:"fps"},ve={destruct:"destruct",pause:"pause",play:function(t,e){return de(t,e.hasEnded?"restart":"play",e)},restart:"restart",reverse:function(t,e){return de(t,"reverse",e,[!0])},seek:"seek",seekBy:"seekBy",seekTo:"seekTo",stop:"stop",toggle:"toggle",togglePlay:"toggle",set:"set"};function de(t,e,n){var r=arguments.length>3&&void 0!==arguments[3]?arguments[3]:[];return function(){var i,o=Array.prototype.slice.call(arguments);return o.unshift.apply(o,v(r)),(i=t[e]).call.apply(i,[t].concat(v(o))),n}}var ye=function t(e){r(this,t);var n={},i=["on","off"],o={get:function(t,e,r){return he[e]?"function"==typeof he[e]?he[e].call(t,t,r):t[he[e]]:ve[e]?"function"==typeof ve[e]?ve[e].call(t,t,r):de(t,ve[e],r):-1!==i.indexOf(e)?n[e]:"ready"===e?function(t){return t&&t.call(r,r),r}:void 0},set:function(t,e,r){return-1!==i.indexOf(e)&&(n[e]=r)},ownKeys:function(t){return Object.keys(he)},has:function(t,e){return void 0!==he[e]}};if("function"==typeof Proxy)return new Proxy(e,o);var u=Object.keys(he).concat(Object.keys(ve)).concat(i),a={};return u.forEach((function(t){var n={enumerable:!1,configurable:!1,get:function(){return o.get(e,t,a)}};-1!==i.indexOf(t)&&(n.set=function(n){return o.set(e,t,n)}),Object.defineProperty(a,t,n)})),a};function ge(t){t||(t=this);var e={};this.on=function(t,n){var r=arguments.length>2&&void 0!==arguments[2]&&arguments[2];return"function"==typeof n&&(t.split(/[, ]+/g).forEach((function(t){return e[t]=e[t]||[],r?e[t].unshift(n):e[t].push(n)})),!0)},this.off=function(t,n){for(var r in e)if(e.hasOwnProperty(r)&&r.substr(0,t.length)===t)if(n)for(var i=0;i<e[r].length;i++)e[r][i]===n&&(e[r][i]=null);else e[r]=null},this.trigger=function(){var n,r=Array.prototype.slice.call(arguments),i=r[0],o=r.slice(1);t:for(var u in e)if(e.hasOwnProperty(u)&&e[u]&&(u===i||u.substr(0,i.length+1)===i+"."))for(var a=0;a<(e[u]||[]).length;a++)if(e[u][a]&&!1===(n=e[u][a].apply(t,o)))break t;return n}}var pe=!0,me=["iterations","speed","fps","direction","fill","alternate"],be=function(t){!function(t,e){if("function"!=typeof e&&null!==e)throw new TypeError("Super expression must either be null or a function");t.prototype=Object.create(e&&e.prototype,{constructor:{value:t,writable:!0,configurable:!0}}),e&&l(t,e)}(u,t);var e,n,i=(e=u,n=s(),function(){var t,r=a(e);if(n){var i=a(this).constructor;t=Reflect.construct(r,arguments,i)}else t=r.apply(this,arguments);return c(this,t)});function u(t,e){var n,o=arguments.length>2&&void 0!==arguments[2]?arguments[2]:null;return r(this,u),(n=i.call(this,t,e,o))._handlers=[],n}return o(u,[{key:"_adjustOffset",value:function(){var t=arguments.length>0&&void 0!==arguments[0]&&arguments[0],e=this.alternate?2*this.duration:this.duration;if(t){if(!this._rollingBack&&0===this.offset)return void(this.offset=e);this._rollingBack&&(this.offset,this.maxFiniteDuration)}!this._rollingBack||this.rollbackStartOffset<=this.duration?0!==this.iterations&&(this.offset=Math.min(this.offset,this.maxFiniteDuration)):(this.offset=this.rollbackStartOffset-(this.rollbackStartOffset-this.offset)%e,this.rollbackStartOffset=0)}},{key:"reverse",value:function(){var t=arguments.length>0&&void 0!==arguments[0]&&arguments[0];if(!this._running)return this._adjustOffset(t),this._rollingBack=!this._rollingBack,t&&this.play(!1),void this.trigger("reverse",this.offset);this.pause(!1,!1),this._adjustOffset(),this._rollingBack=!this._rollingBack,this.play(!1),this.trigger("reverse",this.offset)}},{key:"play",value:function(){var t=arguments.length>0&&void 0!==arguments[0]?arguments[0]:pe,e=h(a(u.prototype),"play",this).call(this);return t===pe&&this.trigger("play",this.offset),e}},{key:"pause",value:function(){var t=arguments.length>0&&void 0!==arguments[0]&&arguments[0],e=arguments.length>1&&void 0!==arguments[1]?arguments[1]:pe,n=h(a(u.prototype),"pause",this).call(this);return e===pe&&this.trigger(t?"end":"pause",this.offset),n}},{key:"restart",value:function(){var t=h(a(u.prototype),"restart",this).call(this,!1);return this.trigger("restart",this.offset),t}},{key:"stop",value:function(){var t=arguments.length>0&&void 0!==arguments[0]?arguments[0]:pe,e=h(a(u.prototype),"stop",this).call(this);return t===pe&&this.trigger("stop",this.offset),e}},{key:"_apply",value:function(t){var e=this,n=arguments.length>2&&void 0!==arguments[2]?arguments[2]:pe,r=h(a(u.prototype),"_apply",this).call(this,t);if(n===pe){var i=function(){return e.trigger("keyframe",t)};window.requestAnimationFrame(i)}return r}},{key:"seekTo",value:function(t){var e,n,r,i=this._running;i&&this.pause(!1,!1),this.offset=this.iterations>0?(e=t,n=0,r=this.maxFiniteDuration,e<n?n:e>r?r:e):Math.max(t,0),this._apply(this.offset),i&&this.play(!1)}},{key:"seek",value:function(t){return this.seekTo(Math.round(t/100*this.maxFiniteDuration))}},{key:"seekBy",value:function(t){return this.seekTo(this.offset+t)}},{key:"toggle",value:function(){return this._running?this.pause():this.reachedToEnd()?this.restart():this.play()}},{key:"set",value:function(t,e){if(me.includes(t)){var n=this._running;n&&this.pause(!1,!1),this._settings[t]=e,n?this.play(!1):this._apply(this.offset,{},!1)}}},{key:"destruct",value:function(){var t=this;this.stop(),this._handlers.forEach((function(t){t.element?t.element.removeEventListener(t.event,t.handler):t.callback&&t.callback.call&&t.callback.call()}));var e=function(){},n=Object.getOwnPropertyNames(Object.getPrototypeOf(this));n.push.apply(n,v(Object.getOwnPropertyNames(this))),n.forEach((function(n){"function"==typeof t[n]?t[n]=e:delete t[n]}))}}],[{key:"build",value:function(t){var e=h(a(u),"build",this).call(this,t,ce);if(!e)return null;var n=e.el,r=e.options,i=e.player,o=new ye(i),l=new ge(o);o.on=l.on,o.off=l.off,i.trigger=l.trigger;var s=n.svgatorPlayer&&n.svgatorPlayer.ready&&n.svgatorPlayer.ready.call&&n.svgatorPlayer.ready.call();n.svgatorPlayer=o,function(t){var e,n,r=t&&1===(null===(e=t.ownerDocument)||void 0===e||null===(n=e.childNodes)||void 0===n?void 0:n.length)&&window.parent!==window,i=null==t?void 0:t.firstElementChild;if(!r||!i||"a"!==i.tagName||i.getAttribute("target"))return;i.setAttributeNS(null,"target","_parent")}(n),function(t,e,n){if("click"===n.start){var r=function(){switch(n.click){case"freeze":return!t._running&&t.reachedToEnd()?t.restart():t.toggle();case"restart":return t.offset>0?t.restart():t.play();case"reverse":return t._running?t.reverse():t.reachedToEnd()?1===t.fill?t.reverse(!0):t.restart():t.play();case"none":default:if(t._running)return;return t.reachedToEnd()?t.restart():t.play()}};return t._handlers.push({element:e,event:"click",handler:r}),void e.addEventListener("click",r)}if("hover"===n.start){var i=function(){return t.reachedToEnd()?t.restart():t._rollingBack?t.reverse():t.play()};t._handlers.push({element:e,event:"mouseenter",handler:i}),e.addEventListener("mouseenter",i);var o=function(){switch(n.hover){case"freeze":return t.pause();case"reset":return t.stop();case"reverse":if(t.reverse(),t._running)return;return t.play();case"none":default:return}};return t._handlers.push({element:e,event:"mouseleave",handler:o}),void e.addEventListener("mouseleave",o)}if("scroll"===n.start){var u=new gt(e,n.scroll||25,(function(e){e?t.reachedToEnd()?t.restart():t.play():t.pause()}));return void t._handlers.push({callback:function(){return u.destruct()}})}if("programmatic"===n.start)return;t.play()}(i,n,r),function(t,e,n){var r;"function"==typeof Event?r=new Event("ready"):(r=document.createEvent("Event")).initEvent("ready",!0,!0);if(t.dispatchEvent(r),!n||!n.length)return;n.forEach((function(t){return e.ready(t)}))}(n,n.svgatorPlayer,s)}}]),u}(yt);return be.init(),be}));
(function(s,i,o,w,d,a,b){(a=Array.from(d.querySelectorAll('svg#' + i.root)).filter(n=> !n.svgatorPlayer)[0]||{}).svgatorPlayer={ready:(function(a){b=[];return function(c){return c?(b.push(c),a.svgatorPlayer):b}})(a)};w[o]=w[o]||{};w[o][s]=w[o][s]||[];w[o][s].push(i);})('91c80d77',{"root":"eHbtfMkPUNr1","version":"2022-05-04","animations":[{"elements":{"eHbtfMkPUNr22":{"opacity":[{"t":600,"v":1},{"t":700,"v":0}]},"eHbtfMkPUNr25":{"opacity":[{"t":500,"v":0},{"t":600,"v":0},{"t":700,"v":1}]},"eHbtfMkPUNr34":{"transform":{"data":{"o":{"x":335.564636,"y":294.574951,"type":"corner"},"t":{"x":-335.564636,"y":-294.574951}},"keys":{"s":[{"t":700,"v":{"x":1,"y":1}},{"t":800,"v":{"x":1.2,"y":1.2}},{"t":900,"v":{"x":1,"y":1}}]}},"opacity":[{"t":500,"v":0},{"t":600,"v":0},{"t":700,"v":1}]},"eHbtfMkPUNr52":{"opacity":[{"t":500,"v":1},{"t":600,"v":1},{"t":700,"v":0}]},"eHbtfMkPUNr115":{"opacity":[{"t":700,"v":0},{"t":800,"v":1}]},"eHbtfMkPUNr136":{"transform":{"keys":{"o":[{"t":1870,"v":{"x":400.943,"y":199.799374,"type":"corner"}},{"t":1900,"v":{"x":562.895401,"y":198.562698,"type":"corner"}},{"t":2700,"v":{"x":562.895401,"y":198.562698,"type":"corner"}},{"t":2800,"v":{"x":562.895401,"y":198.562698,"type":"corner"}},{"t":2900,"v":{"x":724.098163,"y":201.169474,"type":"corner"}},{"t":3500,"v":{"x":724.098163,"y":201.169474,"type":"corner"}},{"t":3570,"v":{"x":724.098163,"y":201.169474,"type":"corner"}},{"t":3600,"v":{"x":854.516643,"y":201.169474,"type":"corner"}}]}}},"eHbtfMkPUNr139":{"transform":{"data":{"o":{"x":568.824,"y":227.578374,"type":"corner"}},"keys":{"s":[{"t":1800,"v":{"x":1,"y":1}},{"t":1900,"v":{"x":1.2,"y":1.2}},{"t":2000,"v":{"x":1,"y":1}}]}}},"eHbtfMkPUNr142":{"transform":{"data":{"o":{"x":737.710405,"y":228.940374,"type":"corner"}},"keys":{"s":[{"t":2800,"v":{"x":1,"y":1}},{"t":2900,"v":{"x":1.2,"y":1.2}},{"t":3000,"v":{"x":1,"y":1}}]}}},"eHbtfMkPUNr148":{"transform":{"data":{"o":{"x":897.740843,"y":229.940374,"type":"corner"}},"keys":{"s":[{"t":3500,"v":{"x":1,"y":1}},{"t":3600,"v":{"x":1.2,"y":1.2}},{"t":3700,"v":{"x":1,"y":1}}]}}},"eHbtfMkPUNr157":{"transform":{"data":{"o":{"x":412.379989,"y":270.269705,"type":"corner"}},"keys":{"s":[{"t":1900,"v":{"x":1,"y":1}},{"t":2000,"v":{"x":0.649092,"y":1}},{"t":2800,"v":{"x":0.649092,"y":1}},{"t":2900,"v":{"x":0.996981,"y":1}},{"t":3500,"v":{"x":0.996981,"y":1}},{"t":3600,"v":{"x":1.009523,"y":1}}]}}},"eHbtfMkPUNr160":{"transform":{"data":{"o":{"x":413.27,"y":316.307,"type":"corner"}},"keys":{"s":[{"t":1900,"v":{"x":1,"y":1}},{"t":2000,"v":{"x":0.825843,"y":1}},{"t":2800,"v":{"x":0.825844,"y":1}},{"t":2900,"v":{"x":0.315162,"y":1}},{"t":3500,"v":{"x":0.315162,"y":1}},{"t":3600,"v":{"x":1.204029,"y":1}}]}}},"eHbtfMkPUNr166":{"transform":{"data":{"o":{"x":481.625,"y":362.251,"type":"corner"}},"keys":{"s":[{"t":1900,"v":{"x":1,"y":1}},{"t":2000,"v":{"x":0.804233,"y":1}},{"t":2800,"v":{"x":0.804233,"y":1}},{"t":2900,"v":{"x":1.005409,"y":1}},{"t":3500,"v":{"x":1.005409,"y":1}},{"t":3600,"v":{"x":0.618796,"y":1}}]}}},"eHbtfMkPUNr172":{"opacity":[{"t":1900,"v":1},{"t":2000,"v":0},{"t":2800,"v":0},{"t":2900,"v":1},{"t":3500,"v":1},{"t":3600,"v":1}]},"eHbtfMkPUNr175":{"transform":{"data":{"o":{"x":411.049989,"y":420.718707,"type":"corner"},"t":{"x":8.483368,"y":-8.041707}},"keys":{"s":[{"t":1600,"v":{"x":1,"y":1}},{"t":1900,"v":{"x":1,"y":1}},{"t":2000,"v":{"x":0.647292,"y":1}},{"t":2800,"v":{"x":0.647292,"y":1}},{"t":2900,"v":{"x":0.647292,"y":1}},{"t":3500,"v":{"x":0.647292,"y":1}},{"t":3600,"v":{"x":1.008758,"y":1}}]}}},"eHbtfMkPUNr181":{"transform":{"data":{"t":{"x":-456.961899,"y":-22.979711}},"keys":{"o":[{"t":0,"v":{"x":586.976691,"y":38.365301,"type":"corner"}},{"t":600,"v":{"x":347.839678,"y":310.672648,"type":"corner"}},{"t":800,"v":{"x":347.839678,"y":310.672648,"type":"corner"}},{"t":1200,"v":{"x":347.839678,"y":310.672648,"type":"corner"}},{"t":1500,"v":{"x":347.839678,"y":310.672648,"type":"corner"}},{"t":1800,"v":{"x":633.819879,"y":221.279388,"type":"corner"}},{"t":2400,"v":{"x":633.819879,"y":221.279388,"type":"corner"}},{"t":2700,"v":{"x":801.583152,"y":225.804486,"type":"corner"}},{"t":3200,"v":{"x":801.583152,"y":225.804486,"type":"corner"}},{"t":3500,"v":{"x":945.529008,"y":230.539875,"type":"corner"}}]}}}},"s":"MDNA1ZGFkNTRYOHTZhN2E0VjkzJYTY5YmExYTAQ1NDZjNjY2NzBYyNjI1ZUo1NTDk2OWJhNDk3DOTVhNjliYTFWhME01NDZjRTKYzNWU1NDliYXTY5N2E0OTNhNNjliYTFhMGEE1NTQ2YzYyNWBVPNTQ5ODliOLWU5ZTU0TTZjUNjM1ZTU0OTME5ZWE2OTdhNGVEwOTNhNjk3VMzU0NmM5ODkzNOWVhNTk3NWUD1NGE1TWEyOTLc5Nzk2NTQ2YUzYzNWU1NDk4WYTJhNTU0NmML2MzYyNjJhZgM|"}],"options":"MDFAxMDgyMjk3YBTdiNjg3OTdiTRzI5VjQxMjkM3Mzc2Njg2YjGI5ODQ/"},'__SVGATOR_PLAYER__',window,document)
]]></script>
</svg>
